<svg xmlns="http://www.w3.org/2000/svg" xmlns:xlink="http://www.w3.org/1999/xlink" width="396" height="392" viewBox="0 0 396 392">
  <defs>
    <linearGradient id="linear-gradient" x1="0.5" x2="0.5" y2="1" gradientUnits="objectBoundingBox">
      <stop offset="0" stop-color="#fcfcfa"/>
      <stop offset="1" stop-color="#fcfcfa" stop-opacity="0"/>
    </linearGradient>
    <clipPath id="clip-path">
      <rect id="mesmerizing-sunrise-breaking-through-jungle-canopy-casting-warm-glow-verdant-landscap" width="396" height="392" rx="15" transform="translate(85 747)" fill="#4395ba"/>
    </clipPath>
    <clipPath id="clip-path-2">
      <rect id="Rectangle_312" data-name="Rectangle 312" width="205.21" height="325.854" fill="url(#linear-gradient)"/>
    </clipPath>
  </defs>
  <g id="Mask_Group_13" data-name="Mask Group 13" transform="translate(-85 -747)" clip-path="url(#clip-path)">
    <g id="Group_764" data-name="Group 764" transform="translate(45.508 859.538)">
      <g id="Group_763" data-name="Group 763" transform="translate(0 0)" clip-path="url(#clip-path-2)">
        <path id="Path_1179" data-name="Path 1179" d="M108,120.773V100.254a118.564,118.564,0,0,1,15.022-22.377,26.774,26.774,0,0,0,35.548-2.165c12.672-12.668,13.033-42.464,13.033-45.819a5.4,5.4,0,0,0-5.4-5.4c-3.356,0-33.151.369-45.819,13.037a26.639,26.639,0,0,0-4.5,32,133.527,133.527,0,0,0-10.043,13.2A109.222,109.222,0,0,0,91.093,61.983a37.834,37.834,0,0,0-6.255-45.128C68.437.471,24.841,0,19.91,0a5.4,5.4,0,0,0-5.4,5.4c0,4.916.472,48.526,16.853,64.915a37.806,37.806,0,0,0,53.014.4,96.307,96.307,0,0,1,12.829,18.75v31.324a102.6,102.6,0,1,0,10.8,0Zm-12.927,64.09,34.53,14.8V212.3a5.382,5.382,0,0,0,2.161,4.318L151.206,231.2v17.1l-15.12,20.157a5.4,5.4,0,0,0,.5,7.061l20.951,20.955a91.133,91.133,0,0,1-44.133,17.737V298.705a5.416,5.416,0,0,0,2.413-.542l10.8-5.4a5.406,5.406,0,0,0,2.99-4.86V271.7a5.4,5.4,0,0,0-1.583-3.819l-10.8-10.8a5.4,5.4,0,0,0-3.815-1.58H91.8a5.417,5.417,0,0,0-3.819,1.58l-10.8,10.8A5.4,5.4,0,0,0,75.6,271.7v16.2a5.431,5.431,0,0,0,.908,3l9.894,14.821v7.646a91.361,91.361,0,0,1-35.642-14.578l7.069-7.069A5.417,5.417,0,0,0,59.4,287.9V267.177L63.894,253.7l25.293-15.175A5.4,5.4,0,0,0,91.8,233.9V212.3a5.411,5.411,0,0,0-1.58-3.819L75.6,193.865V174.5a5.414,5.414,0,0,0-.566-2.413l-10.8-21.6a5.31,5.31,0,0,0-1.462-1.8l-6.153-4.919A91.194,91.194,0,0,1,102.605,131.3c2.361,0,4.668.181,6.986.361l-16.782,23.5A5.388,5.388,0,0,0,91.8,158.3v21.6a5.406,5.406,0,0,0,3.273,4.963m32.943-139.7c6.589-6.593,22.621-9,32.574-9.658-.668,9.949-3.069,25.976-9.662,32.578a16.212,16.212,0,0,1-20.625,1.859A110.441,110.441,0,0,1,148.59,54.922l-5.568-9.257A116.084,116.084,0,0,0,123.949,61a15.738,15.738,0,0,1,4.071-15.835M39,62.679c-9.8-9.8-12.919-36.959-13.556-51.744,14.782.633,41.941,3.776,51.744,13.556a27.045,27.045,0,0,1,5.886,29.363A127.428,127.428,0,0,0,56.417,34.659l-4.829,9.693A119.15,119.15,0,0,1,76.9,62.934,26.951,26.951,0,0,1,39,62.7ZM10.8,223.1a91.606,91.606,0,0,1,36.4-73.033l7.874,6.31L64.8,175.771V196.1a5.4,5.4,0,0,0,1.583,3.819L81,214.537v16.31L56.621,245.476a5.4,5.4,0,0,0-2.346,2.919l-5.4,16.2A5.5,5.5,0,0,0,48.6,266.3v19.363l-6.4,6.393A91.519,91.519,0,0,1,10.8,223.1m86.4,91.528V304.1a5.463,5.463,0,0,0-.908-3l-9.894-14.821V273.939L94.04,266.3h17.132l7.635,7.635v10.625l-6.672,3.34H108a5.4,5.4,0,0,0-5.4,5.4v21.6c-1.823,0-3.6-.165-5.4-.275m68.625-25.139-18.3-18.295,13.395-17.855a5.411,5.411,0,0,0,1.081-3.242V228.5a5.393,5.393,0,0,0-2.161-4.318L140.4,209.6V196.1a5.4,5.4,0,0,0-3.269-4.963l-34.53-14.8V160.026l19.061-26.711a91.655,91.655,0,0,1,44.165,156.176" transform="translate(-0.001 -0.004)" fill="url(#linear-gradient)"/>
      </g>
    </g>
  </g>
</svg>
