<?xml version="1.0" encoding="UTF-8"?>
<svg id="Camada_1" xmlns="http://www.w3.org/2000/svg" xmlns:xlink="http://www.w3.org/1999/xlink" viewBox="0 0 572.1 540.46">
  <defs>
    <style>
      .cls-1 {
        clip-path: url(#clippath-21);
      }

      .cls-2 {
        clip-path: url(#clippath-6);
      }

      .cls-3 {
        clip-path: url(#clippath-7);
      }

      .cls-4 {
        clip-path: url(#clippath-17);
      }

      .cls-5 {
        clip-path: url(#clippath-15);
      }

      .cls-6 {
        clip-path: url(#clippath-18);
      }

      .cls-7 {
        clip-path: url(#clippath-4);
      }

      .cls-8 {
        letter-spacing: 0em;
      }

      .cls-9 {
        fill: #ff7133;
      }

      .cls-10 {
        clip-path: url(#clippath-9);
      }

      .cls-11 {
        clip-path: url(#clippath-10);
      }

      .cls-12 {
        letter-spacing: 0em;
      }

      .cls-13 {
        clip-path: url(#clippath-11);
      }

      .cls-14 {
        fill: none;
      }

      .cls-15 {
        font-size: 12px;
      }

      .cls-15, .cls-16, .cls-17 {
        fill: #005940;
      }

      .cls-15, .cls-18, .cls-19, .cls-17 {
        font-family: Graphie-Bold, Graphie;
        font-weight: 700;
      }

      .cls-20 {
        fill: #e1ff0f;
      }

      .cls-21 {
        clip-path: url(#clippath-1);
      }

      .cls-22, .cls-23, .cls-18, .cls-19, .cls-17 {
        isolation: isolate;
      }

      .cls-24, .cls-23 {
        fill: #e1eae6;
      }

      .cls-25 {
        clip-path: url(#clippath-5);
      }

      .cls-26 {
        clip-path: url(#clippath-20);
      }

      .cls-27 {
        clip-path: url(#clippath-8);
      }

      .cls-28 {
        letter-spacing: 0em;
      }

      .cls-29 {
        clip-path: url(#clippath-3);
      }

      .cls-30, .cls-18 {
        fill: #fcfcfa;
      }

      .cls-31 {
        clip-path: url(#clippath-12);
      }

      .cls-32 {
        clip-path: url(#clippath-14);
      }

      .cls-33 {
        letter-spacing: 0em;
      }

      .cls-34 {
        clip-path: url(#clippath-19);
      }

      .cls-18, .cls-19, .cls-17 {
        font-size: 19px;
      }

      .cls-35 {
        clip-path: url(#clippath-16);
      }

      .cls-19 {
        fill: #fff;
      }

      .cls-36 {
        clip-path: url(#clippath-2);
      }

      .cls-37 {
        clip-path: url(#clippath-13);
      }

      .cls-38 {
        clip-path: url(#clippath);
      }
    </style>
    <clipPath id="clippath">
      <rect class="cls-14" x="3.4" y="40.18" width="245.3" height="167.7"/>
    </clipPath>
    <clipPath id="clippath-1">
      <rect class="cls-14" x="230" y="450.18" width="100.2" height="90"/>
    </clipPath>
    <clipPath id="clippath-2">
      <rect class="cls-14" y="177.18" width="102.3" height="57.5"/>
    </clipPath>
    <clipPath id="clippath-3">
      <rect class="cls-14" x="101.2" y="183.68" width="98.2" height="79.2"/>
    </clipPath>
    <clipPath id="clippath-4">
      <rect class="cls-14" x="174" y="177.08" width="151.9" height="142.6"/>
    </clipPath>
    <clipPath id="clippath-5">
      <rect class="cls-14" x="207.9" y="38.48" width="178.7" height="169"/>
    </clipPath>
    <clipPath id="clippath-6">
      <rect class="cls-14" x="130" y=".18" width="79.3" height="93.7"/>
    </clipPath>
    <clipPath id="clippath-7">
      <rect class="cls-14" x="390.5" y="114.48" width="76" height="108.4"/>
    </clipPath>
    <clipPath id="clippath-8">
      <rect class="cls-14" x="457.8" y="113.28" width="51.3" height="71.5"/>
    </clipPath>
    <clipPath id="clippath-9">
      <rect class="cls-14" x="324.4" y="142.98" width="65.3" height="115.5"/>
    </clipPath>
    <clipPath id="clippath-10">
      <rect class="cls-14" x="358.7" y="89.38" width="90.3" height="127.9"/>
    </clipPath>
    <clipPath id="clippath-11">
      <rect class="cls-14" x="494" y="141.88" width="51.3" height="30.5"/>
    </clipPath>
    <clipPath id="clippath-12">
      <rect class="cls-14" x="278" y="433.28" width="69.4" height="49.2"/>
    </clipPath>
    <clipPath id="clippath-13">
      <rect class="cls-14" x="382.7" y="195.48" width="119.7" height="136.7"/>
    </clipPath>
    <clipPath id="clippath-14">
      <rect class="cls-14" x="497" y="203.98" width="43" height="23.5"/>
    </clipPath>
    <clipPath id="clippath-15">
      <rect class="cls-14" x="435" y="328.88" width="33.6" height="45.3"/>
    </clipPath>
    <clipPath id="clippath-16">
      <rect class="cls-14" x="486.4" y="164.98" width="58.8" height="22.2"/>
    </clipPath>
    <clipPath id="clippath-17">
      <rect class="cls-14" x="495.2" y="217.28" width="21.1" height="26.6"/>
    </clipPath>
    <clipPath id="clippath-18">
      <rect class="cls-14" x="223.1" y="310.58" width="92" height="92.6"/>
    </clipPath>
    <clipPath id="clippath-19">
      <rect class="cls-14" x="399.1" y="372.18" width="47.8" height="28"/>
    </clipPath>
    <clipPath id="clippath-20">
      <rect class="cls-14" x="286.5" y="246.78" width="97.4" height="96.9"/>
    </clipPath>
    <clipPath id="clippath-21">
      <rect class="cls-14" x="360.2" y="283.98" width="3.5" height="3.5"/>
    </clipPath>
  </defs>
  <g id="Camada_1-2" data-name="Camada_1">
    <g id="Group_764">
      <path id="Union_2" class="cls-23" d="M328.2,95.98c-.7-.4-1.1-1.2-1.1-2,0-.6,0-1.1.3-1.6.1-.2.2-.5.2-.7v-.5c-.2-.6-.1-1.2,0-1.7.3-.5.7-1,1.3-1.2.4-.2.9-.4,1.4-.6.9-.3,1.8-.8,2.5-1.4.5-.5.8-1.1.8-1.8,0-.3-.1-.6-.4-.8-.4-.2-.8-.4-1.2-.5-.8-.1-1.5-.5-2.1-1-.4-.5-.8-1.1-1-1.8-.3-.8-1-3,.3-4.5,1.3-1.4,3.5-.9,5,.2.2.2.5.4.7.5.6.6,1.4,1,2.3,1.2.9,0,1.7-.7,2.7-1.5.6-.6,1.3-1.1,2.1-1.6,2.3-1.2,4.7-.6,7,0,1.8.5,3.6.9,5.1.4.4-.1.8-.3,1.2-.5.6-.3,1.2-.5,1.8-.7,1.5-.4,3.1.3,3.8,1.8.6,1.8-.9,3.4-2.6,4.1-.2,0-.5.2-.7.3-.8.2-1.5.6-2.1,1.2-.2.4-.3.9-.3,1.4l-.3,3.3c0,.9-.2,1.8-.7,2.6-.4.6-.9,1.1-1.4,1.5-1,.8-2,1.6-3,2.4l-1.2,1c-.7.6-1.5,1.1-2.4,1.4-1.7.4-3.5.3-5.2-.2-1.4-.4-2.9-.5-4.3-.3-.3,0-.9.3-1.4.5-1.7.7-3.5,1.2-5.3,1.4-.6,0-1.3-.1-1.8-.4v.1ZM330,94.38h0ZM329.9,94.38h0ZM329.9,94.38h0ZM329.8,94.38h-.3.3ZM329.5,94.38h0ZM344.5,94.38h0ZM344.4,94.38c-1,0-1.9-.2-2.8-.4.9.2,1.9.4,2.8.4h0ZM329.5,94.38h0ZM341.5,93.88h0ZM328.6,91.68c0,.7-.5,1.4-.5,2.1,0-.7.5-1.4.5-2.1h0ZM329.1,93.58h0ZM336.6,93.58h.3-.3ZM329.1,93.58h0ZM329.1,93.48h0ZM329.1,93.48h0ZM329.1,93.48h0ZM329.1,93.38h0ZM337.5,93.38h.5-.5ZM329.1,93.38h0ZM329.2,93.38h0ZM336.3,92.58c-.6.2-1.1.3-1.7.6l-.5.2.5-.2c.6-.2,1.1-.4,1.7-.6.9-.2,1.9-.2,2.8-.1h-1.2c-.6,0-1.1,0-1.7.2h0l.1-.1ZM345.8,93.18c.4-.2.8-.4,1.2-.7-.4.3-.8.5-1.2.7h0ZM329.6,91.68h0ZM348.7,91.08l-.8.6.8-.6.7-.6-.7.6ZM328.4,90.38v-.3.3h0ZM329.5,90.28s.2-.1.3-.2c0,0-.2,0-.3.2h0ZM330.5,89.78c.2,0,.3-.1.5-.2-.2,0-.3.1-.5.2h0ZM329.4,89.18c-.3.1-.5.3-.7.5.2-.2.4-.4.7-.5h.1-.1ZM351,89.28l.3-.2-.3.2ZM351.9,88.58c.3-.2.5-.5.7-.7-.2.3-.5.5-.7.7h0ZM354,80.38c-.4.7-.6,1.5-.6,2.3l-.3,3.3c0,.6-.1,1.1-.3,1.6.2-.5.3-1.1.3-1.6l.3-3.3c0-.8.2-1.6.6-2.3.5-.8,1.2-1.4,2.1-1.7-.9.3-1.6.9-2.1,1.7h0ZM333.5,86.98h0ZM334.6,84.48c0-.6-.2-1.2-.7-1.6.5.4.7,1,.7,1.6h0ZM335.6,84.38h0ZM337.3,79.78c-1.3-.2-2.5-.7-3.4-1.6.9.9,2.1,1.5,3.4,1.6h0ZM337.5,78.88h0ZM337.5,78.88h0ZM337.4,78.88c-1-.1-2-.6-2.7-1.3.7.7,1.7,1.2,2.7,1.3h0ZM333.9,78.18c-.2-.2-.4-.3-.7-.5.2.2.4.3.7.5h0ZM342.6,75.68c-1.1.7-2.1,1.5-3.1,2.4,1-.9,2-1.7,3.1-2.4,1.3-.6,2.8-.7,4.2-.4-.6-.1-1.1-.2-1.7-.2-.9,0-1.7.2-2.5.6h0ZM330.1,76.58c-.4.4-.5.9-.5,1.5,0-.5.2-1.1.5-1.5.6-.6,1.6-.7,2.4-.4-.3-.1-.7-.2-1-.2-.5,0-1,.2-1.4.5h0v.1ZM333.3,77.68c-.5-.4-1.1-.6-1.7-.7h0c.6,0,1.2.3,1.7.7h0ZM354.3,77.18c-1.9.2-3.8,0-5.7-.5,1.8.6,3.8.8,5.7.5h0ZM342,77.28c.3-.3.7-.5,1-.7-.4.2-.7.4-1,.7h0ZM330.9,77.28h0ZM330.9,77.18h0ZM330.9,77.18h0ZM354.4,77.18h0ZM330.9,77.18h0ZM330.9,77.18h0ZM359.1,77.08c.1-.2.2-.3.2-.5,0,.2,0,.4-.2.5h0ZM348.5,76.68c-1.1-.3-2.2-.5-3.4-.6,1.1,0,2.3.2,3.4.6h0ZM360.1,76.18v.5-.5h0ZM354.5,76.18h0c-1.7.4-3.5.2-5.2-.3,1.7.6,3.5.7,5.2.3h0ZM359.1,76.38c-.3-.3-.6-.4-1-.4.4,0,.8.1,1,.4h0ZM360.1,76.08h0ZM360.1,76.08h0ZM360.1,75.98c-.6-.9-1.6-1.3-2.6-1-.3,0-.5.1-.7.2.2,0,.5-.2.7-.2h.6c.8,0,1.6.3,2,1h0ZM317.4,86.28c-.4-.2-.6-.5-.8-.9-.1-.5,0-1,.2-1.5.7-1.1,1.6-1.9,2.7-2.5.5-.3.9-.6,1.3-.9.2-.2.4-.4.6-.5,1-1,2.6-2.7,4.9-1.3,1.1.6,1.4,2,.8,3.7-.2.8-.6,1.4-1.2,2-.6.4-1.3.7-2,.7-.3,0-.6,0-.9.2s-.6.3-.8.6c-.3.3-.6.5-1,.7-.5.3-1.1.4-1.7.4-.7,0-1.4-.2-2-.6h0l-.1-.1ZM320.5,85.58h.1-.1ZM325.2,83.38c-.7.6-1.9.4-2.7.8-.7.3-1.2,1-1.9,1.3.7-.4,1.2-1,1.9-1.3.9-.4,2-.2,2.7-.8l.2-.2-.2.2h0ZM320.1,84.58c.2-.1.5-.3.7-.5s.5-.4.7-.6c-.3.2-.5.4-.7.6s-.4.4-.7.5c-.2.1-.5.2-.8.2h-.4c.4,0,.8,0,1.1-.2h.1ZM318.6,84.68h0s.1-.2.2-.3c0,0-.1.2-.2.3h0ZM321.4,81.08c-1.2,1.1-2.9,1.6-3.8,3.2,0,0,0,.2-.1.3,0,0,0-.2.1-.3.8-1.5,2.5-2.1,3.8-3.2.5-.4,1-1,1.6-1.5-.6.4-1.1,1.1-1.6,1.5h0ZM319.8,83.48c.2-.2.5-.3.7-.5-.3.2-.5.3-.7.5h0ZM325.1,81.68c0,.4-.3.7-.5,1-.3.2-.7.3-1.1.3-.5,0-1,.2-1.4.3.5-.2.9-.3,1.4-.3.4,0,.7-.1,1.1-.3.3-.3.4-.6.5-1,.1-.3.2-.6.2-.9,0,.3,0,.6-.2.9h0ZM325.7,79.38c.8.5.7,1.7.4,2.6.3-.9.4-2.1-.4-2.6ZM322.7,81.28l-.2.2.2-.2c.8-.8,1.3-1.2,1.8-1.2h0c-.5,0-1,.4-1.8,1.2h0ZM324.6,79.98h0ZM324.6,79.98h0ZM307.1,86.58h-2c-.2,0-.4,0-.6-.1-.2,0-.3,0-.5-.1-.2,0-.4-.1-.6-.2-.1,0-.3-.1-.4-.2-.2,0-.3-.1-.5-.2s-.3-.2-.4-.3-.2-.2-.4-.3c-.1-.1-.3-.3-.4-.4l-.2-.2c-.2-.2-.3-.5-.5-.7-.2-.4-.4-.8-.5-1.3-.2-.5-.4-1-.6-1.4-1.1-2.2-3.1-3.5-5-4.7s-3.6-2.3-4.4-4c-.5-1.4-.6-2.8-.5-4.3.1-1.6,0-3.2-.5-4.8-.2-.5-.4-1-.7-1.4-.9-1.3-2-2.5-3.3-3.4-1.5-1.2-3.1-2.3-4.6-3.4-2.6-1.8-5.1-3.7-7.4-5.8-.3-.3-.6-.6-.9-.9,0,0-.2-.2-.3-.3-.2-.2-.4-.4-.6-.7-.1-.1-.2-.3-.3-.4-.2-.2-.4-.5-.6-.7-.1-.1-.2-.3-.3-.4-.2-.2-.4-.5-.5-.7s-.2-.3-.3-.5c-.2-.3-.3-.5-.5-.8-.1-.2-.2-.3-.3-.5-.2-.3-.3-.6-.4-.9,0-.2-.2-.3-.2-.5-.2-.4-.3-.8-.4-1.1,0-.1,0-.2-.1-.3h0c4.4,1.2,8.7,2.9,12.7,5.1l1.4.8v-1.6c.1-.7.5-1.3,1.1-1.7,1.8-1,3.9-1.2,5.9-.5l.9.3c3.1.9,6.9,2.1,9.6-.3l.2-.2v-.3c2-8.9,6.3-17.1,12.3-23.8.5-.7,1.2-1.2,1.9-1.6.3,0,.5-.1.8-.2h0c.4,0,.7.1,1.1.3,1.8,1.1,2.9,4.6,3.3,7.4,1.2,9.3,4.8,18.1,10.5,25.5,2.9,3.8,5.4,4.1,7,3.6,1.6-.3,3.3.6,3.8,2.2,0,.2,0,.4.1.7h0c0,1.5-.9,2.7-2.2,3.2h0c-5.9,1.8-9.9,4.9-11.7,9.2-.2.3-.3.7-.4,1-.3.8-.6,1.6-1.1,2.3-1,1.4-2.7,2.1-4.4,2.9-.8.4-1.6.7-2.4,1.1-4.4,2.4-7.1,7-9.3,10.6v.2h-1.2l-.2-.3ZM333.2,73.98c-.7,0-1.3-.4-1.7-.9h0c-.4-.6-.5-1.4-.3-2.1.7-2.6,5.1-5.8,6.3-6.4.8-.5,1.7-.6,2.5-.2.9.5.9,1.6.9,2.5v.8c.2,0,.4-.1.6-.2.6-.3,1.3-.4,2-.4.9,0,1.7.6,2.1,1.5.3.9,0,1.9-.6,2.6-.5.5-1.1.9-1.7,1.1l-2.1,1c-.5.3-1.1.4-1.7.5h0c-.5,0-1-.1-1.5-.4-.2,0-.4-.2-.6-.2-.6,0-1.2,0-1.8.3-.7.2-1.4.4-2.1.4h-.4l.1.1Z"/>
      <g id="Group_683" class="cls-22">
        <g id="Group_682">
          <g class="cls-38">
            <g id="Group_681">
              <path id="Path_1137" class="cls-24" d="M5.7,175.18h2.8c.6,0,1.2.1,1.8.2.3,0,.6,0,.9.1.9.1,1.7.3,2.5.5,2.7.8,5.2,1.8,7.7,3.1,4.1,1.9,8,3.7,12.2,3.5,1.6-.1,3.1-.3,4.7-.7,2.6-.5,5.4-1.1,8.1-.4,3,.8,5.4,2.9,7.5,4.8,9.1,8.2,19.9,16.9,32.3,16.3.5,0,1,0,1.5-.1h4.3c.2,0,.4,0,.6.1h.3c.3,0,.6.2.8.3,1.7.7,3.1,1.8,4.3,3.1.2.2.5.5.7.8l.2.2.8.8h0s.2,0,.3-.1c.1,0,.3-.1.4-.2.2,0,.5-.2.7-.3.1,0,.3-.1.4-.1.2,0,.5-.1.7-.2h.3c.4,0,.7-.2,1.1-.2.9-.1,1.7-.2,2.6-.2s1.8,0,2.8-.2c1.4-.3,2.7-.8,3.9-1.5,2-.9,4-1.9,5.9-2.8l4-1.9c2.7-1.3,5.3-2.5,8-3.8,2.4-1.1,4.6-2.3,5.4-4.3.2-.6.4-1.3.5-2,.1-1.3.6-2.6,1.4-3.7.8-.8,1.8-1.5,2.9-1.8,3.3-1.4,6.9-2.9,10.8-2.9h.2c3.7,0,8.4,2.1,9.7,6.3.1.3.2.7.3,1.1,0,.7.4,1.4.8,2,.9,1,2.7.6,4.6.3,2.3-.4,5.1-1,6.3,1.5.5,1.1.5,2.3.2,3.5v.5c0,.2,0,.4-.1.6.2-.3.5-.6.8-1l.2-.2c.2-.2.4-.5.7-.7l.3-.3c.2-.2.5-.4.7-.6.1,0,.2-.2.3-.2.4-.2.7-.5,1.1-.7,3.4-1.7,7.1-1,10.7-.3,2.2.5,4.5.7,6.8.6,1.8-.2,3.6-.7,5.4-1.3,3.5-1.1,7-2.2,10.4-.5.3.1.6.3.9.5.4.2.8.5,1.3.6.1,0,.3,0,.4.1,1.5.2,2.9-1.4,3.4-3.1.2-.9.4-1.9.4-2.8,0-1.2.3-2.4.6-3.6.7-1.7,1.6-3.3,2.8-4.7.8-1.1,1.7-2.2,2.5-3.4h0c-.4-.4-.8-.7-1.1-1l-.3-.2c-.4-.3-.8-.6-1.1-.8-3-2.2-6-4.4-6.4-8.2,0-1.8.3-3.5.9-5.2,2.6-7.2,6.2-13.9,10.7-20.1.5-.7,1.1-1.4,1.6-2.2,2.7-3.5,5.4-7.1,6.4-11.2.4-1.7.6-3.5.7-5.3.4-4.4.8-8.9,4.4-11.5,1.4-.9,2.8-1.6,4.4-2.1,2.5-.9,4.6-1.7,5-3.6h0v-.7c-.2-1.6-1.3-3-2.8-3.7s-3.2-1.1-4.8-1.2c-.5,0-1-.2-1.6-.3-6.3-1.2-12.1-4.4-16.4-9.2l-.6-.6c-.9-1.2-2-2.2-3.3-2.8-.9-.3-1.9-.5-2.9-.5-.8,0-1.6-.1-2.4-.3-4.5-1-7.1-5.4-7.8-9.3-.1-.6-.2-1.2-.2-1.9v-2.3c0-.6,0-1.1.1-1.7h0c0-.5.1-1.1.2-1.6v-.1h-.1c-.4,0-.9,0-1.3.2h-.4c-.5,0-1,.2-1.5.3l-13.5,3.3c-.4,1.7-.2,3.5.3,5.2.6,2.2,1.2,4.6.4,6.8-.5,1.5-1.7,2.7-3.2,3.2-1.1.4-2.3.3-3.3-.4-1.1-.9-1.9-2.2-2.1-3.7-.2-.7-.4-1.4-.8-2.1-.5-.8-1.4-1.3-2.3-1.3-1.4-.2-2.8.2-3.8,1.2-2.1,1.9-2.5,5-2.4,7.2,0,2.5.1,6.6-3,7.7-.2,0-.5.1-.7.2h-1c-.2,0-.4,0-.5-.1h-.2c-.3,0-.5-.2-.8-.3h0c-.3-.1-.5-.3-.7-.5,0,0-.2-.1-.2-.2-.2-.1-.4-.3-.5-.5,0,0-.2-.2-.3-.2-.2-.2-.4-.4-.5-.6,0,0-.2-.2-.2-.3-.3-.3-.5-.6-.8-1-1.4-1.9-2.8-4-2.8-6.4,0-.5,0-.9.2-1.4.2-.6.2-1.2,0-1.8-.2-.5-.6-1-1-1.4-.3-.4-.7-.8-.9-1.2-.2-.3-.3-.5-.4-.8-.3-.8-.5-1.7-.4-2.6,0-1.2.3-2.4.6-3.5,0-.2.1-.4.2-.7.3-1.1.4-2.3.4-3.4-.2-1.5-.8-3-1.6-4.3-1-1.9-1.9-3.8-1.8-6,.2-1.7.9-3.3,1.8-4.7.3-.6.6-1.1.9-1.7.8-1.7,1-4-.3-4.8-.4-.2-.8-.4-1.3-.5-.6-.2-1.2-.4-1.8-.8-.7-.6-1.3-1.3-1.8-2.1-.2-.3-.3-.5-.5-.8s-.5-.6-.8-.9l-.1-.1c-.3-.2-.6-.5-1-.6,0,0-.1,0-.2-.1-.4-.2-.7-.3-1.1-.5h-.2c-.4-.1-.8-.2-1.3-.3h0c-.2,1.7-1,3.2-2.2,4.5-4.6,4.7-10.3,8.4-16.5,10.6-4.1,1.5-7.7,4.1-10.4,7.6l-1.8,2.4v-3c0-1.4-.3-2.9-.9-4.2-1.5,2-3.8,3.2-6.2,3.4-3.1.5-6.2-.8-8.1-3.3l-.7-1,1.2-.4c.4-.2.6-.6.5-1,0-.9-.6-1.8-1.4-2.1-1.7-.6-3.7.4-5.5,1.5l-1.2.7-2.1-11.7c-.3-1.7-.9-3.7-2.3-4.1-1.1-.3-2.5.5-3.7,1.4-7.4,5.2-16.9,10.7-25.2,6.6-.9-.4-2-.1-2.6.7-1.3,1.3-1.6,3.3-.9,5,1.6,2.9,5.3,4,8.9,4.8h.6c0,.1.1.8.1.8.3,1.2,0,2.4-.8,3.3-1.7,2.1-5.4,2.8-8.4,2.9-2.3,0-5.2,1.5-5.9,2.9-.3.5-.2,1.1.2,1.5,6.8,8.8,10.4,19.6,10.2,30.7.1,2.1-.4,4.1-1.5,5.9-5.2,7.4-6.7,16.8-4.1,25.5l.7,2.2-2.1-1c-6.7-3.3-15.5-2.4-26,2.9-7.7,3.8-17,10.3-18,20.1-.2,1.8,0,2.6.9,3.5.3.3.7.6,1,.9,1.1.8,2,1.9,2.8,3,.7,1.2.8,2.6.4,3.9-.3.9-.9,1.7-1.8,2.1-.8.3-1.6.4-2.4.3-.5,0-1.1,0-1.6-.1-1.1-.1-2.3-.1-3.4,0-1.4,0-2.8.8-3.6,2-.4.9-.6,2-.7,3v.4h2.3"/>
            </g>
          </g>
        </g>
      </g>
      <g id="Group_686" class="cls-22">
        <g id="Group_685">
          <g class="cls-21">
            <g id="Group_684">
              <path id="Path_1138" class="cls-24" d="M329.6,484.78c-.1-.2-.3-.3-.4-.5,0-.1-.2-.2-.3-.3l-.5-.5s-.2-.2-.3-.2c-.3-.2-.5-.4-.8-.7l-.3-.2c-.7-.4-1.3-1-1.8-1.7-1.4-2.2,0-4.4,1.3-6.2.8-1,1.4-2.1,1.7-3.3.2-.9,0-1.9-.7-2.7-1.5-1.6-3.5-2.6-5.7-2.8h-3.4c-2.7,0-5.4.1-7.9-1.1l-.4-.2v-.4c-1.2-4.3-5.1-7.1-9.3-10-.8-.7-1.7-1-2.7-1.1-.6,0-1.2.3-1.7.6-.4.2-.8.4-1.3.6-2.8,1-5.7-.2-8.2-1.2l-.8-.3c-.9-.3-1.8-.7-2.7-.9-.3,0-.5-.1-.8-.2-.6-.2-1.3-.4-1.9-.5-.3,0-.7-.1-1-.2-.6-.1-1.2-.2-1.8-.3h-1.1c-.5,0-1.1,0-1.6-.1-.3.2-.6.3-.9.5-9,4.9-16.2,12.3-24.1,20.9-1.9,2-4,4.4-5,7.1-.2.5-.3,1-.5,1.4-.3,1.1-.7,2.2-1.3,3.2-1.6,2.5-4.4,3.6-7,4.6l-.9.4c-2.3.9-5.1,2.5-5.4,5.1,0,.4,0,.8.2,1.2.6.9,2.2.4,4.2-.3l.5-.2c5.8-1.9,12.1.9,14.6,6.5.1.3.2.6.3.9.4,1.2.8,2.3,1.7,2.6.9.4,2-.1,3.5-1.1,1.6-.9,3.3-2,5.2-1.3,2.1.7,2.6,2.8,3.1,4.6.2,1,.6,2,1.1,2.9.9,1.3,2.7,1.7,4.6,2.1,1,.2,2,.5,3,.8,4,1.5,6.3,5.3,8.4,9.3,1.3,2.4,3,5.5,3,8.7,0,1.7-.4,3.3-.8,4.9-.6,1.7-.8,3.5-.7,5.2,3.7.5,7.4-1.2,9.4-4.4.4-.7.8-1.5,1.1-2.3.2-.5.5-1.1.7-1.6,1-1.9,2.2-3.8,3.6-5.5,7.6-10.2,15.3-20.5,22.9-30.7,1.4-2,3-3.9,4.9-5.5.6-.5,1.3-.9,2-1.4,1.5-1,3.3-2.1,3.5-3.2,0-.1-.2-.3-.3-.4s-.2-.2-.3-.4"/>
            </g>
          </g>
        </g>
      </g>
      <g id="Group_689" class="cls-22">
        <g id="Group_688">
          <g class="cls-36">
            <g id="Group_687">
              <path id="Path_1139" class="cls-24" d="M100.8,212.08c-.6-.8-1.3-1.6-1.9-2.3h0c-.5-.6-1-1.1-1.4-1.5l-.8-.8c-1-1.1-2.3-2-3.6-2.6-1.7-.5-3.5-.6-5.3-.3-.5,0-1,0-1.5.1-13.2.7-24.3-8.3-33.8-16.8-2-1.8-4.1-3.7-6.6-4.3-2.3-.6-4.7-.1-7.2.4-1.6.4-3.3.6-5,.7-4.7.2-8.9-1.8-13.1-3.7-2.4-1.2-4.9-2.2-7.4-2.9-.8-.2-1.6-.4-2.4-.5-.3,0-.6,0-.9-.1-.5,0-1.1-.1-1.6-.2H3.1c-.2,1-.9,2-1.7,2.6-.2.1-.4.2-.6.3-.2,0-.4.2-.6.3-.1.1-.2.2-.1.4.3.9.8,1.7,1.6,2.3,3.3,2.6,6.5,5.4,9.4,8.4,1,.9,1.8,2,2.3,3.2.2.5.3,1.1.3,1.6,0,.4.1.8.2,1.2.3.7.6,1.3,1.1,1.8.3.4.5.8.8,1.2.8,1.3,1.2,3.2.1,4.6-.3.4-.6.7-1,.9-.3.2-.5.4-.7.6v.5c.3.5.9.9,1.5.9.7,0,1.3,0,1.9-.2.8-.2,1.7-.2,2.5-.2,2.4.2,4.1,2,5.7,3.5l.6.6c1.5,1.6,3.4,2.8,5.5,3.5,2,.6,4.1.3,5.8-.9.6-.6,1.2-1.2,1.7-1.9,1.1-1.4,2.3-3,4.3-3.2.9,0,1.8,0,2.6.3,2.1.6,4.3,1.3,5.3,3.4.8,1.7.3,3.6,0,5.3-.5,2-.7,3.2.1,4,.2.2.4.3.6.4.6.4,1.2.9,1.5,1.6.2.6.3,1.2.2,1.9v.9c.2,0,.3.1.5.1,1.9,0,3.9-.2,5.7-.7,1.6-.4,3.3-.7,5-.8,1.5,0,3,.4,4.2,1.2l.5.4v.6c-.3,1-.8,1.8-1.4,2.6-.4.5-.8,1.2-.9,1.8,0,.6,0,1.1.3,1.6,0,.1.2.2.4.3,3.8.6,7.6-.7,10.2-3.5l.3-.2c.7-.6,1.3-1.3,1.9-2.1.5-.7,1.1-1.3,1.7-2,1.9-1.8,4.1-3.3,6.4-4.6l5.7-3.4c2.6-1.5,5.2-3.1,7.8-4.6-.3-.4-.6-.8-.9-1.2-.2-.3-.4-.6-.7-.9"/>
            </g>
          </g>
        </g>
      </g>
      <g id="Group_692" class="cls-22">
        <g id="Group_691">
          <g class="cls-29">
            <g id="Group_690">
              <path id="Path_1140" class="cls-24" d="M194.9,245.48l.4-.4c1-.8,1.7-1.8,2-3.1,0-1.3-.5-2.5-1.2-3.6-.9-1.6-1.9-3.5-1.2-5.5h0c.6-1.2,1.4-2.2,2.5-3,.3-.2.5-.4.8-.6.6-.4,1-1,1.1-1.7,0-.4-.2-.8-.5-1-.9-.9-3-1.1-4.6-.9-6.2.6-12.4,1.2-18.6,1.8l-2.9.3,2.1-2c4.2-4,1.8-11.6,1-13.8-.4-1-.8-2-1.2-2.9-.9-2-1.6-4-2.2-6v.2c-.1,0-.6-2.7-.6-2.7h0v-.4h0c-.2-1.3-.2-2.5,0-3.8v-.5c.3-.7.3-1.5,0-2.3-.5-.9-1.4-.9-3.3-.6-.3,0-.6,0-.9.2-2.2.4-4.8.9-6.4-.9-.7-.8-1.1-1.8-1.3-2.9,0-.3-.1-.6-.2-.9-1-3.2-4.7-4.9-7.8-4.9-3.5,0-6.9,1.4-10.2,2.8-.8.3-1.5.7-2.2,1.3-.5.8-.9,1.8-.9,2.7-.1.8-.3,1.6-.6,2.4-1.1,2.7-3.7,4.1-6.4,5.4-2.7,1.2-5.3,2.5-8,3.7l-4,1.9c-2,.9-3.9,1.8-5.9,2.8-1.4.7-2.9,1.3-4.4,1.6-1,.2-2,.2-3.1.2-.8,0-1.6,0-2.4.1-.4,0-.8.2-1.3.3-.1,0-.2,0-.3.1-.3.1-.7.2-1,.4h-.2c.4.4.7.9,1.1,1.3,0,.1.2.2.3.4.5.7,1,1.3,1.5,2l.4-.2c1.4-1,3-1.6,4.6-1.8h3.5c.8-.2,1.6-.6,2.2-1.2.5-.3,1-.7,1.5-.9,1.1-.6,2.4-.8,3.6-.4.8.2,1.4.7,1.8,1.4.4.9.4,2,.2,2.9l-1.5,8.3c.3,0,.6.2.9.4,1.1.7,1.8,1.8,1.9,3.1,0,1.1,0,2.2-.3,3.2-.1.5-.2,1-.3,1.5-.3,2.8,1.1,5.4,3.4,6.9.3.2.7.4,1.1.6.6.2,1.1.5,1.6.9,2.1,1.4,3.1,3.7,4.1,5.9.2.4.3.8.5,1.1.8,1.6,2.4,4.4,4.8,4.5,1.5,0,3.1-.9,4.7-1.8,2.1-1.3,4.5-2.7,7-1.5,1,.6,1.9,1.4,2.5,2.4.5.8,1.1,1.4,1.9,1.8.6.2,1.2.4,1.8.5,1.5.3,3.3.6,3.8,2.5.1.6,0,1.1,0,1.7v.8c0,1,1.5,1.6,2.8,1.6.7,0,1.3-.2,2-.3.9-.2,1.8-.4,2.7-.4h.5c2.6.2,4.5,1.9,6.4,3.5,1.8,1.5,3.4,2.9,5.4,3,1,0,1.9-.2,2.8-.5.9-.3,1.8-.5,2.8-.6.3-.6.6-1.3.9-1.9,2.2-4.9,4.5-9.9,8.5-13.8l.5-.4v-.3Z"/>
            </g>
          </g>
        </g>
      </g>
      <g id="Group_695" class="cls-22">
        <g id="Group_694">
          <g class="cls-7">
            <g id="Group_693">
              <path id="Path_1141" class="cls-24" d="M230,316.18c.3-.1.5-.2.8-.3.1,0,.2,0,.4-.1.4-.1.8-.2,1.2-.3.2,0,.4,0,.6-.1.7,0,1.4-.2,2.1-.5.6-.4,1.2-.9,1.6-1.5l.4-.5c5.9-5.9,15.5-5.9,21.4,0,.3.3.7.7,1,1.1.2.3.4.6.7.9,1.7,2.3,3,3.9,4.6,3.6.7-.2,1.3-.6,1.8-1s1-.7,1.5-1c.3-.2.6-.3,1-.4h.2c.3,0,.6-.1.9-.2h1.2c.3,0,.6,0,.9.1h.2c.3,0,.5.1.8.2h.3c.3.2.6.3.9.4h.1c.3.2.6.3.9.4h.2c.3.2.6.4.9.5.8.4,1.7.8,2.5,1,.3.1.6.2.8.3.9.2,1.9.4,2.8.5.5,0,1,.1,1.5.2l.2-.2.3-.2.4-.4.3-.3.4-.4s.2-.2.2-.3c.2-.2.4-.5.5-.8.8-1.6,1.3-3.4,1.5-5.3.3-2.3.7-4.6,2.1-6.5.9-1.1,1.9-2.1,3.1-2.9.6-.5,1.2-.9,1.7-1.4,2.8-2.5,4-6.1,5.2-10,.8-3,2.1-5.9,3.7-8.6,2-3,5-5.2,7.8-7.4,3.4-2.6,6.7-5.1,8.3-8.7,1.3-2.9,1.4-6.1,1.5-9.5,0-1.7.1-3.5.3-5.2h-.1l.5-2.4h0v-.4h0v-.2c.2-.9.6-1.8.9-2.6.4-1,.7-2.1,1-3.2.8-3.4,0-6.8-.7-10.5-.3-1.4-.6-2.8-.8-4.2h0c-.1-.9-.2-1.8-.3-2.7v-5.4c0-.4,0-.7.1-1.1,0-.5.1-1.1.2-1.6,0-.4.1-.8.2-1.1.1-.5.2-1,.3-1.5,0-.4.2-.8.3-1.1.1-.5.3-1,.4-1.5.1-.4.3-.8.4-1.1.2-.5.4-.9.5-1.4.2-.4.3-.7.5-1.1,0-.2.2-.4.3-.6l-15.1-.3c-3.8,0-7.5-.3-11.2-.8-.8-.1-1.6-.3-2.4-.4-1.7-.4-3.4-.6-5.1-.7-3.4-.1-6.7.7-10.1,1.6-1.2.3-2.3.6-3.5.9-.9.2-1.8.4-2.8.5-.3,0-.7,0-1,.1-.6,0-1.2.2-1.8.2-.4,0-.8,0-1.2.1-.5,0-1.1.1-1.6.1h-5.7c-.7,0-1.4,0-2.1-.1h-.7c-.7,0-1.4-.1-2-.2h-.5c-.8-.1-1.7-.3-2.5-.4h-.5c-.7-.1-1.4-.3-2-.4l-.7-.2c-.7-.2-1.4-.4-2.1-.6-.1,0-.2,0-.4-.1-.8-.2-1.6-.5-2.4-.8-.2,0-.4-.1-.5-.2-.6-.2-1.2-.5-1.8-.7-.2,0-.4-.2-.7-.3-.7-.3-1.4-.6-2.1-.9,0,0-.1,0-.2-.1-.8-.3-1.5-.7-2.2-1.1-.2-.1-.4-.2-.6-.3-.6-.3-1.1-.6-1.6-.9-.2-.1-.4-.2-.6-.4-.7-.4-1.4-.9-2.1-1.3-6-4-9.2-8.5-9.4-13.2,0-1,0-2,.1-2.9.2-1.3.2-2.7,0-4,0-.3-.2-.6-.3-.9,0,0,0-.2-.1-.3,0-.2-.2-.4-.3-.6,0,0-.1-.2-.2-.3-.1-.2-.3-.4-.5-.6l-.2-.2h0c-.8,1.1-1.6,2.1-2.3,3.2-1,1.2-1.9,2.6-2.5,4.2-.3,1-.5,2.1-.6,3.2,0,1.1-.3,2.1-.5,3.1-.7,2.5-2.9,5-5.6,4.6-.8-.2-1.6-.5-2.4-1-.2-.1-.5-.3-.8-.4-2.7-1.3-5.7-.3-9,.6-1.9.7-3.8,1.1-5.8,1.4-2.5.1-4.9-.1-7.3-.7-3.4-.6-6.6-1.2-9.5.2-.3.1-.5.3-.8.5,0,0-.2.1-.3.2-.2.1-.3.2-.5.4-.1,0-.2.2-.3.3s-.3.2-.4.4l-.3.3c-.1.1-.2.2-.3.4,0,.1-.2.2-.3.3s-.2.3-.3.4c0,.1-.2.2-.3.3s-.2.3-.3.4c0,.1-.2.2-.2.4,0,.1-.2.3-.3.4,0,.1-.2.2-.2.4l-.1.2c0,.3.1.7.2,1,0,.3.1.5.2.8.1.4.3.8.4,1.3,0,.2.1.5.2.7.2.5.4,1,.5,1.4,0,.2.1.4.2.5.3.6.5,1.3.8,1.9.4,1,.8,2,1.2,3,1.1,2.8,3,9.2.1,14,5.4-.5,10.8-1,16.3-1.6h3c1.2.1,2.2.6,3.1,1.3.7.6,1.1,1.6,1.1,2.5,0,1.8-1.4,2.9-2.6,3.9-.5.4-1,.8-1.4,1.3-.2.2-.4.5-.5.8v.3c-.2,1.1.4,2.2,1.1,3.5.9,1.4,1.4,3,1.4,4.7-.2,2-1.7,3.5-3,4.7l-.4.4c-3.6,3.6-5.8,8.3-8,13.2-.2.5-.4.9-.6,1.4.3.1.6.3.8.5.4.4.6,1,.8,1.5l3.5,12.2c.2.6.7,2.3-.5,3.3-.4.3-.8.5-1.2.6-.1,0-.2,0-.4.1-.9.4-.8,2-.4,3,.2.4.4.9.6,1.3,1.4,1.9,1.6,4.4.6,6.6-1,2.7-2,5.4-2.9,8h1c2.9-1.9,5.9-3.6,9.3-3,1.3.3,2.5.8,3.6,1.4.9.6,2,1,3,1.2,1.8.3,3.8-.3,5.8-1,2.7-.9,5.4-1.8,8.1-.5l.4.2v.4c.5,1.8-.8,3.3-1.7,4.4l-.2.2c-.7.8-1.2,2-.7,2.5.3.2.7.4,1,.5.8.2,1.5.6,2,1.2.5.7.7,1.6.6,2.4v.4c0,1.9,1,3.7,2.6,4.8.6.4,1.3.7,2,1,.6.3,1.3.5,1.9.9.5.3.9.5,1.3.9.1,0,.2-.1.3-.2.1,0,.3-.1.4-.2.2-.1.5-.2.7-.3.1,0,.3-.1.4-.2"/>
            </g>
          </g>
        </g>
      </g>
      <g id="Group_698" class="cls-22">
        <g id="Group_697">
          <g class="cls-25">
            <g id="Group_696">
              <path id="Path_1142" class="cls-24" d="M208.5,67.18c-.3,1.6-.5,3.3-.6,4.9v2.2c0,.4,0,.7.1,1.1.6,3.3,2.7,6.9,6.3,7.7.7.1,1.4.2,2.1.3,3,0,5.9,1.5,7.5,4l.5.6c4,4.5,9.4,7.5,15.3,8.6.5,0,1,.2,1.5.2,1.9.2,3.7.7,5.4,1.4.3.1.6.3.9.5,1.8,1.1,2.9,2.9,3.1,5,0,.3,0,.7-.1,1-.4,1.7-1.6,3.2-3.2,3.9-1,.5-2,.9-3,1.2-1.4.4-2.7,1-3.9,1.8-2.9,2.1-3.2,6-3.6,10.1-.1,1.9-.4,3.7-.7,5.5-1.1,4.6-3.9,8.3-6.7,12-.5.7-1.1,1.4-1.6,2.1-4.4,6-7.9,12.6-10.5,19.6-.6,1.4-.9,2.8-.8,4.3.3,2.9,2.9,4.8,5.6,6.8.9.7,1.8,1.3,2.6,2.1h0l.8.7h0l.6.6h0c.8.8,1.4,1.8,1.9,2.8.2.4.3.8.4,1.2.3,1.5.4,3.1.1,4.7,0,.9-.1,1.8-.1,2.7.2,4.1,3.1,8,8.5,11.7,12.1,7.9,26.8,10.7,40.9,7.8,1.2-.3,2.3-.5,3.5-.8.4-.1.9-.2,1.3-.3,3.1-.9,6.2-1.3,9.4-1.3,1.8.1,3.6.4,5.4.8.8.1,1.6.3,2.4.4,3.6.5,7.3.8,10.9.7l16,.3c0-.2.2-.3.3-.5,0-.1.1-.2.2-.3.2-.4.5-.8.7-1.2.2-.3.4-.6.6-.9,1.2-1.6,2.1-3.4,2.4-5.4.1-.6.3-1.3.5-1.9,1.1-3.5,3.7-6.2,6.2-8.9,2.8-2.9,5.4-5.7,5.9-9.4,0-.4,0-.8.1-1.3,0-1.3,0-2.6-.2-3.9-.3-2.8-.6-5.7.8-8.3,1-1.5,2.2-2.9,3.7-3.9,1.2-.9,2.2-1.9,3.1-3.1,1.1-1.8,1.2-4,1.3-6.3,0-1.9.3-3.8.8-5.6.3-.8.7-1.6,1.2-2.4h-.2l1.5-1.6h0l.3-.3h0c.2-.2.3-.3.5-.5.8-.8,1.7-1.5,2.7-2.2,0,0,.1,0,.2-.1.6-.5,1.3-.9,2-1.3.7-.4,1.4-.9,2.1-1.3,4.5-2.7,8.7-5.2,9.2-9.7v-2.5c-.1-1.3,0-2.6.3-3.8.6-2.3,2.3-3.9,3.9-5.4.3-.3.7-.7,1-1,.4-.4.8-.9,1.2-1.3.1-.1.2-.3.3-.4.2-.3.5-.6.7-.9.1-.2.2-.4.4-.6.2-.3.4-.6.6-.9.1-.2.2-.4.4-.6.2-.3.3-.6.5-.9.1-.2.2-.4.3-.6.1-.3.3-.6.4-.9.1-.2.2-.5.3-.7.1-.3.3-.6.4-.9,0-.2.2-.5.3-.7.1-.3.2-.6.3-.9,0-.2.2-.5.2-.7.1-.3.2-.6.3-.9,0-.2.1-.5.2-.7,0-.3.2-.6.2-.9,0-.2.1-.5.2-.7,0-.3.1-.6.2-.9,0-.2.1-.5.2-.7,0-.3.1-.6.2-.9,0-.2,0-.5.1-.7,0-.3.1-.6.2-.9,0-.2,0-.5.1-.7,0-.3,0-.6.1-.9v-.7c0-.3,0-.6.1-.9v-2.6c-1.2-.3-2.5-.4-3.7-.5h-2c-1.4,0-2.9,0-4.3-.2-2.1-.5-4-1.3-5.9-2.4-1.7-1-3.6-1.8-5.5-2.2-.8-.2-1.7-.1-2.5.2-.8.5-1.4,1.1-1.9,1.9l-11.7,15.7c-1.1,1.7-2.6,3.2-4.4,4.3l-1.2.6-.2-1.4c-.2-2,0-3.9.9-5.7-3.2-.8-6.6-.7-9.7.3-.3,0-.6.2-.9.3-2.5.8-5.7,1.9-8,0-1.7-1.4-2-3.7-2.2-5.7s-.4-3.7-1.7-4.4c-.9-.5-2.1-.4-3.7.2-2.9,1.1-5.4,3-7.3,5.4-.9,1.1-2.7,3.4-4.9,2.5-.7-.3-1.3-.9-1.6-1.7-.5-1.5.2-3.5,1-4.8l.9-1.5c.2-.4.5-.8.7-1.2h-2.6c-.2,0-.5-.1-.7-.2-.2,0-.4,0-.6-.2-.2,0-.4-.2-.6-.2s-.3-.1-.5-.2c-.2,0-.4-.2-.6-.3-.1,0-.3-.2-.4-.3-.2-.1-.3-.3-.5-.4-.1,0-.2-.2-.3-.3-.2-.2-.3-.3-.5-.5,0,0-.2-.2-.2-.3-.2-.3-.4-.6-.6-.9-.2-.5-.4-1-.6-1.5-.1-.4-.3-.8-.5-1.2-.8-1.7-2.5-2.8-4.3-3.9-2-1.3-4.1-2.6-5.1-4.9-.6-1.6-.8-3.4-.7-5.1.1-1.4,0-2.7-.4-4.1-.8-1.6-1.9-3-3.4-4-1.5-1.2-3-2.3-4.6-3.4-2.7-1.8-5.2-3.8-7.6-6-.3-.3-.6-.6-1-1-.1,0-.2-.2-.3-.3-.2-.2-.5-.5-.7-.8-.1-.1-.2-.3-.4-.4-.2-.3-.4-.5-.6-.8-.1-.2-.3-.4-.4-.5-.2-.3-.4-.5-.6-.8-.1-.2-.2-.4-.4-.6-.2-.3-.3-.6-.5-.9-.1-.2-.2-.4-.3-.7-.1-.3-.3-.6-.4-.9-.1-.2-.2-.5-.3-.7-.1-.3-.2-.6-.3-.9,0-.3-.2-.5-.2-.8,0-.2-.1-.4-.2-.6-2.5-.6-5.1-.9-7.6-1.1-2.3-.3-4.7,0-7,.6,1.7,1.5,2.7,3.5,3.1,5.6v1.1c.1,0-.9,0-.9,0-6.6.2-13.1.8-19.6,1.9-6.2,1.2-12.3,3.1-18,5.8-1.1.5-2.4.9-3.6.9l-2.1,9.5c-.2,1-.5,2-.7,3.1"/>
            </g>
          </g>
        </g>
      </g>
      <g id="Group_701" class="cls-22">
        <g id="Group_700">
          <g class="cls-2">
            <g id="Group_699">
              <path id="Path_1143" class="cls-24" d="M147.7,38.58h.4c.2,0,.4,0,.6.1h.4c.2,0,.4.1.6.2.1,0,.3,0,.4.1.2,0,.4.1.5.2.1,0,.3.1.4.2.2,0,.3.2.5.3.1,0,.2.1.3.2.2,0,.3.2.5.3,0,0,.2.1.3.2.2.1.3.3.5.4,0,0,.2.1.2.2.2.2.4.5.6.7.2.3.4.6.6.9.3.6.7,1.1,1.2,1.5.4.2.8.4,1.3.5.6.2,1.2.4,1.8.8,2.3,1.6,2.2,4.9,1,7.3-.3.6-.6,1.2-1,1.8-.8,1.2-1.3,2.5-1.6,3.9-.1,1.7.7,3.3,1.6,5,.9,1.6,1.5,3.3,1.8,5.1,0,1.6-.2,3.2-.6,4.7-.5,2.1-1,4,0,5.4.2.3.5.6.7.9.6.6,1.1,1.3,1.4,2.1.2.9.2,1.8,0,2.7,0,.4-.1.7-.1,1.1,0,1.8,1.1,3.5,2.4,5.2,1.2,1.6,2.8,3.3,4.4,2.8,1.6-.6,1.7-3.2,1.7-5.7,0-2.7.5-6.3,3.1-8.7,1.5-1.3,3.5-1.9,5.4-1.7,1.5.2,2.9,1,3.7,2.3.5.8.8,1.7,1,2.6.2.7.4,1.5.8,2.1.1.2.3.3.5.4.5.3,1,.3,1.5.1.9-.3,1.6-1,2-2,.6-1.7,0-3.7-.4-5.6-.6-2.2-1.1-4.7,0-7l.2-.4,14.5-3.5c.4,0,.8-.2,1.2-.3h.4c.3,0,.5-.1.8-.2h1.7c.2-.8.3-1.5.5-2.3l2-9.1c-2.3-.3-4.5-1.3-6.2-2.9-2.7-2.7-3.8-6.5-2.9-10.2-1.4,0-2.7-.7-3.7-1.6-2.3-2.3-3.4-5.6-2.8-8.9.7-2.7,1.9-5.3,3.4-7.6,1-1.6,1.9-3.3,2.6-5,.5-1.3.5-2.7-.1-3.9-.2-.3-.5-.5-.9-.5-.9,0-1.8-.5-2.4-1.3-.9-1.3-1.3-2.9-1-4.5.1-.6.3-1.3.5-1.9.4-1.1.6-2.3.4-3.4-.2-.9-.9-1.7-1.8-2.1-1.5-.7-3.3-.8-4.9-.1-2.1.9-3.8,2.7-5.5,4.5-.5.5-1,1.1-1.5,1.6-6.3,6.2-14.8,9.8-23.7,10,.2,1,.1,2-.3,2.9-.6,1.7-2.2,2.9-4,3.1-1.6,0-3.1-.7-4.1-1.9-.9-1.1-1.4-2.4-1.4-3.8-6.4-.8-12.8-1.9-19.1-3.3.5,3.2,2.7,5.9,5.7,7.2l.5.2,2.1,10.7c.4,2.1.8,3.9,2,5.1.7.6,1.6,1,2.5.9.5,0,1-.3,1.3-.7l.3-.5h.6c1.1.2,2.1,1,2.4,2.1h.2"/>
            </g>
          </g>
        </g>
      </g>
      <g id="Group_704" class="cls-22">
        <g id="Group_703">
          <g class="cls-3">
            <g id="Group_702">
              <path id="Path_1144" class="cls-24" d="M448.5,118.48c-.4.4-.8.8-1.2,1.2-1.2,1-2.4,2-3.6,3-3.1,2.4-6.1,4.6-6.5,8,0,1.4,0,2.7.4,4.1.3,1.3.5,2.7.5,4-.1,3.2-1.8,5.9-3.5,8.6-.3.5-.6,1-.9,1.5-1.6,2.6-3.1,6.2-1.6,9,.6,1,1.3,1.8,2.1,2.6,1.5,1.6,3.2,3.5,2.8,6-.2,1.2-.9,2.2-1.9,2.9-2.8,1.8-7.4.7-8.7.3-2.5-.8-5.2-1.1-7.8-.9-2.5.3-4.6,1.8-5.6,4-.2.7-.4,1.3-.6,2-.6,2.2-1.3,5-4,5.1-.8,0-1.7-.2-2.4-.6-.2,0-.3-.2-.5-.2-3.9-1.6-8.6,1-10.9,4.5-2.5,3.8-3,8.7-3.5,13.1-.5,4.7-.6,9.3,2.3,12,.5.4,1,.8,1.6,1.2,1.2.7,2.2,1.7,3,2.9.9,1.7.7,3.6.6,5.3,0,.4,0,.9-.1,1.3v.8h.1c0,.2.2.3.3.4,0,0,.1.1.2.2.1,0,.2.2.3.3,0,0,.2.1.2.2.1,0,.2.2.3.2,0,0,.2.1.2.2.1,0,.2.1.4.2,0,0,.2.1.3.1s.2.1.4.2c.1,0,.2,0,.3.1s.2.1.4.1.2,0,.3.1.2,0,.3.1.3,0,.4.1h3.2c.2,0,.4,0,.6-.1h.1c.2,0,.4-.1.6-.2h0c.2,0,.4-.2.6-.3h0c.2-.1.4-.2.6-.4.5-.4,1.1-.8,1.6-1.3.8-.7,1.7-1.4,2.6-1.9,1.3-.6,2.7-1,4.1-1.1.7-.1,1.4-.2,2-.4,1.6-.4,3.3-1.5,3.3-3,0-1-.8-2-1.6-3.1-1.1-1.4-2.4-3-1.9-4.9.2-1.1,1-2,2-2.4,2-.8,4.3-.6,6.2.3.4.2.7.4,1.1.5,1.7.9,3.4,1.8,4.9,1.5.2,0,.4-.1.6-.2.6-.3,1.1-.7,1.6-1.2.4-.4.8-.7,1.2-1,1.9-1.3,4.1-1.6,6.4-1.8,2.4-.3,4.7-.5,5.9-2.2.4-.7.8-1.4,1.1-2.1.7-1.5,1.4-3.3,3.3-3.8.3,0,.6-.1.9-.1h1.2c.2,0,.4.2.6.3,0,0,.2,0,.2.1h0l1.1-1.1c1.8-1.8,3.7-3.6,5.4-5.6.6-.5,1-1.3,1-2.1,0-.4-.3-.8-.5-1.2-.3-.4-.5-.9-.6-1.4-.6-2.3.9-4,2.3-5.5.2-.2.5-.5.7-.7h0c.5-.6.9-1.2,1.2-1.9.5-1.4.1-2.9-.5-4.5,0-.2-.2-.5-.2-.7-.3-.9-.6-1.8-.9-2.8-.4-2.6-.3-5.2.3-7.7.4-2.8.9-5.4,0-7.7-.4-1.1-.9-2.1-1.5-3.2-1.4-2.5-3-5.3-1.4-8.1.3-.5.7-1,1.1-1.4s.7-.8.9-1.3c.8-1.8-.9-3.5-3.2-5.8-.3-.3-.6-.6-.9-.9-.5-.5-.9-.9-1.2-1.4v-.1c-.4-.5-.7-1-1-1.5,0,0,0-.1-.1-.2-.3-.5-.5-1.1-.7-1.6,0,0,0-.2-.1-.3-.2-.6-.4-1.1-.5-1.7v-.3c-.1-.6-.2-1.2-.3-1.8v-2.4c0-.6.1-1.3.2-1.9v-.2c.1-.7.3-1.3.5-2h0c-1.8-.3-3.6-.5-5.4-.7-.1.2-.2.4-.3.6-.1.2-.2.4-.4.6-.2.3-.4.6-.6.9-.1.2-.2.4-.4.5-.2.3-.5.6-.7.9-.1.1-.2.3-.3.4"/>
            </g>
          </g>
        </g>
      </g>
      <g id="Group_707" class="cls-22">
        <g id="Group_706">
          <g class="cls-27">
            <g id="Group_705">
              <path id="Path_1145" class="cls-24" d="M457.9,121.98c0,.3,0,.6.1.8,0,.4.2.7.3,1,0,.3.1.5.2.8.1.4.3.7.4,1,.1.2.2.5.3.7.2.4.4.7.6,1,.1.2.2.4.3.5.3.5.7.9,1.2,1.4.3.3.6.5.9.8,1.8,1.8,4.1,3.8,4.1,6.3,0,.6-.1,1.2-.4,1.7-.3.7-.7,1.3-1.3,1.8-.3.3-.6.7-.8,1.1-1,1.8.1,3.8,1.4,6.2.7,1.1,1.2,2.3,1.7,3.5,1,2.9.5,5.8,0,8.7-.5,2.3-.6,4.7-.3,7,.2.9.5,1.7.8,2.5.8,2.1,1.6,4.3.7,6.6-.1.3-.3.6-.5.9v.1h.2c.3,0,.5,0,.8.1.4,0,.8.2,1.3.2.3,0,.5.1.8.2.4.1.8.2,1.2.3.3,0,.5.2.8.3.4.1.7.3,1.1.4.3.1.5.2.8.3.4.2.7.3,1.1.5.2.1.5.2.7.4.4.2.7.4,1,.6.2.1.4.3.6.4.4.2.7.5,1.1.8.2.1.3.2.5.4.5.4,1,.8,1.5,1.3l.3.3c.6.7,1.4,1.3,2.2,1.7.2,0,.4.1.6.1h.9c.2,0,.4,0,.5-.1h.2c-.1-.5-.2-1.1-.4-1.6-.1-.5-.2-.9-.3-1.4-1.3-5.6-.7-9.5,1.8-12.1.6-.6,1.3-1.2,2-1.6.7-.4,1.3-1,1.9-1.6.3-.4.6-.8.8-1.2.5-1.3.8-2.6.8-4v-1.5c0-2.3.3-4.6,1.2-6.7,1.5-3.1,4.5-4.7,7.4-6.2.6-.3,1.3-.7,1.9-1s1.1-.7,1.7-1.1c.2-.1.4-.3.6-.4.4-.3.8-.5,1.1-.8.2-.2.4-.3.7-.5.4-.3.7-.6,1.1-.9.2-.2.5-.4.7-.6.2-.1.3-.3.5-.5-.5-.3-1-.6-1.5-.9-3.6-2.2-7.7-4.8-10.2-8.7-.7-1.1-1.3-2.3-1.8-3.5-.5-1-.9-1.9-1.4-2.8-3.6-6.1-11-9.9-22.6-11.4-2-.3-4.2-.5-5.9.3-.5.2-.9.5-1.3.7-.8.5-1.7.9-2.6,1.2-1.1.2-2.2.2-3.2,0,0,.2-.1.4-.2.6,0,.3-.2.6-.2.9s-.1.7-.2,1c0,.3,0,.6-.1.9v2c0,.4,0,.7.1,1.1"/>
            </g>
          </g>
        </g>
      </g>
      <g id="Group_713" class="cls-22">
        <g id="Group_712">
          <g class="cls-10">
            <g id="Group_711">
              <path id="Path_1147" class="cls-24" d="M382.8,230.18c0-.6.1-1.2.3-1.8v-.1c.1-.6.3-1.2.5-1.8v-.2c.2-.6.4-1.1.7-1.7,0,0,0-.1.1-.2.3-.5.6-1,.9-1.5,0,0,0-.1.1-.2.3-.5.7-1,1.1-1.4,0,0,.1-.1.2-.2.4-.4.8-.9,1.3-1.3l.2-.2c.5-.4.9-.8,1.4-1.1h0v-.4c0-.2-.1-.4-.2-.6v-.2c0-.2-.2-.4-.3-.7v-.2c-.1-.2-.2-.4-.4-.6h0c-.1-.3-.3-.5-.5-.7v-.1c-.2-.2-.3-.3-.5-.4h0c-.2-.1-.4-.2-.7-.3h-.8c-.3,0-.6,0-.9.1-.7.2-1.5.2-2.2,0-2.1-.5-2.9-2.8-2.8-4.8,0-.6.1-1.2.2-1.9.5-1.8.2-3.7-.9-5.2-.5-.9-.9-1.9-1.2-2.9,0-.3-.1-.6-.1-1-.1-2.2.8-4.3,1.7-6.3.4-.8.7-1.5,1-2.3.6-1.7.5-3.6-.3-5.2-.3-.6-1-1-1.7-1.1-.8,0-1.5.1-2.2.4-1.4.4-3.2.9-4.6-.4-1.7-1.6-.7-3.8,0-5.6.7-1.7,1.1-2.8.5-3.4-.5-.5-1.5-.5-2.5-.4-1.5,0-3.3,0-4.2-1.6-.7-1.3,0-2.7.3-3.6,2.3-5.6,3.8-11.5,4.3-17.5-2.4,0-4.2-2.3-5.7-4.2-.3-.4-.7-.9-1-1.2-.2-.2-.4-.5-.6-.7,0,0-.2-.1-.2-.2-.2-.1-.3-.3-.5-.4-.1,0-.2-.1-.3-.2-.2,0-.3-.2-.5-.3-.1,0-.2-.1-.4-.2-.2,0-.3-.2-.5-.2-.1,0-.3,0-.4-.2-.2,0-.3-.1-.5-.2-.1,0-.3,0-.4-.1-.2,0-.4,0-.5-.1h-1.8s-.1.2-.2.2c0,.1-.2.2-.2.3-.1.2-.2.3-.3.5,0,.1-.1.2-.2.3-.1.2-.2.3-.3.5,0,0-.1.2-.1.3-.1.3-.2.5-.3.8-.5,1.7-.7,3.4-.7,5.1-.1,2.5-.3,5-1.6,7.2-1,1.4-2.2,2.6-3.5,3.6-1.3.9-2.4,2-3.2,3.3-1.1,2.1-.9,4.5-.6,7.1.3,1.9.3,3.8.1,5.7-.6,4.2-3.6,7.4-6.4,10.4-2.4,2.6-4.7,5.1-5.7,8.1-.2.6-.3,1.1-.4,1.7-.2.8-.4,1.6-.7,2.4-.5,1.3-1.2,2.5-2,3.6-.2.3-.4.6-.6.9-.5.8-1,1.6-1.4,2.3h0c-.4.8-.8,1.6-1.1,2.4-2.1,4.9-3,10.2-2.7,15.5,0,.9.1,1.7.3,2.6.2,1.3.5,2.7.8,4.1.8,3.7,1.5,7.5.7,11.3-.3,1.2-.6,2.3-1.1,3.4,0,.1,0,.2-.1.3.1,0,.3-.1.4-.2.5-.3,1-.6,1.6-.9.2-.1.4-.2.7-.3.7-.4,1.5-.7,2.2-1l.6-.3.5.5c1.1,1.3,1.9,2.8,2.3,4.5.7,2,1.3,3.7,2.8,4.3,1.1.3,2.3.4,3.4.1l10.2-1.4c.4,0,.9-.1,1.3-.2h3.6c.2,0,.4.1.5.2h.3c.3,0,.6.2.8.4,1.2.7,2.3,1.7,3.2,2.9,1,1.2,2,2.3,3.3,2.6,1.6.3,3.1-.8,4.7-2,.7-.6,1.5-1.1,2.3-1.5.4-.2.9-.4,1.4-.6.2,0,.3-.1.5-.2.3,0,.6-.2.9-.3.2,0,.4,0,.6-.1.3,0,.6,0,.8-.1h5.2c.3,0,.6,0,.9.1.2,0,.4,0,.6.1h.2c0-.2,0-.4.1-.7,0-.2,0-.4.1-.5.1-.6.3-1.3.5-1.9.3-.9.6-1.7.9-2.6.9-2.1,1.5-4.4,1.7-6.7,0-1.7-.3-3.5-.7-5.2-.2-1-.4-2.1-.6-3.2,0-.4-.1-.9-.1-1.3v-1.9h0"/>
            </g>
          </g>
        </g>
      </g>
      <g id="Group_716" class="cls-22">
        <g id="Group_715">
          <g class="cls-11">
            <g id="Group_714">
              <path id="Path_1148" class="cls-24" d="M386.4,102.08c0,.3-.2.6-.3.9,0,.3-.2.5-.3.8-.1.3-.2.6-.3.9-.1.3-.2.5-.3.8-.1.3-.3.6-.4.9s-.2.5-.3.7c-.1.3-.3.6-.4.9-.1.2-.2.5-.4.7-.2.3-.3.6-.5.9-.1.2-.3.5-.4.7-.2.3-.4.6-.6.9-.1.2-.3.4-.4.6-.2.3-.5.6-.7.9-.1.2-.3.3-.4.5-.4.5-.8.9-1.2,1.4-.3.4-.7.7-1.1,1.1-1.5,1.4-2.9,2.8-3.3,4.5-.2,1.1-.3,2.1-.2,3.2v2.8c-.7,5.5-5.5,8.4-10.2,11.1-.4.3-.8.5-1.3.8l-.4.2c-.5.3-.9.6-1.4.9h0c-.4.3-.8.6-1.2.9l-.3.2c-.4.3-.8.6-1.2.9h.1c.5.1,1.1.2,1.6.4.1,0,.2,0,.3.1.5.2.9.4,1.4.6h.2c.5.3.9.6,1.3.9.1,0,.2.2.3.2.4.3.8.7,1.2,1.1.4.4.7.9,1.1,1.3,1.8,2.3,3.3,3.9,4.9,3.3l1.4-.5v1.5c-.5,6.7-2.1,13.2-4.6,19.3-.3.6-.6,1.5-.4,2,.3.5,1,.5,2.4.5s2.9,0,4,1c1.6,1.6.7,3.8-.1,5.6-.7,1.7-1.1,2.8-.5,3.4.5.5,1.4.3,2.7,0,.9-.3,1.9-.5,2.9-.4,1.3.1,2.5.9,3.2,2,1.2,2.1,1.3,4.7.5,7-.3.8-.7,1.6-1,2.4-1,2.1-1.8,4-1.4,6,.2.8.6,1.6,1,2.4,1.2,1.9,1.6,4.2,1,6.4,0,.5-.2,1.1-.2,1.6,0,1.2.4,2.5,1.3,2.7h1.4c.4,0,.8-.1,1.2-.2h1.1c.3,0,.6.2.9.3,0,0,.2,0,.2.1.2.1.4.2.6.4,0,0,.2.1.3.2.2.1.4.3.5.5,0,0,.2.2.3.3.2.2.3.4.5.6,0,.1.2.2.2.4.1.2.3.5.4.7,0,.1.1.3.2.4.1.3.2.6.3.8,0,.1.1.3.2.4v.1h0c.5-.3,1.1-.5,1.6-.7.1,0,.3,0,.4-.1.6-.2,1.1-.3,1.7-.4l1-.2v.3-.5h0c0-.4,0-.7-.1-1v-.2c0-.3-.2-.6-.3-.8-.6-.9-1.4-1.7-2.4-2.2-.6-.4-1.2-.9-1.8-1.4-3.5-3.3-3.5-8.5-2.9-13.7.5-4.5,1.1-9.7,3.8-13.9,2.6-4.1,8.2-7.3,13.3-5.2.2,0,.4.2.6.3.5.3,1,.4,1.5.5,1.2,0,1.6-1.4,2.1-3.6.2-.8.4-1.5.7-2.3,1.3-2.9,4-4.9,7.2-5.3,2.9-.3,5.8,0,8.6.9,2.2.6,5.5,1,7.1-.1.6-.3.9-.9,1-1.5.3-1.5-.9-2.8-2.3-4.3-.9-.9-1.7-1.9-2.4-3.1-1.5-2.9-1-6.7,1.7-11,.3-.5.6-1,.9-1.5,1.5-2.4,3.1-4.9,3.2-7.6v-.9c0-.9-.2-1.8-.4-2.7-.3-1.1-.4-2.3-.5-3.5v-1.2c.5-4.3,4-6.9,7.3-9.4,1.2-.9,2.4-1.8,3.5-2.8.4-.3.7-.7,1-1.1.1-.1.2-.2.3-.3.2-.3.4-.5.6-.8.1-.1.2-.3.3-.4.2-.3.4-.6.6-.9,0-.1.1-.2.2-.3v-.1c-3.4-.2-6.8-1-9.9-2.4-.9-.5-1.6-1.4-2-2.3-.1-.3-.3-.6-.5-.9-.7-.8-1.5-1.4-2.5-1.7-4.6-2-9.8-1.8-14.3.5-2.7,1.6-4.6,4.2-5.3,7.2v.4c-.3,1-.7,2-1.4,2.8-.7.7-1.6,1-2.5.9-.7,0-1.3-.5-1.7-1.1v-.2c-.1,0-.1-.3-.1-.3,0-3.8,1-7.5,2.6-10.9.3-.5.5-1.1.6-1.7,0-.5-.2-1-.5-1.4-2.1-3.4-5.6-5.7-9.5-6.3,0,1.2,0,2.3-.5,3.4l-.5,1.4-1.1-1.1c-1.8-1.8-2.9-4-3.3-6.5v-.4c0-.5-.2-1-.4-1.5-.5-.5-1.1-.8-1.7-1-1.9-.7-3.8-1.3-5.7-1.8v2.5c0,.3,0,.6-.1,1v.7c0,.3,0,.6-.1,1,0,.2,0,.5-.1.7,0,.3-.1.6-.2,1,0,.2,0,.5-.1.7,0,.3-.1.6-.2.9,0,.3-.1.5-.2.8,0,.3-.1.6-.2.9,0,.3-.1.5-.2.8,0,.3-.2.6-.3.9,0,.3-.1.5-.2.8"/>
            </g>
          </g>
        </g>
      </g>
      <g id="Group_719" class="cls-22">
        <g id="Group_718">
          <g class="cls-13">
            <g id="Group_717">
              <path id="Path_1149" class="cls-24" d="M535.3,148.88c-2.4-1.2-5.1-1.4-7.9-1.6-1.5-.1-3-.2-4.5-.5-4.3-.9-8.3-2.6-12-4.9-.3.2-.5.5-.8.7s-.5.5-.8.7c-.4.3-.8.6-1.1.9-.2.2-.5.4-.7.6-.4.3-.8.6-1.3.9-.2.1-.4.3-.6.4-.6.4-1.2.8-1.8,1.2s-1.3.7-1.9,1c-2.7,1.5-5.3,2.9-6.5,5.3-.7,1.9-1.1,3.9-1,5.9v2.4c0,.3,0,.7-.1,1v.2c0,.3,0,.5-.1.8v.2h.2c.8-.2,1.5-.4,2.3-.5.5-.1,1-.2,1.5-.3h2.9c.4,0,.7.2,1.1.3,0,0,.2,0,.3.1.2.1.5.2.7.4,0,0,.2.1.2.2.3.2.5.4.8.7.9,1.2,1.5,2.6,1.6,4.1,0,.4.1.7.2,1.1.3,1.3,1.2,2.7,2.2,2.6.8,0,1.4-.7,2.1-1.5.4-.5.8-.9,1.3-1.3,2.2-1.8,4.9-1.6,7.6-1,.5,0,.9.2,1.4.3,1.1.2,2.1.4,3.2.6h1c.5,0,1.1,0,1.5-.4.3-.3.5-.6.6-1,.1-.3.3-.6.4-.9,1.4-2.3,4.5-2.9,6.9-2.2,1.7.6,3.3,1.4,4.8,2.5.4.3.8.5,1.1.7.7.5,1.5.9,2.3,1.3.2,0,.3.2.5.2.8.4,1.5.7,2.3,1h.1c-.2-2.3-.6-4.6-1.2-6.9-1.5-5.9-3.5-12.5-8.8-15.1"/>
            </g>
          </g>
        </g>
      </g>
      <g id="Group_722" class="cls-22">
        <g id="Group_721">
          <g class="cls-31">
            <g id="Group_720">
              <path id="Path_1150" class="cls-24" d="M337.7,433.98c-.9.5-1.6,1.4-1.9,2.4-.2.6,0,1.2.2,1.7l2.7,4-4-2.6c-6-3.9-12.3-7.5-18.5-5.8-1.9.6-3.8,1.5-5.5,2.6-2,1.3-4.1,2.2-6.4,2.9-1,.2-2.1.4-3.1.4-3.1-.1-6.2-.7-9.2-1.7-.5-.1-.9-.3-1.4-.4-.2,0-.4-.1-.6-.1-.3,0-.5-.2-.8-.2-.2,0-.5-.1-.7-.2s-.4-.1-.7-.2c-.2,0-.5-.1-.7-.1s-.4,0-.6-.1c-.2,0-.5,0-.7-.1h-4.4c.6,3.2.9,7.3-1.7,10.5-.5.6-1.1,1.1-1.7,1.6.9.1,1.8.2,2.7.4.3,0,.5.1.8.2.7.1,1.3.3,2,.5.3,0,.5.1.8.2.9.3,1.7.6,2.6.9l.8.3c2.3,1,4.7,1.9,6.8,1.2.4-.1.7-.3,1-.5.7-.4,1.6-.7,2.4-.8,1.5,0,2.9.5,4,1.5,4.4,2.9,8.5,6,9.9,10.7,2,.8,4.2.8,6.6.7h3.6c.7,0,1.4.2,2.1.4,2,.5,3.7,1.6,5,3.2.7.9,1.1,2,1.2,3.1v1.1c-.4,1.5-1.1,2.9-2,4.1-1.2,1.8-1.9,3-1.3,4.1.3.4.8.8,1.2,1.1l.3.2c.3.2.7.5,1,.8.1,0,.2.2.3.3.2.2.4.3.5.5.6-2.1,1.9-3.9,3.7-5.1.8-.6,1.6-1,2.4-1.5,1.4-.7,2.7-1.6,3.8-2.7,1.6-1.7,2.4-4,3.2-6.2,3.2-9.1,5.8-17.8,2.4-25.6l-.2-.5c-.7-1.2-1-2.6-.9-4,.2-.9.6-1.8,1.2-2.5.2-.3.4-.6.6-.8l-2.8-.2c-2-.1-4.2-.3-6,.7"/>
            </g>
          </g>
        </g>
      </g>
      <g id="Group_725" class="cls-22">
        <g id="Group_724">
          <g class="cls-37">
            <g id="Group_723">
              <path id="Path_1151" class="cls-24" d="M501.6,244.68c-.5-1.1-1.2-2.2-2.1-3.1-.6-.5-1.2-.9-1.8-1.2-.6-.3-1.3-.7-1.8-1.2-2.1-1.8-3.1-4.5-2.5-7.2.3-2.1,1.4-4,3.1-5.3-1.5-1.7-2.1-3.9-1.8-6.2.1-1.1.4-2.2.7-3.3h0l.3-1.2h0c.1-.6.2-1,.3-1.4,0-.4.2-.8.2-1.2.3-2.4-.1-4.9-1.3-7h0c-.2-.4-.4-.7-.6-1-1.2-2-2.8-3.6-4.8-4.8-.3-.2-.7-.4-1-.5-5.2-2.3-11.2-1.8-16,1.3-.6.4-1.3.8-1.9,1.3-1.2.9-2.5,1.7-3.9,2.4-2.1.9-5.3,1.3-7.4-.6-1.2-1.3-2-2.9-2.4-4.6-.1-.5-.3-1-.5-1.5-.3-.8-.8-1.6-1.4-2.2h0c-.4-.4-.8-.6-1.3-.7h-.6c-.9.3-1.4,1.2-2,2.7-.3.9-.8,1.7-1.3,2.5-1.8,2.3-4.6,2.6-7.3,2.9-2,.2-4,.5-5.4,1.5-.3.3-.7.5-1,.8-.6.6-1.3,1.1-2.1,1.5-2.5,1.1-5.1-.2-7.3-1.3-.3-.2-.7-.4-1-.5-1.4-.7-3-.8-4.5-.3-.5.2-.8.6-.9,1.1-.2,1,.4,1.9,1.5,3.3,1,1.2,2.1,2.6,2.1,4.4,0,2.6-2.4,4.3-4.8,4.9-.7.2-1.5.3-2.2.4-1.2.1-2.4.4-3.5.9-.8.5-1.5,1-2.2,1.7-.6.5-1.1,1-1.7,1.4-.3.2-.7.4-1,.6-.1,0-.2.1-.3.1-.3.1-.6.2-.8.3h-.3c-.4.1-.7.2-1.1.2h-2.6c-.4,0-.7-.1-1-.2h-.3c-.3,0-.5-.1-.8-.2-.1,0-.2,0-.3-.1-.2,0-.5-.2-.7-.3,0,0-.2,0-.3-.1-.3-.2-.6-.3-.9-.5,0,0-.1,0-.2-.1-.2-.1-.4-.3-.6-.4v.6l-1.8-2.3h0l-.2-.3h0c-.6-.8-1-1.7-1.3-2.6-1.2.3-2.3.8-3.3,1.4-3.2,2-5.5,5.1-6.3,8.8-.3,1.2-.4,2.4-.3,3.5h0c0,1,.2,1.9.4,2.9,0,.4.2.8.3,1.3.5,1.8.7,3.7.7,5.6-.2,2.5-.8,5-1.8,7.3-.3.8-.6,1.7-.9,2.5-.4,1.2-.6,2.5-.8,3.7-.2,1.7.2,3.5,1.2,5,.2.2.3.4.5.6.6.6,1,1.4,1.3,2.2.2,1,.2,2.1,0,3.1-.1.7-.2,1.3-.3,2,0,.5-.2.9-.2,1.4,0,.6-.1,1.3-.2,1.9,0,.5-.1,1-.2,1.5v6.6c.2.1.5.2.7.4,1.7.9,3.4,1.7,5,1.6,2.5,0,4.4-2,6.4-4s3.8-3.9,6.5-4.6c4.1-1.1,7.6,1.3,11,3.5,2.6,1.7,5.2,3.4,8,3.7,1.4,0,2.9,0,4.3-.3,3.3-.4,6.6-.9,8.8,1.8.6.8,1,1.7,1.3,2.6.2.5.4,1,.7,1.5,1.6,2.9,5.2,3.5,9,4.2,4,.7,8.1,1.4,10.4,4.8.2.3.4.7.6,1,.2.5.6,1,1,1.4.9.8,2.3.9,3.8,1.1,1.6.1,3.5.3,4.9,1.5,1,.9,1.5,2.1,1.5,3.4,0,2.8-2.1,5.7-4,7.3-2.9,2.6-5.5,5.3-4.3,7.9.2.4.4.7.6,1.1.3.5.6,1,.9,1.5.9,2.2,0,4.4-1,6.4h0c.4.2.7.4,1.1.6,0,0,.1,0,.2.1.3.2.6.5.9.8,0,0,.1.1.2.1.3.3.6.6.8.9l.1.1c.3.3.5.6.8.9s.5.6.7.9l.4.4c.7-1.2,1.8-2.2,3-2.9.7-.4,1.5-.8,2.2-1.1,1.3-.5,2.5-1.3,3.5-2.2,2-2,2.3-5.1,2.6-8.3.3-3.1.6-6.4,2.5-8.9.7-.8,1.4-1.6,2.2-2.4,2-1.9,3.1-3.1,2.8-4.7-.3-.8-.7-1.6-1.4-2.3-.2-.2-.3-.4-.5-.6-2.9-3.9-3.5-9.1-1.5-12.8,1.3-2.3,1.1-5.2.8-8.2,0-.7-.1-1.5-.2-2.2,0-1.6,0-3.2.1-4.8.3-3.5,1.4-6.9,3-9.9.5-1.6,2.3-2.5,3.9-2,.2,0,.4.1.6.3.2,0,.4.2.6.2,1.2.3,2.6-.3,4.4-1.9,3.4-3.2,6.1-7,8-11.2l-.2-.3c-.2-.4-.5-.9-.7-1.3"/>
            </g>
          </g>
        </g>
      </g>
      <g id="Group_728" class="cls-22">
        <g id="Group_727">
          <g class="cls-32">
            <g id="Group_726">
              <path id="Path_1152" class="cls-24" d="M538.4,204.68h-1.8c-.6,0-1.1,0-1.7-.1h-.3c-.5,0-1-.1-1.5-.2-4.2-.4-8.1-.7-11.5.9-.9.5-1.8,1-2.6,1.6-.3.2-.5.3-.8.5-.1,0-.2.1-.3.2-.2.1-.4.2-.6.4-.1,0-.2.1-.3.2-.2.1-.4.2-.6.3-.1,0-.2.1-.3.2-.3.1-.5.2-.8.4h-.1c-.3.2-.6.2-.9.3h-.3c-.2,0-.4,0-.6.1h-1.3c-.3,0-.7-.1-1-.2-1.1-.4-2.2-1-3.1-1.8-.4-.4-.9-.7-1.4-1-2.4-1.5-5.7-1.5-8.9,0-.1,0-.3.1-.4.2h0c.2.6.4,1.1.6,1.6v.2c.1.5.3,1.1.3,1.6v.3c0,.5.1,1.1.1,1.6v.2c0,.6,0,1.1-.1,1.7,0,.5-.2,1-.3,1.5v.1h0c.8.2,1.7.5,2.5.9.3.1.5.2.8.4,2.9,1.1,6,1.2,9,.3.2,0,.4-.1.7-.2h1.4c.2,0,.4,0,.6.2.8.4,1.4,1.2,1.6,2,.4,1,.7,2,1,3.1.5,1.8,1.2,3.6,2.1,5.3,0,.2.2.3.3.4h0c2.3-2.5,5-4.7,7.9-6.5,2-1.3,3.8-2.7,5.6-4.3,3.8-3.4,6.5-7.8,8.8-12.1h-1.7"/>
            </g>
          </g>
        </g>
      </g>
      <g id="Group_731" class="cls-22">
        <g id="Group_730">
          <g class="cls-5">
            <g id="Group_729">
              <path id="Path_1153" class="cls-24" d="M464.9,334.38c-.4-.4-.8-.8-1.1-1.2-.3-.3-.5-.6-.8-.9-1.2-1.4-2.2-2.7-3.7-3.2h-.3c-2.8-.7-5.7,1.6-8,3.6-1.6,1.3-3,2.9-4,4.7-1,2.1-1,4.5-1,7,0,2.9,0,5.9-1.6,8.5-1.3,1.9-2.9,3.5-4.8,4.8-2.5,2-4.8,3.7-4.6,6.3.1.9.4,1.7.7,2.5.5,1.1.8,2.3.8,3.4.2.1.3.3.5.4,1.3,1.2,3,2,4.8,2.2.3,0,.6.1.9.2.9.2,1.8.5,2.6.8.3,0,.5.2.8.3.4.1.8.3,1.1.4,0-.1,0-.2.1-.3,1-2.9,3.4-4.8,5.7-6.6,1.8-1.3,3.4-2.9,4.7-4.8.5-1,.9-2.1,1.2-3.2.8-3.3,2.7-6.2,5.2-8.4.7-.8,1.5-1.6,2.2-2.4,1.7-2.2,3.1-5.4,1.7-7.9-.3-.5-.7-1-1.2-1.5-.9-.9-1.5-1.9-1.9-3.1-.1-.5-.2-1-.1-1.6"/>
            </g>
          </g>
        </g>
      </g>
      <g id="Group_734" class="cls-22">
        <g id="Group_733">
          <g class="cls-35">
            <g id="Group_732">
              <path id="Path_1154" class="cls-24" d="M543.9,172.48c-.3-.1-.7-.3-1-.4-.2-.1-.4-.2-.7-.3-.4-.2-.7-.4-1.1-.5-.2,0-.4-.2-.5-.3-.5-.3-1.1-.6-1.6-.9-.4-.3-.8-.5-1.2-.8-1.3-1-2.7-1.7-4.2-2.2-1.6-.5-3.8-.1-4.7,1.3-.1.2-.2.4-.3.7-.2.6-.6,1.2-1.1,1.7-.8.7-1.9,1-2.9.9-1.6,0-3.1-.3-4.6-.7-2.8-.6-5.4-1.1-7.3.4-.4.3-.7.7-1.1,1.1-.9,1-1.9,2.1-3.5,2.1h-.8c-1.8-.4-3-2.2-3.4-4,0-.4-.2-.8-.2-1.2-.1-1.1-.5-2.2-1.1-3.1-1-1.1-2.8-1.3-5.6-.7-.6.1-1.3.3-1.9.5-.2,0-.4.1-.6.2-.4,0-.7.2-1.1.3v.1c-.2.4-.5.8-.8,1.2-.7.7-1.4,1.3-2.2,1.9-.6.4-1.2.9-1.7,1.4-2,2-2.4,5.4-1.3,10.2.1.4.2.9.3,1.4,0,.4.2.8.3,1.2.4-.2.7-.4,1.1-.6,2.3-1.3,4.9-2.8,7.3-1.1.4.3.7.6,1,1,.2.2.4.5.6.6,1.2.9,3,.5,4.2-.4,1.3-1.2,2.4-2.7,3.1-4.4l.2-.3c.2-.2.3-.3.5-.4h.2c.1,0,.3-.1.5-.2h1.7c1.7.5,3.1,1.9,3.8,3.6.2.5.4,1.1.5,1.6.4,1.5.8,2.9,1.9,3.6,1.6,1,3.3,0,5.9-1.5,1-.7,2.1-1.2,3.2-1.7,3.4-1.4,6.9-.5,10.3.3,1.1.3,2.3.5,3.4.7.6.1,1.2.2,1.8.2h4.4c.2,0,.4,0,.6-.1v-2.2c.1-1.8.4-3.6.8-5.4.3-1.3.5-2.5.6-3.8-.2,0-.4-.2-.6-.2s-.5-.2-.7-.3"/>
            </g>
          </g>
        </g>
      </g>
      <g id="Group_737" class="cls-22">
        <g id="Group_736">
          <g class="cls-4">
            <g id="Group_735">
              <path id="Path_1156" class="cls-24" d="M513.4,222.38c-.3-1-.6-2-1-3,0-.2-.3-.8-.6-.9-.4,0-.7,0-1,.2-3.4,1.2-7.1,1.1-10.4-.3-.3-.1-.6-.2-.9-.4-.7-.3-1.3-.6-2-.7h-.2c-.1.4-.2.7-.3,1.1,0,.2-.1.4-.1.6-.1.6-.2,1.2-.3,1.8-.2,2,.4,4.4,2.2,5.2l2.1,1-2.2.8c-3,1.5-4.3,5.2-2.8,8.2.3.6.7,1.2,1.2,1.7.5.4,1,.7,1.6,1,.8.4,1.5.9,2.1,1.4,1.1,1,1.9,2.3,2.5,3.6v.2h0c1.1-2.8,2.3-5.7,4.7-7.7.9-.7,1.8-1.3,2.7-1.9,2.2-1.1,4-2.8,5.3-4.9l.2-.3c-.2-.4-.5-.8-.7-1.2-.9-1.8-1.7-3.7-2.2-5.7"/>
            </g>
          </g>
        </g>
      </g>
      <g id="Group_740" class="cls-22">
        <g id="Group_739">
          <g class="cls-6">
            <g id="Group_738">
              <path id="Path_1157" class="cls-24" d="M313.5,345.18c-.2-.3-.3-.5-.5-.7-3.5-5.7-7.5-11.3-13.4-12.5-.8-.2-1.6-.3-2.5-.4-2.9-.4-6.3-.8-7.8-3.7-.3-.7-.6-1.5-.7-2.3,0-.6-.3-1.2-.5-1.8-.6-1.1-1.7-1.7-3.8-2.2-.6-.1-1.2-.2-1.9-.3-1-.1-2-.3-3-.6-1.3-.4-2.5-.8-3.7-1.4-2.5-1.1-4.8-2.1-6.8-1.1-.4.2-.8.5-1.2.8-.7.6-1.6,1.1-2.6,1.4-3,.7-5-2.1-6.6-4.4-.2-.3-.4-.6-.7-.9-4.6-5.6-12.9-6.3-18.5-1.7-.3.2-.5.5-.8.7l-.4.4c-.6.8-1.4,1.5-2.2,2-.9.4-1.8.7-2.7.7h-.6c-.5.2-1,.3-1.5.4-.1,0-.2,0-.4.1-.4.1-.9.3-1.3.5h0c2.4,3,2.8,7.2,1.1,10.6-.3.5-.6.9-.9,1.4-.6.8-1,1.7-1.3,2.6v3.1c0,2.9-1.5,5.4-2.8,7.7-1.3,2.2-2.5,4.2-2.6,6.5-.1,2.4,1,4.8,2.2,7.3,1.4,2.8,2.8,5.8,2.3,9-.1.8-.4,1.5-.6,2.3-.2.7-.4,1.3-.6,2-.2,1.1,0,2.4.9,2.9.3.1.6.2.9.3.2,0,.5.1.7.2,2,.6,3.3,2.3,4.5,3.8,1.1,1.4,2.1,2.8,3.6,3.2,1.8.5,3.7-.5,5.7-1.7,1.8-1,3.7-2.1,5.8-2.1.4,0,.7,0,1.1.1,3.3.6,5.1,3.9,5.6,6.6.3,1.6.4,3.3.3,4.9v3.2c.3,3.2,1.5,6.3,3.5,8.8.6.9,1.5,1.6,2.6,1.8.9,0,1.7-.4,2.4-.9.3-.2.6-.3.9-.5,2.6-1.3,5.7-1.4,8.4-.3l.2-.2c.6-.5,1.2-1,1.7-1.4l.9-.7c3.8-2.3,6.3-6.1,6.9-10.5.5-2.2,1.3-4.4,2.4-6.3l.3-.5h0c.2-.3.4-.6.7-.9,2-2.3,4.9-3.4,7.7-4.4,3.1-1.2,6-2.3,7.4-4.8.8-1.7,1.2-3.5,1.3-5.3,0-2.2.6-4.3,1.6-6.3,1.3-2.1,3.4-3.5,5.5-4.8,2.6-1.7,4.8-3.1,5.1-5.6,0-1.6-.5-3.2-1.4-4.5h0l.1.4Z"/>
            </g>
          </g>
        </g>
      </g>
      <g id="Group_743" class="cls-22">
        <g id="Group_742">
          <g class="cls-34">
            <g id="Group_741">
              <path id="Path_1158" class="cls-24" d="M444.8,375.38c-.8-.3-1.7-.5-2.5-.7-.3,0-.6-.1-.9-.2-1.4-.2-2.8-.7-4.1-1.4-.4-.2-.8-.5-1.1-.8h0c-1,1.8-2.4,3.2-4.1,4.3-5.9,4.2-12.8,8.6-20,7-.3,0-.6-.1-.9-.2-1.8-.8-3.9-.4-5.3,1l-4.2,3c.5,1.1.6,2.4.2,3.5-.3.7-.8,1.4-1.3,2-.3.3-.6.7-.8,1.1-.7,1.4-.7,3.1,0,4.5,1.2-.6,2.5-.9,3.8-.9h.2c2,.1,3.9.5,5.7,1.3.9.3,1.8.6,2.7.9,5.6,1.5,11.8-.5,16.7-2,1.2-.2,2.3-.8,3.2-1.6.6-.7,1.1-1.6,1.3-2.5.4-1.1.9-2.1,1.6-3,1.5-1.7,3.6-2.1,5.6-2.5,1.6-.2,3.1-.7,4.3-1.6,1.7-1.5,1.8-4,1.8-6.7,0-1.2,0-2.4.2-3.5-.4-.2-.8-.4-1.2-.5-.3-.1-.5-.2-.8-.3"/>
            </g>
          </g>
        </g>
      </g>
      <g id="Group_746" class="cls-22">
        <g id="Group_745">
          <g class="cls-26">
            <g id="Group_744">
              <path id="Path_1160" class="cls-24" d="M382.9,262.18c-.2-.2-.4-.5-.6-.7-.3-.4-.5-.8-.7-1.2,0-.1-.1-.3-.2-.5-.1-.3-.2-.6-.3-.9,0-.2,0-.4-.1-.6,0-.3-.1-.6-.1-.9v-1.2h-.8c-.3,0-.6,0-.9-.1h-4.5c-.3,0-.6,0-.8.1h-.4c-.3,0-.6.2-.9.2-.1,0-.2,0-.4.1-.4.1-.8.3-1.2.5-.7.4-1.4.9-2.1,1.4-.2.1-.4.3-.6.5,0,0-.1,0-.2.1-.2.1-.3.2-.5.3,0,0-.1.1-.2.1-.2.1-.3.2-.5.3,0,0-.2,0-.2.1-.2,0-.3.2-.5.2,0,0-.2,0-.3.1-.2,0-.3.1-.5.2h-.2c-.2,0-.4.1-.6.1h-1.9c-2-.4-3.3-1.8-4.5-3.2-.7-.9-1.6-1.8-2.6-2.4-1.5-.8-3.3-.6-5.4-.3l-10.2,1.4c-1.5.3-3,.2-4.4-.2-2.3-1-3.2-3.3-3.9-5.5-.4-1.2-.9-2.3-1.5-3.3-.5.2-1,.5-1.5.7-.2,0-.3.2-.5.3-.3.2-.7.3-1,.5-.2.1-.4.2-.6.4-.3.2-.6.3-.9.5-.2.1-.4.3-.6.4s-.4.3-.6.4c0,.3-.1.6-.2.9,0,.2,0,.4-.1.7,0,.4-.1.8-.1,1.2v4.2c-.1,3.5-.2,7-1.7,10.3-1.9,4.1-5.4,6.8-8.9,9.5-2.7,2.1-5.5,4.2-7.4,6.9-1.5,2.5-2.7,5.2-3.5,8.1-1.3,3.9-2.6,8-5.8,10.8-.6.5-1.2,1-1.8,1.5-1,.7-1.9,1.5-2.7,2.5-1.1,1.5-1.4,3.5-1.8,5.7-.2,2.1-.8,4.1-1.7,6-.2.4-.5.7-.7,1.1,0,.1-.2.2-.3.3-.2.2-.4.4-.5.6l-.1.1h.1c.2,0,.5.2.7.3h.2c.3.1.5.3.8.5,0,0,.1.1.2.1.2.2.4.3.6.5l.2.2c.2.3.4.6.6.9.3.7.6,1.5.7,2.3,0,.6.3,1.2.5,1.8.2.5.6.9,1,1.2,1.3.9,3.2,1.2,5.2,1.4.9.1,1.8.2,2.7.4,6.7,1.4,10.9,7.4,14.7,13.4,0,0,.1.2.2.3,1-.2,1.9-.4,2.9-.5v-.3c.9-4.9,4-8.8,8-9.8,1.4-.3,2.7-.4,4.1-.4,2.1,0,4-.1,5.4-1.3.8-.8,1.5-1.8,1.9-2.8.6-1.3,1.4-2.5,2.4-3.5,2.2-1.8,5.7-1.9,9.3-.2.8.4,1.6.8,2.4,1.2,1.6,1,3.5,1.7,5.3,2.1,1.5.2,3-.3,4.2-1.2.6-.5,1-1.3,1-2.1v-.8c-.1-.6-.1-1.2,0-1.8.4-2.2,2.5-2.9,4.4-3.4,1-.2,2-.7,2.9-1.3-1.3-1.2-2.5-2.4-3.8-3.7l-1.6-1.5,1.5-.6c2-.8,3.6-2.3,4.4-4.2-2.7-.6-5.3-1.6-6.3-4.1-1-2.4,0-5.1.9-7.4,1.1-2.8,1.7-4.6.5-5.9l-.9-.9h-3.8c-.8,0-1.4-.6-1.4-1.4v-3.9c0-.8.6-1.4,1.4-1.4h3.9c.8,0,1.4.6,1.4,1.4v3.9c0,.2,0,.4-.1.6h.5c2.7.7,5.1-2.4,6.1-3.7l.3-.5c1.6-2.4,3.5-5.2,6.6-5.7,1.4-.2,2.7,0,4,.5v-5.9c0-.8.1-1.6.2-2.3,0-.4,0-.7.1-1.1.2-1.1.3-2.3.6-3.4h0c.2-.8.3-1.5.1-2.3-.2-.5-.5-1-1-1.5"/>
            </g>
          </g>
        </g>
      </g>
      <g id="Group_749" class="cls-22">
        <g id="Group_748">
          <g class="cls-1">
            <g id="Group_747">
              <rect id="Rectangle_290" class="cls-24" x="360.2" y="283.98" width="3.5" height="3.5"/>
            </g>
          </g>
        </g>
      </g>
      <path id="Path_1168" class="cls-16" d="M544.1,186.38h-.6c-.3,0-.5,0-.8.1h-4.1c-.7,0-1.3-.1-2-.2-1.2-.2-2.3-.5-3.5-.7-3.2-.8-6.3-1.5-9.1-.4-1,.5-2,1-2.9,1.6l-.6.3h-.1c-.2.2-.4.3-.5.4h-.1c-.2.2-.4.3-.6.4h-.1c-.2.1-.4.2-.5.3h-.1c-.4.3-.9.4-1.3.5h-.1c-.2,0-.4.1-.6.2h-2.1c-.1,0-.3,0-.4-.1h-.2c-.2,0-.4-.2-.6-.3-1.7-1.1-2.3-3-2.8-4.8-.1-.5-.3-1-.5-1.5-.4-1.1-1.3-1.9-2.4-2.3-.3,0-.6,0-.8.1-.8,1.9-2,3.5-3.6,4.9-1.8,1.4-4.6,2-6.6.4-.3-.3-.6-.6-.9-.9-.2-.3-.5-.5-.7-.7-1.3-.9-2.8-.2-5.2,1.2-.5.3-1.1.6-1.6.9h0l-.7.4-1.1.5h-.2c-.2,0-.5.1-.7.2h-.9c-.1,0,0,0,0,0h-.7c-.2,0-.5,0-.7-.2-1.1-.5-2.2-1.2-3-2.1l-.3-.3c-.4-.4-.9-.8-1.4-1.2-.2-.1-.3-.2-.5-.4-.3-.2-.7-.5-1-.7-.2-.1-.4-.3-.6-.4-.3-.2-.6-.4-1-.6-.2-.1-.5-.2-.7-.4-.3-.2-.6-.3-1-.5-.3-.1-.5-.2-.8-.3s-.7-.3-1-.4c-.3,0-.5-.2-.8-.2-.3-.1-.7-.2-1-.3-.3,0-.6-.1-.9-.2-.3,0-.7-.1-1-.2-.3,0-.6,0-.9-.1h-.8l-.4.4c-1.4,1.5-2.2,2.5-1.9,3.6.1.3.3.7.5,1,.4.6.6,1.2.7,1.9,0,1.4-.5,2.7-1.5,3.6-1.7,2-3.6,3.9-5.5,5.7-.4.3-.7.7-1.1,1v.1c.2.2.4.5.5.8,0,0,.1.2.2.3.2.3.3.7.5,1.1.2.5.3,1,.5,1.6.3,1.4.9,2.6,1.8,3.7,1.5,1.3,3.8,1,5.3.3,1.3-.6,2.5-1.3,3.6-2.2.6-.5,1.3-.9,2-1.3,5.4-3.4,12.1-3.9,17.9-1.4.4.2.7.4,1.1.6.1,0,.2.1.3.2.2.1.5.3.7.5.1,0,.3.2.4.3.2.2.4.3.6.5.1.1.3.2.4.3.2.2.4.3.5.5.1.1.3.3.4.4.2.2.3.3.5.5.1.1.2.3.4.4.2.2.3.4.4.6.1.1.2.3.3.4.1.2.3.4.4.6.1.2.2.3.3.5v.1c.1,0,.3-.1.5-.2.5-.2.9-.4,1.4-.6.2,0,.3,0,.5-.1.3,0,.6-.2.9-.3.2,0,.4,0,.6-.1.3,0,.6-.1.9-.1h1.3c.2,0,0,0,0,0h1.4c.3,0,.5,0,.8.1.2,0,.4,0,.6.1.3,0,.5.2.8.3.1,0,.3.1.5.2l1.2.6c.5.3,1.1.7,1.6,1.1.7.6,1.5,1.1,2.4,1.5,2.1.6,4.2-.7,6.4-2.1.9-.6,1.9-1.2,2.8-1.7,3.9-1.9,8.3-1.5,12.6-1.1.7,0,1.4.1,2.1.2h4.9c.3,0,.7,0,1-.1l.8-1.6c1.1-1.9,2-4,2.5-6.1h0c.3-2.4.2-4.8-.3-7.1,0-.4-.1-.9-.2-1.3"/>
      <path id="Path_1169" class="cls-16" d="M285.8,386.28c-.1.3-.2.7-.3,1.1,0,.1,0,.3-.1.4-.1.5-.3,1-.4,1.5-.7,4.8-3.5,9-7.6,11.5l-.8.7c-.4.3-.9.7-1.3,1.1-.1.1-.3.3-.5.4-.2.2-.5.4-.7.6,0,1,.2,2,.3,3.1.1,1.3.3,2.7.3,4.1v.6l-.4.3c-1.3.9-.9,3.3-.7,4,0,.3.1.6.2.8.4,1.6.9,3.4.2,5.1-.5,1-1.1,2-1.9,2.8-1.2,1.5-1.7,2.2-1.3,3,.4.7,1.3.7,3,.7,1.4-.2,2.9,0,4.2.6,1.7,1,2.3,3.1,2.6,4.3.1.5.3,1,.4,1.6h4.4c.3,0,.6,0,1,.1h.4c.4,0,.9.2,1.3.3h.2c.4,0,.8.2,1.2.3h.4c.3.2.7.3,1,.4h.4c.4.2.9.3,1.3.5,3.9,1.1,7.6,2.2,11.3,1.3,2.1-.6,4.1-1.5,5.9-2.7,1.9-1.2,3.9-2.1,6-2.8,6.3-1.7,12.6,1.3,18.2,4.8,0-.2,0-.4.1-.7.4-1.6,1.4-2.9,2.8-3.6,2.2-1.2,4.8-1.1,7-.9l4.1.3c1.3-1.7,2.7-3.4,4.1-5.1-.8-.2-1.6-.5-2.4-1-1.9-1.2-3.5-2.7-4.8-4.5-2.9-3.5-6-8.1-5.1-12.6l-8-.6-.2-.6c-.9-2.3.7-4.1,2-5.8,1-1.2,1.9-2.4,2-3.6,0-.8-.3-1.5-.8-2-1.2-1.1-2.8-1.6-4.4-1.5-.5,0-.9,0-1.4.1-1.8.2-3.9.4-5.6-.8-.5-.4-1-1-1.4-1.5-.2-.2-.3-.4-.5-.7-1.9-2.2-5.2-2.9-10-2.3-.6,0-1.1.2-1.7.2-3.5.5-7.1,1-10.4-.3-1.3-.6-2.5-1.3-3.7-2.1-.8-.6-1.6-1.1-2.5-1.6-1.9-.9-4-1.4-6.1-1.4-.1.2-.2.4-.3.5,0,.2-.2.3-.2.5-.1.3-.3.6-.4.9,0,.2-.1.3-.2.5"/>
      <path id="Path_1168-2" class="cls-16" d="M398.7,393.38c-1.2,2-.7,4.2.3,6.4-4.6,2.6-8.2,8.3-13.6,9.3-2.5.5-5.1-.1-7.6.2-2.6.5-5.1,1.5-7.2,3-6.1,3.8-11.7,8.4-16.6,13.6-1.4,0-2.7-.5-3.9-1.1-1.8-1.1-3.3-2.6-4.6-4.3-3-3.7-6.3-8.4-4.6-12.8-2.9-.2-5.7-.5-8.6-.7-1.2-3.2,3.8-5.5,4-8.9.2-3-3.4-4.8-6.3-4.6-2.2.1-4.6.8-6.3-.5-.7-.6-1.2-1.3-1.8-2-2.5-3-7.1-3.2-10.9-2.7s-8,1.5-11.6,0c-2.2-.9-4-2.6-6.1-3.7-2.2-1.1-4.6-1.6-7.1-1.5.3-.4.6-.8.9-1.2,4.1-4.5,12.2-4.2,15.2-9.5,2-3.5.8-8.1,2.9-11.5,2.7-4.4,10.2-5.6,10.7-10.8,0-1.8-.5-3.6-1.6-5.1,1.4-.4,2.8-.6,4.3-.7,3-.2,6.1.6,8.6,2.2,1.7,1.2,3.2,2.8,5.3,3.2,2.3.4,4.6-.9,6.9-.3,1.2.5,2.3,1.1,3.4,1.8,3.7,1.8,8.1-.4,11.8-2.2s8.7-3.1,11.6-.2c1.5,1.5,1.9,3.6,2.4,5.7.8,4,1.6,8.1,2.5,12.1.1,1.3.7,2.6,1.6,3.6,1.4,1.4,4.2,1.6,4.6,3.5.4,1.7-1.5,3-2.7,4.3-3.3,3.4-3.2,8.9,0,12.3,2.8-1.2,5.6-2.5,8.4-3.7,4.7-2.1,10.3-4.1,14.9-1.8,1,.5,1.8,1.2,2.4,2.2.7,1,.9,2.3.5,3.4s-1.5,1.9-2.1,3"/>
      <path id="Path_1169-2" class="cls-16" d="M463.7,309.78c-2.7,2.4-6,5.7-4.6,9,.4.9,1.1,1.6,1.5,2.6.8,2.2-.5,4.4-1.4,6.6-3.2-.8-6.3,1.6-8.8,3.9-1.7,1.4-3.1,3.1-4.2,5-2.3,4.8.1,11-2.6,15.5-2.7,4.4-9.8,6.5-9.5,11.7.1,2.1,1.7,4.1,1.5,6.2v.1c-.2,2.3-2.3,3.9-4.1,5.2-5.7,4.1-12.3,8.3-19.2,6.8-1.2-.4-2.5-.6-3.9-.6-1.2.3-2.2.8-3.1,1.6-1.6,1.2-3.3,2.4-5,3.5-.6-.9-1.4-1.7-2.4-2.2-4.6-2.4-10.1-.3-14.9,1.8-2.8,1.2-5.6,2.5-8.4,3.7-3.3-3.4-3.3-8.8,0-12.3,1.3-1.2,3.1-2.5,2.7-4.3-.4-2-3.2-2.1-4.6-3.5-.9-1-1.4-2.3-1.6-3.6-.8-4-1.6-8.1-2.5-12.1-.4-2-.9-4.2-2.4-5.7-2.9-2.9-7.9-1.6-11.6.2s-8,4-11.8,2.2c-1.1-.7-2.2-1.3-3.4-1.8-2.2-.6-4.6.7-6.9.3-2-.4-3.5-2-5.3-3.2-2.6-1.6-5.6-2.4-8.6-2.2,0-.3,0-.7.1-1.1.7-4,3.3-8,7.3-9,3.3-.9,7.3.3,9.9-1.9,2-1.7,2.3-4.7,4.3-6.3,2.2-1.9,5.6-1.3,8.2-.1s5.1,3,8,3.4,6.4-1.4,6.3-4.4c-.1-.8-.2-1.6-.2-2.5.6-3.1,6.4-2.1,7.6-5.1-1.6-1.6-3.2-3.1-4.8-4.7,2.6-1,4.6-3.2,5.4-5.9-2.6-.5-5.7-1.3-6.7-3.7-1.8-4.4,4.4-10.1,1.2-13.6,2.9.7,5.5-1.8,7.1-4.3s3.4-5.3,6.3-5.8c1.7-.2,3.4.2,4.9,1,2.2,1,4.4,2.4,6.8,2.4,5.3-.2,7.9-7.3,13-8.6,6.6-1.8,11.9,6.7,18.7,7.2,4.3.3,9.6-2.2,12.3,1.2.9,1.1,1.2,2.7,1.9,4,3.6,6.5,15.4,2.9,19.4,9.1.5.9,1,1.8,1.7,2.6,2.2,2.1,6.4.5,8.7,2.6,2.7,2.4.3,6.9-2.4,9.3"/>
      <path id="Path_1170" class="cls-30" d="M354.4,426.88h-.5c-1.5-.1-3-.6-4.3-1.3-1.9-1.2-3.5-2.7-4.8-4.5-2.9-3.5-6-8.1-5.1-12.6l-8-.6-.2-.6c-.9-2.3.7-4.1,2-5.8,1-1.2,1.9-2.4,2-3.6,0-.8-.3-1.5-.8-2-1.2-1.1-2.8-1.6-4.4-1.5-.5,0-.9,0-1.4.1-1.8.2-3.9.4-5.6-.8-.5-.4-1-1-1.4-1.5-.2-.2-.3-.4-.5-.7-1.9-2.2-5.2-2.9-10-2.3-.6,0-1.1.2-1.7.2-3.5.5-7.1,1-10.4-.3-1.3-.6-2.5-1.3-3.7-2.1-.8-.6-1.6-1.1-2.5-1.6-2.1-1-4.3-1.5-6.6-1.4h-1.8l.9-1.5c.3-.5.6-.9,1-1.3,2-2.3,4.9-3.4,7.7-4.4,3.1-1.2,6-2.3,7.4-4.8.8-1.7,1.2-3.5,1.3-5.3,0-2.2.6-4.3,1.6-6.3,1.3-2.1,3.4-3.5,5.5-4.8,2.6-1.7,4.8-3.1,5.1-5.6,0-1.6-.5-3.2-1.4-4.5l-.7-1.1,1.3-.3c1.5-.4,3-.6,4.5-.7,3.3-.2,6.5.6,9.2,2.4.5.3,1,.7,1.5,1.1,1,.9,2.1,1.6,3.4,1.9,1,.1,2,0,2.9-.2,1.3-.3,2.7-.4,4,0,.8.3,1.6.7,2.4,1.2.4.3.8.5,1.2.7,3.2,1.5,7.2-.4,10.7-2.1h.3c3.2-1.7,9.1-3.8,12.7,0,1.7,1.8,2.3,4.3,2.6,6.2.8,4,1.7,8.1,2.5,12.1.1,1.1.6,2.2,1.3,3.1.5.4,1.2.8,1.8,1.1,1.3.6,2.8,1.3,3.1,3,.5,2-1.1,3.5-2.4,4.7l-.6.6c-1.4,1.4-2.2,3.4-2.1,5.4,0,1.8.6,3.6,1.7,4.9,2.6-1.1,5.2-2.3,7.8-3.4,5-2.2,10.7-4.3,15.7-1.7,1.1.6,2.1,1.5,2.8,2.5.9,1.3,1.1,2.9.6,4.3-.3.7-.8,1.4-1.3,2-.3.3-.6.7-.8,1.1-.8,1.4-.7,3.2.3,5.5l.4.8-.8.5c-1.8,1.1-3.4,2.4-5,3.9-2.7,2.4-5.4,4.9-9,5.5-1.4.2-2.9.3-4.3.1h-3.3c-2.4.5-4.8,1.4-6.8,2.8-6.1,3.7-11.6,8.3-16.4,13.5l-.3.3-.3-.3ZM333.2,405.98l9.2.7-.5,1.2c-1.5,3.9,1.4,8.2,4.4,11.8,1.2,1.6,2.6,3,4.3,4.1.9.5,1.9.9,3,1,4.9-5.2,10.4-9.7,16.5-13.5,2.3-1.6,4.9-2.6,7.6-3.1,1.2-.1,2.4-.1,3.7,0,1.3.1,2.6,0,3.9-.1,3-.6,5.4-2.8,8-5.1,1.4-1.3,2.9-2.6,4.5-3.7-1-2.5-1-4.7.1-6.5.3-.5.6-.9,1-1.3s.8-.9,1-1.5c.3-.9.1-1.8-.4-2.5-.5-.8-1.2-1.4-2-1.8-4.2-2.2-9.4-.2-14,1.8-2.8,1.2-5.6,2.5-8.4,3.7l-.6.3-.5-.5c-3.7-3.8-3.7-9.9,0-13.7l.6-.6c1.2-1.1,2-1.9,1.8-2.8-.2-.7-.9-1.1-2-1.6-.9-.3-1.6-.8-2.3-1.4-1-1.2-1.7-2.6-1.9-4.2-.8-4-1.6-8.1-2.5-12.1-.4-2.1-.9-4-2.1-5.2-2.8-2.8-7.7-1-10.5.4h-.3c-3.7,1.9-8.3,4.1-12.4,2.2-.5-.2-1-.5-1.4-.8-.6-.4-1.2-.7-1.8-.9-1-.2-2.1-.1-3.2.1-1.2.3-2.4.3-3.6.2-1.6-.4-3.1-1.2-4.3-2.3-.4-.4-.9-.7-1.4-1-2.4-1.5-5.2-2.2-8-2.1-.9,0-1.9.2-2.8.4.8,1.4,1.2,3,1.1,4.5-.4,3.4-3.2,5.3-6,7-1.9,1.2-3.8,2.4-4.9,4.1-.8,1.7-1.3,3.6-1.4,5.4,0,2.1-.6,4.2-1.5,6.1-1.8,3.2-5.2,4.5-8.5,5.7-2.5,1-4.9,1.9-6.6,3.5,1.9.2,3.8.7,5.6,1.6.9.5,1.9,1.1,2.7,1.7,1,.8,2.1,1.4,3.3,1.9,2.9,1.2,6.2.7,9.4.2.6,0,1.1-.2,1.7-.2,5.5-.7,9.5.3,11.8,3,.2.2.4.5.6.8.3.4.6.8,1,1.1,1,.8,2.6.6,4.2.4.5,0,1-.1,1.5-.1,2.2-.1,4.4.6,6,2.1,1,.9,1.5,2.2,1.4,3.6-.1,1.8-1.3,3.4-2.4,4.7-1.1,1.4-1.8,2.3-1.8,3.3"/>
      <path id="Path_1171" class="cls-30" d="M374.4,391.38l-.5-.5c-3.7-3.8-3.7-9.9,0-13.7l.6-.6c1.2-1.1,2-1.9,1.8-2.8-.2-.7-.9-1.1-2-1.6-.9-.3-1.6-.8-2.3-1.4-1-1.2-1.7-2.6-1.9-4.2-.8-4-1.6-8.1-2.5-12.1-.4-2.1-.9-4-2.1-5.2-2.8-2.8-7.7-1-10.5.4h-.3c-3.7,1.9-8.3,4.1-12.4,2.2-.5-.2-1-.5-1.4-.8-.6-.4-1.2-.7-1.8-.9-1-.2-2.1-.1-3.2.1-1.2.3-2.4.4-3.6.2-1.6-.4-3.1-1.2-4.3-2.3-.4-.4-.9-.7-1.4-1-2.4-1.5-5.2-2.2-8-2.1h-1.1l.1-1.1c0-.4,0-.7.2-1.1.9-4.9,4-8.8,8-9.8,1.4-.3,2.7-.4,4.1-.4,2.1,0,4-.1,5.4-1.3.8-.8,1.5-1.8,1.9-2.8.6-1.3,1.4-2.5,2.4-3.5,2.2-1.8,5.7-1.9,9.3-.2.8.4,1.6.8,2.4,1.2,1.6,1,3.5,1.7,5.3,2.1,1.5.2,3-.3,4.2-1.2.6-.5,1-1.3,1-2.1v-.8c-.1-.6-.1-1.2,0-1.8.4-2.2,2.5-2.9,4.4-3.4,1-.2,2-.7,2.9-1.3-1.3-1.2-2.5-2.4-3.8-3.7l-1.6-1.5,1.5-.6c2-.8,3.6-2.3,4.4-4.2-2.7-.6-5.3-1.6-6.3-4.1-1-2.4,0-5.1.9-7.4,1.1-2.8,1.7-4.6.5-5.9l-2.2-2.4,3.1.7c2.7.6,5.1-2.5,6.1-3.9l.3-.5c1.6-2.4,3.5-5.2,6.6-5.7,1.9-.2,3.8.1,5.5,1.1.4.2.8.4,1.3.6,1.7.9,3.4,1.7,5,1.6,2.5,0,4.4-2,6.4-4s3.8-3.9,6.5-4.6c4.1-1.1,7.6,1.3,11,3.5,2.6,1.7,5.2,3.4,8,3.7,1.4,0,2.9,0,4.3-.3,3.3-.4,6.6-.9,8.8,1.8.6.8,1,1.7,1.3,2.6.2.5.4,1,.7,1.5,1.6,2.9,5.2,3.5,9,4.2,4,.7,8.1,1.4,10.4,4.8.2.3.4.7.6,1,.2.5.6,1,1,1.4.9.8,2.3.9,3.8,1.1,1.6.1,3.5.3,4.9,1.5,1,.9,1.5,2.1,1.5,3.4,0,2.8-2.1,5.7-4,7.3-2.9,2.6-5.5,5.3-4.3,7.9.2.4.4.7.6,1.1.3.5.6,1,.9,1.5.9,2.3-.1,4.5-1,6.5-.1.3-.2.5-.4.8l-.3.8-.8-.2c-2.7-.7-5.6,1.6-7.9,3.7-1.6,1.3-3,2.9-4,4.7-1,2.1-1,4.5-1,7,0,2.9,0,5.9-1.6,8.5-1.3,1.9-2.9,3.5-4.8,4.8-2.6,2-4.8,3.7-4.6,6.3.1.9.4,1.7.7,2.5.6,1.2.8,2.5.8,3.8v.2c-.3,2.6-2.5,4.4-4.5,5.8-5.9,4.2-12.8,8.6-20,7-.3,0-.6-.1-.9-.2-.8-.3-1.7-.4-2.6-.3-1,.3-1.9.7-2.7,1.4l-5.8,4.1-.6-.9c-.5-.8-1.2-1.4-2-1.8-4.2-2.2-9.4-.2-14,1.8-2.8,1.2-5.6,2.5-8.4,3.7l-.6.3h-.4ZM361.7,345.98c2,0,3.9.7,5.3,2,1.7,1.8,2.3,4.3,2.6,6.2.8,4,1.6,8.1,2.5,12.1.1,1.1.6,2.2,1.3,3.1.5.4,1.2.8,1.8,1.1,1.3.6,2.8,1.3,3.1,3,.5,2-1.1,3.5-2.4,4.7l-.6.6c-1.4,1.4-2.2,3.4-2.1,5.4,0,1.8.6,3.6,1.7,4.9,2.6-1.1,5.2-2.3,7.8-3.4,5-2.2,10.7-4.3,15.7-1.7.8.4,1.5,1,2.1,1.7l4.2-3c1-.9,2.2-1.4,3.6-1.7,1.1-.1,2.3,0,3.4.4.3,0,.6.1.8.2,6.4,1.4,12.6-2.5,18.4-6.7,1.8-1.3,3.5-2.7,3.7-4.5v-.2c0-1-.2-2-.7-2.9-.4-1-.7-2-.8-3.1-.2-3.7,2.6-5.9,5.4-8,1.7-1.2,3.1-2.6,4.3-4.2,1.3-2.1,1.3-4.8,1.3-7.5s0-5.4,1.2-7.9c1.1-2,2.6-3.8,4.4-5.3,2.4-2.2,5.6-4.6,8.9-4.3v-.1c.8-1.8,1.6-3.5,1-5-.2-.4-.4-.8-.7-1.2-.3-.4-.6-.9-.8-1.4-1.8-4.2,2.7-8.2,4.9-10.2,1.6-1.4,3.3-3.8,3.3-5.8,0-.7-.3-1.5-.8-1.9-.9-.8-2.3-.9-3.7-1-1.7-.1-3.6-.3-5-1.6-.5-.6-1-1.2-1.3-1.9-.2-.3-.3-.6-.5-.8-1.8-2.7-5.3-3.3-9.1-4-4.1-.7-8.4-1.5-10.4-5.2-.3-.6-.6-1.2-.8-1.8-.2-.7-.6-1.4-1-2-1.5-1.8-4-1.5-7-1.1-1.5.3-3.1.4-4.7.3-3.3-.3-6.2-2.2-8.9-4-3.2-2.1-6.2-4.1-9.4-3.3-2.1.6-3.8,2.3-5.5,4.1-2.2,2.2-4.4,4.5-7.7,4.6-2.2,0-4.1-.9-6-1.8-.4-.2-.8-.4-1.2-.6-1.3-.8-2.8-1.1-4.3-.9-2.3.4-3.8,2.7-5.3,4.9l-.3.5c-1.2,1.7-3.4,4.4-6.2,4.8.6,2-.3,4.2-1.1,6.3-.9,2.2-1.7,4.2-.9,5.9.8,2,3.5,2.7,6,3.1l1.1.2-.3,1c-.7,2.5-2.3,4.6-4.6,6,1.2,1.2,2.5,2.4,3.8,3.7l.5.5-.2.6c-.8,1.9-2.7,2.5-4.5,3s-2.8.9-3,1.9v1.2c0,.4.1.7.1,1.1,0,1.4-.6,2.7-1.7,3.6-1.6,1.3-3.7,2-5.8,1.7-2.1-.4-4.2-1.2-6-2.4-.7-.4-1.5-.8-2.2-1.2-1.1-.5-4.9-2-7.2,0-.8.8-1.5,1.8-1.9,2.9-.5,1.3-1.4,2.5-2.4,3.5-1.9,1.6-4.3,1.7-6.7,1.7-1.2,0-2.5,0-3.7.4-3.7.9-5.9,4.7-6.5,8.1,2.9,0,5.7.8,8.1,2.4.5.3,1,.7,1.5,1.1,1,.9,2.1,1.6,3.4,1.9,1,.1,2,0,2.9-.2,2.2-.7,4.6-.3,6.4,1.1.4.3.8.5,1.2.7,3.2,1.5,7.2-.4,10.7-2.1h.3c2.3-1.3,4.9-2,7.5-2.1"/>
      <g id="SP" class="cls-22">
        <g class="cls-22">
          <text class="cls-18" transform="translate(331.7 384.68)"><tspan x="0" y="0">SP</tspan></text>
        </g>
      </g>
      <g id="MG" class="cls-22">
        <g class="cls-22">
          <text class="cls-18" transform="translate(389.5 337.38)"><tspan x="0" y="0">MG</tspan></text>
        </g>
      </g>
      <path id="Path_1172" class="cls-20" d="M418.8,311.38c0-7,5.7-12.6,12.6-12.6s12.6,5.7,12.6,12.6-5.7,12.6-12.6,12.6h0c-7,0-12.6-5.7-12.6-12.6h0"/>
      <path id="Path_1173" class="cls-9" d="M436.3,308.08c0-.3-.3-.4-.6-.4h-8.5c-.3,0-.5.2-.6.4l-2.2,7.7c0,.3,0,.7.4.7h5.2v.6h-.6c-.2,0-.3.1-.3.3v.3h-.6v.6h.6v.3c0,.2.1.3.3.3h.6v.6h-.6c-.2,0-.3.1-.3.3v1.2c0,.2.1.3.3.3h4.2c.2,0,.3-.1.3-.3v-1.2c0-.2-.1-.3-.3-.3h-.6v-.6h.6c.2,0,.3-.1.3-.3v-.3h.6v-.6h-.6v-.3c0-.2-.1-.3-.3-.3h-.6v-.6h5c.3,0,.6-.3.6-.6v-.2l-2.2-7.7-.1.1ZM436.7,311.88h-2l-.2-1.5h1.8l.4,1.5h0ZM434.1,311.88h-2.3v-1.5h2.1l.2,1.5h0ZM431.8,309.78v-1.5h1.8l.2,1.5h-2ZM431.2,309.78h-2l.2-1.5h1.8v1.5ZM431.2,310.38v1.5h-2.3l.2-1.5h2.1,0ZM428.2,311.88h-2l.4-1.5h1.8l-.2,1.5h0ZM428.1,312.48l-.2,1.5h-2.3l.4-1.5h2.1ZM428.7,312.48h2.4v1.5h-2.6l.2-1.5ZM431.2,314.58v1.5h-2.9l.2-1.5h2.7,0ZM431.8,314.58h2.7l.2,1.5h-2.9v-1.5h0ZM431.8,313.98v-1.5h2.4l.2,1.5h-2.6ZM434.8,312.48h2.1l.4,1.5h-2.3l-.2-1.5ZM436.1,309.78h-1.7l-.2-1.5h1.5l.4,1.5h0ZM427.2,308.28h1.5l-.2,1.5h-1.7l.4-1.5h0ZM425.4,314.58h2.4l-.2,1.5h-2.6l.4-1.5h0ZM429.7,317.78h.3v.6h-.3v-.6ZM433.2,320.78h-3.6v-.6h3.6v.6ZM433.2,318.38h-.3v-.6h.3v.6ZM432.3,319.58h-1.8v-3h1.8v3ZM435.3,316.08l-.2-1.5h2.4l.4,1.5h-2.6,0Z"/>
      <path id="Path_1174" class="cls-9" d="M431.5,302.58c-1,0-1.8.8-1.8,1.8s.8,1.8,1.8,1.8,1.8-.8,1.8-1.8h0c0-1-.8-1.8-1.8-1.8M431.5,305.58c-.7,0-1.2-.5-1.2-1.2s.5-1.2,1.2-1.2,1.2.5,1.2,1.2-.5,1.2-1.2,1.2"/>
      <rect id="Rectangle_294" class="cls-9" x="431.2" y="301.38" width=".6" height=".6"/>
      <rect id="Rectangle_295" class="cls-9" x="429.23" y="302.16" width=".6" height=".6" transform="translate(-88.07 392.31) rotate(-45)"/>
      <rect id="Rectangle_296" class="cls-9" x="428.5" y="304.08" width=".6" height=".6"/>
      <rect id="Rectangle_297" class="cls-9" x="429.32" y="305.95" width=".6" height=".6" transform="translate(-90.72 393.48) rotate(-45)"/>
      <rect id="Rectangle_298" class="cls-9" x="431.2" y="306.78" width=".6" height=".6"/>
      <rect id="Rectangle_299" class="cls-9" x="433.11" y="305.96" width=".6" height=".6" transform="translate(-89.62 396.17) rotate(-45)"/>
      <rect id="Rectangle_300" class="cls-9" x="433.8" y="304.08" width=".6" height=".6"/>
      <rect id="Rectangle_301" class="cls-9" x="433.12" y="302.18" width=".6" height=".6" transform="translate(-86.94 395.07) rotate(-45)"/>
      <path id="Path_1175" class="cls-20" d="M347.4,398.08c0-7,5.7-12.6,12.6-12.6s12.6,5.7,12.6,12.6-5.7,12.6-12.6,12.6h0c-7,0-12.6-5.7-12.6-12.6h0"/>
      <path id="Path_1176" class="cls-9" d="M364.8,394.88c0-.3-.3-.4-.6-.4h-8.5c-.3,0-.5.2-.6.4l-2.2,7.8c0,.3,0,.7.4.7h5.2v.6h-.6c-.2,0-.3.1-.3.3v.3h-.6v.6h.6v.3c0,.2.1.3.3.3h.6v.6h-.6c-.2,0-.3.1-.3.3v1.2c0,.2.1.3.3.3h4.2c.2,0,.3-.1.3-.3v-1.2c0-.2-.1-.3-.3-.3h-.6v-.6h.6c.2,0,.3-.1.3-.3v-.3h.6v-.6h-.6v-.3c0-.2-.1-.3-.3-.3h-.6v-.6h5c.3,0,.6-.3.6-.6v-.2l-2.2-7.8-.1.1ZM365.3,398.58h-2l-.2-1.5h1.8l.4,1.5h0ZM362.7,398.58h-2.3v-1.5h2.1l.2,1.5h0ZM360.3,396.48v-1.5h1.8l.2,1.5h-2ZM359.7,396.48h-2l.2-1.5h1.8v1.5ZM359.7,397.08v1.5h-2.3l.2-1.5h2.1,0ZM356.8,398.58h-2l.4-1.5h1.8l-.2,1.5h0ZM356.7,399.18l-.2,1.5h-2.3l.4-1.5h2.1ZM357.3,399.18h2.4v1.5h-2.6l.2-1.5ZM359.7,401.28v1.5h-2.9l.2-1.5h2.7,0ZM360.3,401.28h2.7l.2,1.5h-2.9v-1.5h0ZM360.3,400.68v-1.5h2.4l.2,1.5h-2.6ZM363.3,399.18h2.1l.4,1.5h-2.3l-.2-1.5ZM364.7,396.48h-1.7l-.2-1.5h1.5l.4,1.5h0ZM355.8,395.08h1.5l-.2,1.5h-1.7l.4-1.5h0ZM354,401.28h2.4l-.2,1.5h-2.6l.4-1.5h0ZM358.2,404.58h.3v.6h-.3v-.6ZM361.8,407.58h-3.6v-.6h3.6v.6ZM361.8,405.18h-.3v-.6h.3v.6ZM360.9,406.38h-1.8v-3h1.8v3ZM363.8,402.78l-.2-1.5h2.4l.4,1.5h-2.6,0Z"/>
      <path id="Path_1177" class="cls-9" d="M360,389.38c-1,0-1.8.8-1.8,1.8s.8,1.8,1.8,1.8,1.8-.8,1.8-1.8h0c0-1-.8-1.8-1.8-1.8M360,392.38c-.7,0-1.2-.5-1.2-1.2s.5-1.2,1.2-1.2,1.2.5,1.2,1.2-.5,1.2-1.2,1.2"/>
      <rect id="Rectangle_302" class="cls-9" x="359.7" y="388.18" width=".6" height=".6"/>
      <rect id="Rectangle_303" class="cls-9" x="357.85" y="389" width=".6" height=".6" transform="translate(-170.38 367.27) rotate(-45)"/>
      <rect id="Rectangle_304" class="cls-9" x="357" y="390.88" width=".6" height=".6"/>
      <rect id="Rectangle_305" class="cls-9" x="357.84" y="392.78" width=".6" height=".6" transform="translate(-173.06 368.37) rotate(-45)"/>
      <rect id="Rectangle_306" class="cls-9" x="359.7" y="393.48" width=".6" height=".6"/>
      <rect id="Rectangle_307" class="cls-9" x="361.62" y="392.8" width=".6" height=".6" transform="translate(-171.96 371.05) rotate(-45)"/>
      <rect id="Rectangle_308" class="cls-9" x="362.4" y="390.88" width=".6" height=".6"/>
      <rect id="Rectangle_309" class="cls-9" x="361.64" y="389.01" width=".6" height=".6" transform="translate(-169.28 369.95) rotate(-45)"/>
      <g id="PE" class="cls-22">
        <g class="cls-22">
          <text class="cls-17" transform="translate(548.2 200.98)"><tspan x="0" y="0">PE</tspan></text>
        </g>
      </g>
      <g id="PR" class="cls-22">
        <g class="cls-22">
          <text class="cls-19" transform="translate(295.3 418.18)"><tspan x="0" y="0">PR</tspan></text>
        </g>
      </g>
      <path id="Path_1175-2" class="cls-20" d="M266.4,418.18c0-7,5.7-12.6,12.6-12.6s12.6,5.7,12.6,12.6-5.7,12.6-12.6,12.6h0c-7,0-12.6-5.7-12.6-12.6h0"/>
      <path id="Path_1176-2" class="cls-9" d="M283.8,414.98c0-.3-.3-.4-.6-.4h-8.5c-.3,0-.5.2-.6.4l-2.2,7.8c0,.3,0,.7.4.7h5.2v.6h-.6c-.2,0-.3.1-.3.3v.3h-.6v.6h.6v.3c0,.2.1.3.3.3h.6v.6h-.6c-.2,0-.3.1-.3.3v1.2c0,.2.1.3.3.3h4.2c.2,0,.3-.1.3-.3v-1.2c0-.2-.1-.3-.3-.3h-.6v-.6h.6c.2,0,.3-.1.3-.3v-.3h.6v-.6h-.6v-.3c0-.2-.1-.3-.3-.3h-.6v-.6h5c.3,0,.6-.3.6-.6v-.2l-2.2-7.8-.1.1ZM284.3,418.68h-2l-.2-1.5h1.8l.4,1.5h0ZM281.6,418.68h-2.3v-1.5h2.1l.2,1.5h0ZM279.3,416.58v-1.5h1.8l.2,1.5h-2ZM278.7,416.58h-2l.2-1.5h1.8v1.5ZM278.7,417.18v1.5h-2.3l.2-1.5h2.1,0ZM275.8,418.68h-2l.4-1.5h1.8l-.2,1.5h0ZM275.7,419.28l-.2,1.5h-2.3l.4-1.5h2.1ZM276.3,419.28h2.4v1.5h-2.6l.2-1.5ZM278.7,421.38v1.5h-2.9l.2-1.5h2.7,0ZM279.3,421.38h2.7l.2,1.5h-2.9v-1.5h0ZM279.3,420.78v-1.5h2.4l.2,1.5h-2.6ZM282.3,419.28h2.1l.4,1.5h-2.3l-.2-1.5ZM283.7,416.58h-1.7l-.2-1.5h1.5l.4,1.5h0ZM274.8,415.08h1.5l-.2,1.5h-1.7l.4-1.5h0ZM273,421.38h2.4l-.2,1.5h-2.6l.4-1.5h0ZM277.2,424.68h.3v.6h-.3v-.6ZM280.8,427.68h-3.6v-.6h3.6v.6ZM280.8,425.28h-.3v-.6h.3v.6ZM279.9,426.48h-1.8v-3h1.8v3ZM282.8,422.88l-.2-1.5h2.4l.4,1.5h-2.6,0Z"/>
      <path id="Path_1177-2" class="cls-9" d="M279,409.48c-1,0-1.8.8-1.8,1.8s.8,1.8,1.8,1.8,1.8-.8,1.8-1.8h0c0-1-.8-1.8-1.8-1.8M279,412.38c-.7,0-1.2-.5-1.2-1.2s.5-1.2,1.2-1.2,1.2.5,1.2,1.2-.5,1.2-1.2,1.2"/>
      <rect id="Rectangle_302-2" class="cls-9" x="278.7" y="408.28" width=".6" height=".6"/>
      <rect id="Rectangle_303-2" class="cls-9" x="276.82" y="409.02" width=".6" height=".6" transform="translate(-208.26 315.84) rotate(-45)"/>
      <rect id="Rectangle_304-2" class="cls-9" x="276" y="410.88" width=".6" height=".6"/>
      <rect id="Rectangle_305-2" class="cls-9" x="276.8" y="412.8" width=".6" height=".6" transform="translate(-210.95 316.94) rotate(-45)"/>
      <rect id="Rectangle_306-2" class="cls-9" x="278.7" y="413.58" width=".6" height=".6"/>
      <rect id="Rectangle_307-2" class="cls-9" x="280.59" y="412.82" width=".6" height=".6" transform="translate(-209.85 319.62) rotate(-45)"/>
      <rect id="Rectangle_308-2" class="cls-9" x="281.4" y="410.88" width=".6" height=".6"/>
      <rect id="Rectangle_309-2" class="cls-9" x="280.6" y="409.03" width=".6" height=".6" transform="translate(-207.16 318.52) rotate(-45)"/>
      <path id="Path_1175-3" class="cls-20" d="M467.1,194.08c0-7,5.7-12.6,12.6-12.6s12.6,5.7,12.6,12.6-5.7,12.6-12.6,12.6h0c-7,0-12.6-5.7-12.6-12.6h0"/>
      <path id="Path_1176-3" class="cls-9" d="M484.6,190.88c0-.3-.3-.4-.6-.4h-8.5c-.3,0-.5.2-.6.4l-2.2,7.8c0,.3,0,.7.4.7h5.2v.6h-.6c-.2,0-.3.1-.3.3v.3h-.6v.6h.6v.3c0,.2.1.3.3.3h.6v.6h-.6c-.2,0-.3.1-.3.3v1.2c0,.2.1.3.3.3h4.2c.2,0,.3-.1.3-.3v-1.2c0-.2-.1-.3-.3-.3h-.6v-.6h.6c.2,0,.3-.1.3-.3v-.3h.6v-.6h-.6v-.3c0-.2-.1-.3-.3-.3h-.6v-.6h5c.3,0,.6-.3.6-.6v-.2l-2.2-7.8-.1.1ZM485,194.58h-2l-.2-1.5h1.8l.4,1.5h0ZM482.4,194.58h-2.3v-1.5h2.1l.2,1.5h0ZM480.1,192.48v-1.5h1.8l.2,1.5h-2ZM479.5,192.48h-2l.2-1.5h1.8v1.5ZM479.5,193.08v1.5h-2.3l.2-1.5h2.1,0ZM476.5,194.58h-2l.4-1.5h1.8l-.2,1.5h0ZM476.4,195.18l-.2,1.5h-2.3l.4-1.5h2.1ZM477,195.18h2.4v1.5h-2.6l.2-1.5ZM479.5,197.28v1.5h-2.9l.2-1.5h2.7,0ZM480.1,197.28h2.7l.2,1.5h-2.9v-1.5h0ZM480.1,196.68v-1.5h2.4l.2,1.5h-2.6ZM483.1,195.18h2.1l.4,1.5h-2.3l-.2-1.5ZM484.4,192.48h-1.7l-.2-1.5h1.5l.4,1.5h0ZM475.5,191.08h1.5l-.2,1.5h-1.7l.4-1.5h0ZM473.7,197.28h2.4l-.2,1.5h-2.6l.4-1.5h0ZM478,200.58h.3v.6h-.3v-.6ZM481.5,203.58h-3.6v-.6h3.6v.6ZM481.5,201.18h-.3v-.6h.3v.6ZM480.7,202.38h-1.8v-3h1.8v3ZM483.6,198.78l-.2-1.5h2.4l.4,1.5h-2.6,0Z"/>
      <path id="Path_1177-3" class="cls-9" d="M479.8,185.38c-1,0-1.8.8-1.8,1.8s.8,1.8,1.8,1.8,1.8-.8,1.8-1.8h0c0-1-.8-1.8-1.8-1.8M479.8,188.38c-.7,0-1.2-.5-1.2-1.2s.5-1.2,1.2-1.2,1.2.5,1.2,1.2-.5,1.2-1.2,1.2"/>
      <rect id="Rectangle_302-3" class="cls-9" x="479.5" y="184.18" width=".6" height=".6"/>
      <rect id="Rectangle_303-3" class="cls-9" x="477.61" y="184.94" width=".6" height=".6" transform="translate(8.99 392.19) rotate(-45)"/>
      <rect id="Rectangle_304-3" class="cls-9" x="476.8" y="186.88" width=".6" height=".6"/>
      <rect id="Rectangle_305-3" class="cls-9" x="477.6" y="188.72" width=".6" height=".6" transform="translate(6.31 393.29) rotate(-45)"/>
      <rect id="Rectangle_306-3" class="cls-9" x="479.5" y="189.48" width=".6" height=".6"/>
      <rect id="Rectangle_307-3" class="cls-9" x="481.39" y="188.74" width=".6" height=".6" transform="translate(7.41 395.97) rotate(-45)"/>
      <rect id="Rectangle_308-3" class="cls-9" x="482.1" y="186.88" width=".6" height=".6"/>
      <rect id="Rectangle_309-3" class="cls-9" x="481.4" y="184.95" width=".6" height=".6" transform="translate(10.09 394.87) rotate(-45)"/>
    </g>
  </g>
  <g>
    <path d="M44.17,400.12c0,.96-.71,1.68-1.68,1.68s-1.68-.72-1.68-1.68.71-1.68,1.68-1.68,1.68.71,1.68,1.68Z"/>
    <path d="M64.29,403.38l-4.94-7.08h-.02v7.08h-.86v-7.96h1.26l4.77,6.79h.02v-6.79h.86v7.96h-1.09Z"/>
    <path d="M67.63,400.82c.11,1.2,1.03,1.96,2.42,1.96.85,0,1.56-.26,2.11-.8h.04v.83c-.5.44-1.28.7-2.17.7-1.96,0-3.21-1.15-3.21-2.92s1.2-2.93,2.91-2.93,2.84,1.07,2.84,2.7v.47h-4.94ZM67.63,400.13h4.2c-.11-1.07-.91-1.75-2.09-1.75-1.1,0-1.93.71-2.11,1.75Z"/>
    <path d="M79.39,400.58c0,1.7-1.24,2.92-2.96,2.92s-2.95-1.21-2.95-2.92,1.22-2.93,2.95-2.93,2.96,1.21,2.96,2.93ZM74.29,400.58c0,1.3.89,2.2,2.13,2.2s2.15-.9,2.15-2.2-.89-2.21-2.15-2.21-2.13.91-2.13,2.21Z"/>
    <path d="M85.85,400.15v3.23h-.8v-3.14c0-1.16-.64-1.86-1.71-1.86-1.15,0-1.87.82-1.87,2.12v2.88h-.8v-5.6h.7l.02,1h.02c.4-.72,1.12-1.12,2.1-1.12,1.45,0,2.35.95,2.35,2.49Z"/>
    <path d="M87.8,400.82c.11,1.2,1.03,1.96,2.42,1.96.85,0,1.56-.26,2.11-.8h.04v.83c-.5.44-1.28.7-2.17.7-1.96,0-3.21-1.15-3.21-2.92s1.2-2.93,2.91-2.93,2.84,1.07,2.84,2.7v.47h-4.94ZM87.8,400.13h4.2c-.11-1.07-.91-1.75-2.09-1.75-1.1,0-1.93.71-2.11,1.75Z"/>
    <path d="M97.41,397.87v.82h-.04c-.25-.18-.54-.26-.89-.26-1.12,0-1.68.8-1.68,2.34v2.61h-.8v-5.6h.7l.02,1.01c.34-.74.92-1.13,1.82-1.13.37,0,.66.1.86.22Z"/>
    <path d="M103.87,402.93c0,1.79-1.1,2.84-2.99,2.84-1,0-1.85-.3-2.36-.79v-.85h.04c.48.59,1.28.92,2.25.92,1.44,0,2.25-.77,2.25-2.16v-.43h-.02c-.44.62-1.21,1-2.21,1-1.64,0-2.83-1.2-2.83-2.9s1.19-2.9,2.83-2.9c1.06,0,1.86.43,2.29,1.14h.02l.02-1.02h.7v5.16ZM103.09,400.56c0-1.29-.89-2.18-2.13-2.18s-2.13.89-2.13,2.18.89,2.18,2.13,2.18,2.13-.89,2.13-2.18Z"/>
    <path d="M106.46,396c0,.32-.24.55-.55.55s-.55-.23-.55-.55.23-.55.55-.55.55.24.55.55ZM105.5,397.78h.8v5.6h-.8v-5.6Z"/>
    <path d="M112.77,403.38l-.02-1.01h-.02c-.43.7-1.25,1.13-2.3,1.13-1.64,0-2.83-1.21-2.83-2.92s1.19-2.93,2.83-2.93c1.06,0,1.86.43,2.3,1.13h.02l.02-1.01h.68v5.6h-.68ZM112.69,400.58c0-1.29-.89-2.21-2.15-2.21s-2.13.91-2.13,2.21.89,2.2,2.13,2.2,2.15-.9,2.15-2.2Z"/>
    <path d="M117.48,399.71h3.31v.8h-3.31v-.8Z"/>
    <path d="M128.37,395.41c1.83,0,2.78.84,2.78,2.46s-.95,2.45-2.78,2.45h-2.52v3.06h-.89v-7.96h3.41ZM128.33,399.52c1.28,0,1.92-.55,1.92-1.64s-.64-1.66-1.92-1.66h-2.48v3.3h2.48Z"/>
    <path d="M137.4,399.76h-4.02v2.82h4.88v.8h-5.77v-7.96h5.77v.8h-4.88v2.73h4.02v.8Z"/>
    <path d="M44.17,414.12c0,.96-.71,1.68-1.68,1.68s-1.68-.72-1.68-1.68.71-1.68,1.68-1.68,1.68.71,1.68,1.68Z"/>
    <path d="M64.77,410.12v1.01h-.05c-.59-.68-1.5-1.03-2.54-1.03-2,0-3.33,1.34-3.33,3.3s1.33,3.3,3.33,3.3c1.03,0,1.94-.34,2.54-1.03h.05v1.01c-.64.53-1.55.83-2.63.83-2.49,0-4.2-1.7-4.2-4.1s1.7-4.1,4.2-4.1c1.13,0,1.99.28,2.63.83Z"/>
    <path d="M71.26,413.76h-4.02v2.82h4.88v.8h-5.77v-7.96h5.77v.8h-4.88v2.73h4.02v.8Z"/>
    <path d="M82.05,417.38v-7.08h-.02l-3.37,7.08h-.74l-3.32-7h-.02v7h-.86v-7.96h1.36l3.23,6.81h.02l3.26-6.81h1.37v7.96h-.89Z"/>
    <path d="M84.89,409.41h.89v7.96h-.89v-7.96Z"/>
    <path d="M88.1,413.4c0,2,1.37,3.3,3.42,3.3.82,0,1.48-.14,2.05-.44v-2.06h-2.53v-.8h3.38v3.29c-.76.56-1.68.83-2.94.83-2.58,0-4.28-1.62-4.28-4.1s1.7-4.1,4.28-4.1c1.26,0,2.18.26,2.94.83v1.01h-.05c-.76-.72-1.63-1.03-2.85-1.03-2.05,0-3.42,1.3-3.42,3.3Z"/>
    <path d="M98.42,413.71h3.31v.8h-3.31v-.8Z"/>
    <path d="M114.26,417.38v-7.08h-.02l-3.37,7.08h-.74l-3.32-7h-.02v7h-.86v-7.96h1.36l3.23,6.81h.02l3.26-6.81h1.37v7.96h-.89Z"/>
    <path d="M117.48,413.4c0,2,1.37,3.3,3.42,3.3.82,0,1.48-.14,2.05-.44v-2.06h-2.53v-.8h3.38v3.29c-.76.56-1.68.83-2.94.83-2.58,0-4.28-1.62-4.28-4.1s1.7-4.1,4.28-4.1c1.26,0,2.18.26,2.94.83v1.01h-.05c-.76-.72-1.63-1.03-2.85-1.03-2.05,0-3.42,1.3-3.42,3.3Z"/>
    <path d="M44.17,428.12c0,.96-.71,1.68-1.68,1.68s-1.68-.72-1.68-1.68.71-1.68,1.68-1.68,1.68.71,1.68,1.68Z"/>
    <path d="M64.77,424.12v1.01h-.05c-.59-.68-1.5-1.03-2.54-1.03-2,0-3.33,1.34-3.33,3.3s1.33,3.3,3.33,3.3c1.03,0,1.94-.34,2.54-1.03h.05v1.01c-.64.53-1.55.83-2.63.83-2.49,0-4.2-1.7-4.2-4.1s1.7-4.1,4.2-4.1c1.13,0,1.99.28,2.63.83Z"/>
    <path d="M69.76,423.41c1.83,0,2.78.84,2.78,2.46s-.95,2.45-2.78,2.45h-2.52v3.06h-.89v-7.96h3.41ZM69.73,427.52c1.28,0,1.92-.55,1.92-1.64s-.64-1.66-1.92-1.66h-2.48v3.3h2.48Z"/>
    <path d="M78.81,427.84h-4.03v3.54h-.89v-7.96h5.78v.8h-4.89v2.82h4.03v.8Z"/>
    <path d="M81,431.38v-7.96h.89v7.16h4.72v.8h-5.61Z"/>
    <path d="M93.93,423.41c1.83,0,2.78.84,2.78,2.46s-.95,2.45-2.78,2.45h-2.52v3.06h-.89v-7.96h3.41ZM93.9,427.52c1.28,0,1.92-.55,1.92-1.64s-.64-1.66-1.92-1.66h-2.48v3.3h2.48Z"/>
    <path d="M102.73,431.38l-.02-1.01h-.02c-.43.7-1.25,1.13-2.3,1.13-1.64,0-2.83-1.21-2.83-2.92s1.19-2.93,2.83-2.93c1.06,0,1.86.43,2.3,1.13h.02l.02-1.01h.68v5.6h-.68ZM102.64,428.58c0-1.29-.89-2.21-2.15-2.21s-2.13.91-2.13,2.21.89,2.2,2.13,2.2,2.15-.9,2.15-2.2Z"/>
    <path d="M109.41,431.38l-.04-1.01h-.02c-.4.72-1.12,1.13-2.1,1.13-1.45,0-2.34-.94-2.34-2.48v-3.24h.8v3.14c0,1.18.65,1.86,1.7,1.86,1.15,0,1.87-.8,1.87-2.12v-2.88h.8v5.6h-.68Z"/>
    <path d="M112.53,431.38h-.8v-8.4h.8v8.4Z"/>
    <path d="M115.12,424c0,.32-.24.55-.55.55s-.55-.23-.55-.55.23-.55.55-.55.55.24.55.55ZM114.16,425.78h.8v5.6h-.8v-5.6Z"/>
    <path d="M120.26,426.11v.86h-.04c-.37-.4-.97-.6-1.79-.6s-1.34.42-1.34,1.01c0,.49.34.7,1.39.76,1.56.1,2.1.58,2.1,1.64s-.84,1.71-2.17,1.71c-.94,0-1.66-.2-2.13-.61v-.9h.04c.44.52,1.16.79,2.08.79.84,0,1.39-.4,1.39-1,0-.55-.35-.78-1.47-.86-1.5-.11-2-.54-2-1.52,0-1.03.85-1.74,2.11-1.74.78,0,1.45.17,1.85.46Z"/>
    <path d="M124.88,431.28c-.24.14-.58.22-.97.22-1.12,0-1.74-.67-1.74-1.86v-3.17h-1.08v-.7h1.1l.13-1.5h.65v1.5h1.88v.7h-1.88v3.14c0,.73.4,1.16,1.03,1.16.31,0,.62-.08.84-.32h.04v.83Z"/>
    <path d="M130.95,431.38l-.02-1.01h-.02c-.43.7-1.25,1.13-2.3,1.13-1.64,0-2.83-1.21-2.83-2.92s1.19-2.93,2.83-2.93c1.06,0,1.86.43,2.3,1.13h.02l.02-1.01h.68v5.6h-.68ZM130.86,428.58c0-1.29-.89-2.21-2.15-2.21s-2.13.91-2.13,2.21.89,2.2,2.13,2.2,2.15-.9,2.15-2.2Z"/>
    <path d="M135.66,427.71h3.31v.8h-3.31v-.8Z"/>
    <path d="M148.25,424v1h-.05c-.53-.58-1.45-.9-2.54-.9-1.21,0-2.04.6-2.04,1.5,0,.78.49,1.13,2.12,1.3,2.17.22,2.91.88,2.91,2.29s-1.13,2.31-2.99,2.31c-1.29,0-2.35-.3-3.01-.86v-.98h.05c.71.68,1.73,1.04,2.96,1.04,1.32,0,2.1-.56,2.1-1.5,0-.85-.53-1.24-2.23-1.42-2.11-.22-2.81-.83-2.81-2.15,0-1.42,1.16-2.34,2.94-2.34,1.09,0,2.06.26,2.58.71Z"/>
    <path d="M153.47,423.41c1.83,0,2.78.84,2.78,2.46s-.95,2.45-2.78,2.45h-2.52v3.06h-.89v-7.96h3.41ZM153.44,427.52c1.28,0,1.92-.55,1.92-1.64s-.64-1.66-1.92-1.66h-2.48v3.3h2.48Z"/>
    <path d="M44.17,442.12c0,.96-.71,1.68-1.68,1.68s-1.68-.72-1.68-1.68.71-1.68,1.68-1.68,1.68.71,1.68,1.68Z"/>
    <path d="M64.77,438.12v1.01h-.05c-.59-.68-1.5-1.03-2.54-1.03-2,0-3.33,1.34-3.33,3.3s1.33,3.3,3.33,3.3c1.03,0,1.94-.34,2.54-1.03h.05v1.01c-.64.53-1.55.83-2.63.83-2.49,0-4.2-1.7-4.2-4.1s1.7-4.1,4.2-4.1c1.13,0,1.99.28,2.63.83Z"/>
    <path d="M69.76,437.41c1.83,0,2.78.84,2.78,2.46s-.95,2.45-2.78,2.45h-2.52v3.06h-.89v-7.96h3.41ZM69.73,441.52c1.28,0,1.92-.55,1.92-1.64s-.64-1.66-1.92-1.66h-2.48v3.3h2.48Z"/>
    <path d="M78.81,441.84h-4.03v3.54h-.89v-7.96h5.78v.8h-4.89v2.82h4.03v.8Z"/>
    <path d="M81,445.38v-7.96h.89v7.16h4.72v.8h-5.61Z"/>
    <path d="M93.93,437.41c1.83,0,2.78.84,2.78,2.46s-.95,2.45-2.78,2.45h-2.52v3.06h-.89v-7.96h3.41ZM93.9,441.52c1.28,0,1.92-.55,1.92-1.64s-.64-1.66-1.92-1.66h-2.48v3.3h2.48Z"/>
    <path d="M98.86,438c0,.32-.24.55-.55.55s-.55-.23-.55-.55.23-.55.55-.55.55.24.55.55ZM97.9,439.78h.8v5.6h-.8v-5.6Z"/>
    <path d="M103.76,439.87v.82h-.04c-.25-.18-.54-.26-.89-.26-1.12,0-1.68.8-1.68,2.34v2.61h-.8v-5.6h.7l.02,1.01c.34-.74.92-1.13,1.82-1.13.37,0,.66.1.86.22Z"/>
    <path d="M109.53,445.38l-.02-1.01h-.02c-.43.7-1.25,1.13-2.3,1.13-1.64,0-2.83-1.21-2.83-2.92s1.19-2.93,2.83-2.93c1.06,0,1.86.43,2.3,1.13h.02l.02-1.01h.68v5.6h-.68ZM109.45,442.58c0-1.29-.89-2.21-2.15-2.21s-2.13.91-2.13,2.21.89,2.2,2.13,2.2,2.15-.9,2.15-2.2Z"/>
    <path d="M114.95,445.28c-.24.14-.58.22-.97.22-1.12,0-1.74-.67-1.74-1.86v-3.17h-1.08v-.7h1.1l.13-1.5h.65v1.5h1.88v.7h-1.88v3.14c0,.73.4,1.16,1.03,1.16.31,0,.62-.08.84-.32h.04v.83Z"/>
    <path d="M117.16,438c0,.32-.24.55-.55.55s-.55-.23-.55-.55.23-.55.55-.55.55.24.55.55ZM116.2,439.78h.8v5.6h-.8v-5.6Z"/>
    <path d="M123.85,442.15v3.23h-.8v-3.14c0-1.16-.64-1.86-1.71-1.86-1.15,0-1.87.82-1.87,2.12v2.88h-.8v-5.6h.7l.02,1h.02c.4-.72,1.12-1.12,2.1-1.12,1.45,0,2.35.95,2.35,2.49Z"/>
    <path d="M126.3,438c0,.32-.24.55-.55.55s-.55-.23-.55-.55.23-.55.55-.55.55.24.55.55ZM125.34,439.78h.8v5.6h-.8v-5.6Z"/>
    <path d="M132.98,442.15v3.23h-.8v-3.14c0-1.16-.64-1.86-1.71-1.86-1.15,0-1.87.82-1.87,2.12v2.88h-.8v-5.6h.7l.02,1h.02c.4-.72,1.12-1.12,2.1-1.12,1.45,0,2.35.95,2.35,2.49Z"/>
    <path d="M139.97,444.93c0,1.79-1.1,2.84-2.99,2.84-1,0-1.85-.3-2.36-.79v-.85h.04c.48.59,1.28.92,2.25.92,1.44,0,2.25-.77,2.25-2.16v-.43h-.02c-.44.62-1.21,1-2.21,1-1.64,0-2.83-1.2-2.83-2.9s1.19-2.9,2.83-2.9c1.06,0,1.86.43,2.29,1.14h.02l.02-1.02h.7v5.16ZM139.19,442.56c0-1.29-.89-2.18-2.13-2.18s-2.13.89-2.13,2.18.89,2.18,2.13,2.18,2.13-.89,2.13-2.18Z"/>
    <path d="M146.43,445.38l-.02-1.01h-.02c-.43.7-1.25,1.13-2.3,1.13-1.64,0-2.83-1.21-2.83-2.92s1.19-2.93,2.83-2.93c1.06,0,1.86.43,2.3,1.13h.02l.02-1.01h.68v5.6h-.68ZM146.35,442.58c0-1.29-.89-2.21-2.15-2.21s-2.13.91-2.13,2.21.89,2.2,2.13,2.2,2.15-.9,2.15-2.2Z"/>
    <path d="M151.14,441.71h3.31v.8h-3.31v-.8Z"/>
    <path d="M163.73,438v1h-.05c-.53-.58-1.45-.9-2.54-.9-1.21,0-2.04.6-2.04,1.5,0,.78.49,1.13,2.12,1.3,2.17.22,2.91.88,2.91,2.29s-1.13,2.31-2.99,2.31c-1.29,0-2.35-.3-3.01-.86v-.98h.05c.71.68,1.73,1.04,2.96,1.04,1.32,0,2.1-.56,2.1-1.5,0-.85-.53-1.24-2.23-1.42-2.11-.22-2.81-.83-2.81-2.15,0-1.42,1.16-2.34,2.94-2.34,1.09,0,2.06.26,2.58.71Z"/>
    <path d="M168.95,437.41c1.83,0,2.78.84,2.78,2.46s-.95,2.45-2.78,2.45h-2.52v3.06h-.89v-7.96h3.41ZM168.92,441.52c1.28,0,1.92-.55,1.92-1.64s-.64-1.66-1.92-1.66h-2.48v3.3h2.48Z"/>
    <path d="M44.17,456.12c0,.96-.71,1.68-1.68,1.68s-1.68-.72-1.68-1.68.71-1.68,1.68-1.68,1.68.71,1.68,1.68Z"/>
    <path d="M64.77,452.12v1.01h-.05c-.59-.68-1.5-1.03-2.54-1.03-2,0-3.33,1.34-3.33,3.3s1.33,3.3,3.33,3.3c1.03,0,1.94-.34,2.54-1.03h.05v1.01c-.64.53-1.55.83-2.63.83-2.49,0-4.2-1.7-4.2-4.1s1.7-4.1,4.2-4.1c1.13,0,1.99.28,2.63.83Z"/>
    <path d="M74.1,455.4c0,2.4-1.71,4.1-4.14,4.1s-4.12-1.7-4.12-4.1,1.71-4.1,4.12-4.1,4.14,1.7,4.14,4.1ZM66.74,455.4c0,1.94,1.32,3.3,3.23,3.3s3.24-1.36,3.24-3.3-1.33-3.3-3.24-3.3-3.23,1.36-3.23,3.3Z"/>
    <path d="M78.94,451.41c1.83,0,2.78.84,2.78,2.46s-.95,2.45-2.78,2.45h-2.52v3.06h-.89v-7.96h3.41ZM78.91,455.52c1.28,0,1.92-.55,1.92-1.64s-.64-1.66-1.92-1.66h-2.48v3.3h2.48Z"/>
    <path d="M87.98,455.76h-4.02v2.82h4.88v.8h-5.77v-7.96h5.77v.8h-4.88v2.73h4.02v.8Z"/>
    <path d="M90.42,459.38v-7.96h.89v7.16h4.72v.8h-5.61Z"/>
    <path d="M99.54,455.71h3.31v.8h-3.31v-.8Z"/>
    <path d="M110.43,451.41c1.83,0,2.78.84,2.78,2.46s-.95,2.45-2.78,2.45h-2.52v3.06h-.89v-7.96h3.41ZM110.4,455.52c1.28,0,1.92-.55,1.92-1.64s-.64-1.66-1.92-1.66h-2.48v3.3h2.48Z"/>
    <path d="M115.45,459.38h-.89v-7.96h3.47c1.83,0,2.78.82,2.78,2.41,0,1.32-.66,2.11-1.96,2.34l2.18,3.21h-1.06l-2.05-3.15h-2.48v3.15ZM117.99,455.42c1.28,0,1.92-.54,1.92-1.59s-.64-1.61-1.92-1.61h-2.54v3.2h2.54Z"/>
  </g>
  <line class="cls-14" x1="370.6" y1="412.28" x2="393.15" y2="412.38"/>
  <line class="cls-14" x1="39.09" y1="364.43" x2="27.49" y2="363.65"/>
  <text class="cls-15" transform="translate(38.64 386.93)"><tspan x="0" y="0">Di</tspan><tspan class="cls-12" x="11.64" y="0">s</tspan><tspan class="cls-28" x="16.79" y="0">tribuido</tspan><tspan class="cls-33" x="59.67" y="0">r</tspan><tspan x="64.34" y="0">as a</tspan><tspan class="cls-8" x="86.33" y="0">t</tspan><tspan x="90.97" y="0">endidas</tspan></text>
</svg>