<svg xmlns="http://www.w3.org/2000/svg" width="53" height="53" viewBox="0 0 53 53">
  <path id="Subtraction_4" data-name="Subtraction 4" d="M26.5,53A26.507,26.507,0,0,1,16.185,2.082a26.507,26.507,0,0,1,20.63,48.835A26.334,26.334,0,0,1,26.5,53Zm-.24-18.11a2.971,2.971,0,1,0,2.126.87A2.894,2.894,0,0,0,26.26,34.89Zm.36-18.7A3.728,3.728,0,0,1,29.5,17.239a3.362,3.362,0,0,1,.959,2.309,3.92,3.92,0,0,1-.719,2.248,9.721,9.721,0,0,1-1.8,1.947A15.05,15.05,0,0,0,24.7,27.279a10.963,10.963,0,0,0-.6,4.375h4.435a8.772,8.772,0,0,1,.448-3.116,10.572,10.572,0,0,1,2.549-3.116,18.033,18.033,0,0,0,2.457-2.968,6.174,6.174,0,0,0,.9-3.385,6.026,6.026,0,0,0-2.457-5.154,9.616,9.616,0,0,0-5.813-1.8,8.325,8.325,0,0,0-5.543,1.8A9.55,9.55,0,0,0,18.11,18.23l3.956,1.558a6.563,6.563,0,0,1,1.347-2.337A3.957,3.957,0,0,1,26.62,16.192Z" fill="#e1ff0f"/>
</svg>
