<svg xmlns="http://www.w3.org/2000/svg" xmlns:xlink="http://www.w3.org/1999/xlink" width="791" height="123" viewBox="0 0 791 123">
  <defs>
    <clipPath id="clip-path">
      <rect id="surface-8HPLpr3hebU-unsplash" width="791" height="123" transform="translate(205.484 139.699)" fill="#e1ff0f"/>
    </clipPath>
  </defs>
  <g id="Mask_Group_7" data-name="Mask Group 7" transform="translate(-205.484 -139.699)" clip-path="url(#clip-path)">
    <path id="Path_172" data-name="Path 172" d="M45.706-231.856c-21.622,0-34.01,15.091-34.01,37.163,0,21.848,12.388,36.938,34.01,36.938s34.01-15.091,34.01-36.938C79.716-216.765,67.329-231.856,45.706-231.856ZM30.165-80.049H53.139l96.4-149.555H126.565ZM45.706-214.063c8.334,0,13.739,7.207,13.739,19.37,0,11.937-5.406,19.145-13.739,19.145s-13.739-7.207-13.739-19.145C31.967-206.855,37.373-214.063,45.706-214.063ZM134-151.9c-21.622,0-34.01,15.091-34.01,37.163C99.987-92.887,112.375-77.8,134-77.8s34.01-15.091,34.01-36.938C168.008-136.808,155.62-151.9,134-151.9Zm0,17.793c8.334,0,13.739,7.207,13.739,19.37,0,11.937-5.406,19.145-13.739,19.145s-13.739-7.207-13.739-19.145C120.258-126.9,125.664-134.1,134-134.1Zm83.336-97.751c-21.622,0-34.01,15.091-34.01,37.163,0,21.848,12.388,36.938,34.01,36.938s34.01-15.091,34.01-36.938C251.344-216.765,238.956-231.856,217.334-231.856ZM201.793-80.049h22.974l96.4-149.555H298.192Zm15.541-134.014c8.334,0,13.739,7.207,13.739,19.37,0,11.937-5.406,19.145-13.739,19.145s-13.739-7.207-13.739-19.145C203.595-206.855,209-214.063,217.334-214.063ZM305.625-151.9c-21.622,0-34.01,15.091-34.01,37.163,0,21.848,12.388,36.938,34.01,36.938s34.01-15.091,34.01-36.938C339.635-136.808,327.247-151.9,305.625-151.9Zm0,17.793c8.334,0,13.739,7.207,13.739,19.37,0,11.937-5.406,19.145-13.739,19.145s-13.739-7.207-13.739-19.145C291.886-126.9,297.292-134.1,305.625-134.1Zm83.336-97.751c-21.622,0-34.01,15.091-34.01,37.163,0,21.848,12.388,36.938,34.01,36.938s34.01-15.091,34.01-36.938C422.971-216.765,410.584-231.856,388.961-231.856ZM373.42-80.049h22.974l96.4-149.555H469.82Zm15.541-134.014c8.334,0,13.739,7.207,13.739,19.37,0,11.937-5.406,19.145-13.739,19.145s-13.739-7.207-13.739-19.145C375.222-206.855,380.628-214.063,388.961-214.063ZM477.253-151.9c-21.622,0-34.01,15.091-34.01,37.163,0,21.848,12.388,36.938,34.01,36.938s34.01-15.091,34.01-36.938C511.263-136.808,498.875-151.9,477.253-151.9Zm0,17.793c8.334,0,13.739,7.207,13.739,19.37,0,11.937-5.406,19.145-13.739,19.145s-13.739-7.207-13.739-19.145C463.513-126.9,468.919-134.1,477.253-134.1Zm83.336-97.751c-21.622,0-34.01,15.091-34.01,37.163,0,21.848,12.388,36.938,34.01,36.938s34.01-15.091,34.01-36.938C594.6-216.765,582.211-231.856,560.589-231.856ZM545.048-80.049h22.974l96.4-149.555H641.448Zm15.541-134.014c8.334,0,13.739,7.207,13.739,19.37,0,11.937-5.406,19.145-13.739,19.145s-13.739-7.207-13.739-19.145C546.85-206.855,552.255-214.063,560.589-214.063ZM648.88-151.9c-21.622,0-34.01,15.091-34.01,37.163,0,21.848,12.388,36.938,34.01,36.938s34.01-15.091,34.01-36.938C682.89-136.808,670.5-151.9,648.88-151.9Zm0,17.793c8.334,0,13.739,7.207,13.739,19.37,0,11.937-5.406,19.145-13.739,19.145s-13.739-7.207-13.739-19.145C635.141-126.9,640.547-134.1,648.88-134.1Zm83.336-97.751c-21.622,0-34.01,15.091-34.01,37.163,0,21.848,12.388,36.938,34.01,36.938s34.01-15.091,34.01-36.938C766.227-216.765,753.839-231.856,732.216-231.856ZM716.675-80.049h22.974l96.4-149.555H813.075Zm15.541-134.014c8.334,0,13.739,7.207,13.739,19.37,0,11.937-5.406,19.145-13.739,19.145s-13.739-7.207-13.739-19.145C718.477-206.855,723.883-214.063,732.216-214.063ZM820.508-151.9c-21.622,0-34.01,15.091-34.01,37.163,0,21.848,12.388,36.938,34.01,36.938s34.01-15.091,34.01-36.938C854.518-136.808,842.13-151.9,820.508-151.9Zm0,17.793c8.334,0,13.739,7.207,13.739,19.37,0,11.937-5.406,19.145-13.739,19.145s-13.739-7.207-13.739-19.145C806.769-126.9,812.174-134.1,820.508-134.1Z" transform="translate(168.27 371.44)" fill="#fcfcfa"/>
  </g>
</svg>
