<svg id="Group_574" data-name="Group 574" xmlns="http://www.w3.org/2000/svg" xmlns:xlink="http://www.w3.org/1999/xlink" width="29.571" height="44.934" viewBox="0 0 29.571 44.934">
  <defs>
    <clipPath id="clip-path">
      <rect id="Rectangle_204" data-name="Rectangle 204" width="29.571" height="44.934" fill="none"/>
    </clipPath>
  </defs>
  <g id="Group_573" data-name="Group 573" transform="translate(0 0)" clip-path="url(#clip-path)">
    <path id="Path_1064" data-name="Path 1064" d="M25.294,27.553,19.621,26.8a.7.7,0,0,1-.61-.7V23.958a7.746,7.746,0,0,0,3.484-5.779h.036a2.809,2.809,0,0,0,.511-5.573V11.84a1.058,1.058,0,0,0-.016-.161h.913a.669.669,0,0,0,.669-.669V7.2A7.212,7.212,0,0,0,17.4,0H12.168a7.212,7.212,0,0,0-7.2,7.2V11.01a.669.669,0,0,0,.669.669H6.722a1.011,1.011,0,0,0-.016.161v.745a2.808,2.808,0,0,0,.335,5.6h.036a7.746,7.746,0,0,0,3.484,5.779V26.1a.7.7,0,0,1-.61.7l-5.673.756A4.944,4.944,0,0,0,0,32.439V44.23a.7.7,0,0,0,.7.7H28.867a.7.7,0,0,0,.7-.7V32.439a4.944,4.944,0,0,0-4.277-4.886m-5.861.64,1.1.146-3.63,3.63-1.082-1.083,3.195-2.8a2.09,2.09,0,0,0,.422.106m-1.527-1.007-3.12,2.73-3.12-2.73a2.1,2.1,0,0,0,.3-1.087v-.271a7.642,7.642,0,0,0,5.633,0V26.1a2.1,2.1,0,0,0,.3,1.087m-2,5.778-1.117,1.117-1.117-1.117,1.117-1.117Zm-.041-22.624H13.71V6.2a1.231,1.231,0,0,1,1.076-1.339A1.231,1.231,0,0,1,15.861,6.2Zm8.077,5.022a1.408,1.408,0,0,1-1.408,1.408V14.013l.01-.058a1.408,1.408,0,0,1,1.4,1.408M17.2,7.873H23.27v2.468H17.2ZM12.168,1.338H17.4a5.873,5.873,0,0,1,5.825,5.2H17.2V6.2a2.558,2.558,0,0,0-2.413-2.677A2.559,2.559,0,0,0,12.372,6.2v.335H6.343a5.873,5.873,0,0,1,5.825-5.2M6.3,7.873h6.07v2.468H6.3Zm.739,8.9a1.408,1.408,0,0,1-.01-2.816l.01.057Zm1.408.7v-3.52a2.112,2.112,0,0,1,2.112-2.112H19.01a2.112,2.112,0,0,1,2.112,2.112v3.52a6.336,6.336,0,1,1-12.673,0m1.69,10.718a2.084,2.084,0,0,0,.422-.106l3.2,2.8-1.085,1.083-3.63-3.63ZM28.163,43.526H23.939V37.189H22.53v6.337H7.041V37.189H5.633v6.337H1.408V32.439A3.534,3.534,0,0,1,3.825,29.1l1.7-.286,1.76-.234,6.794,6.792h1.408l6.8-6.8,1.76.235,1.7.289a3.534,3.534,0,0,1,2.417,3.342Z" transform="translate(0 0)" fill="#ff7133"/>
    <path id="Path_1065" data-name="Path 1065" d="M28.6,38.619h1.408a2.112,2.112,0,0,0-4.224,0h1.408a.7.7,0,1,1,1.408,0" transform="translate(-15.93 -22.552)" fill="#ff7133"/>
    <path id="Path_1066" data-name="Path 1066" d="M42.633,37.915a.7.7,0,0,1,.7.7h1.408a2.112,2.112,0,0,0-4.225,0h1.408a.7.7,0,0,1,.7-.7" transform="translate(-25.032 -22.552)" fill="#ff7133"/>
    <path id="Path_1067" data-name="Path 1067" d="M35.513,52.313A3.517,3.517,0,0,0,36.8,51.025l-1.218-.7a2.112,2.112,0,0,1-3.661,0l-1.218.7a3.52,3.52,0,0,0,4.809,1.288" transform="translate(-18.967 -31.085)" fill="#ff7133"/>
  </g>
</svg>
