<svg id="Group_572" data-name="Group 572" xmlns="http://www.w3.org/2000/svg" xmlns:xlink="http://www.w3.org/1999/xlink" width="42.972" height="44.985" viewBox="0 0 42.972 44.985">
  <defs>
    <clipPath id="clip-path">
      <rect id="Rectangle_203" data-name="Rectangle 203" width="42.972" height="44.985" fill="none"/>
    </clipPath>
  </defs>
  <rect id="Rectangle_201" data-name="Rectangle 201" width="1.459" height="1.459" transform="translate(8.022 2.917)" fill="#ff7133"/>
  <rect id="Rectangle_202" data-name="Rectangle 202" width="4.375" height="1.459" transform="translate(10.938 2.917)" fill="#ff7133"/>
  <g id="Group_571" data-name="Group 571">
    <g id="Group_570" data-name="Group 570" clip-path="url(#clip-path)">
      <path id="Path_1061" data-name="Path 1061" d="M26.132,85.417h2.917a2.188,2.188,0,1,0,0-4.375H26.132a2.188,2.188,0,1,0,0,4.375m0-2.917h2.917a.729.729,0,0,1,0,1.459H26.132a.729.729,0,0,1,0-1.459" transform="translate(-14.464 -48.957)" fill="#ff7133"/>
      <path id="Path_1062" data-name="Path 1062" d="M27.974,33.5h1.459a.729.729,0,0,1,.729.729H31.62a2.188,2.188,0,0,0-2.187-2.188v-.729H27.974v.729a2.188,2.188,0,1,0,0,4.375h1.459a.729.729,0,0,1,0,1.459H27.974a.729.729,0,0,1-.729-.729H25.786a2.188,2.188,0,0,0,2.188,2.188v.729h1.459v-.729a2.188,2.188,0,0,0,0-4.375H27.974a.729.729,0,1,1,0-1.459" transform="translate(-15.577 -18.915)" fill="#ff7133"/>
      <path id="Path_1063" data-name="Path 1063" d="M41.806,33.762a28.206,28.206,0,0,0-2.683-6.329l-1.6-2.771a3.646,3.646,0,0,0-4.98-1.335l-.635.365a3.655,3.655,0,0,0-3.252.2l-.642.372a3.708,3.708,0,0,0-1.757-.277V5.1a5.111,5.111,0,0,0-5.1-5.1H5.1A5.11,5.11,0,0,0,0,5.1V34.273a5.11,5.11,0,0,0,5.1,5.1H21.148c.19,0,.379-.015.569-.029a12.689,12.689,0,0,0,4.1,3.464,11.253,11.253,0,0,1,2.866,2.173l1.058-1.006a12.781,12.781,0,0,0-3.238-2.45,11.263,11.263,0,0,1-4.47-4.317l-1.561-2.705a3.637,3.637,0,0,1,.744-4.55l3.245,5.615,1.261-.729L18.063,21.577a1.421,1.421,0,0,1-.146-1.1,1.487,1.487,0,0,1,.737-.919,1.394,1.394,0,0,1,1.9.51l6.956,12.054,1.262-.729-3.282-5.681a2.184,2.184,0,0,1,2.984.793l.005.01L30.67,30.3l1.262-.729-2.188-3.785a3.546,3.546,0,0,0-.423-.6l.058-.036a2.209,2.209,0,0,1,2.187,0,2.112,2.112,0,0,1,.8.8l1.824,3.157,1.261-.729-1.823-3.157a3.4,3.4,0,0,0-.43-.591l.065-.044a2.2,2.2,0,0,1,2.99.8l1.6,2.771a26.869,26.869,0,0,1,2.545,6,22.257,22.257,0,0,0,1.248,3.34l1.32-.627A20.84,20.84,0,0,1,41.806,33.762ZM20.294,18.092a1.165,1.165,0,0,0-.2-.08,2.938,2.938,0,0,0-3.3,4.3l.328.569a7.214,7.214,0,0,1-4,1.189,7.315,7.315,0,1,1,7.168-5.972m4.5,6.344c-.008.007-.015.007-.03.015l-2.946-5.112a2.717,2.717,0,0,0-.233-.328,8.94,8.94,0,0,0,.292-2.239,8.751,8.751,0,1,0-4.026,7.365l2.625,4.543a5.1,5.1,0,0,0-1.269,6.555l1.546,2.683H5.1a3.646,3.646,0,0,1-3.646-3.646V5.1A3.646,3.646,0,0,1,5.1,1.459H21.148A3.646,3.646,0,0,1,24.793,5.1Z" fill="#ff7133"/>
    </g>
  </g>
</svg>
