<svg id="Grupo_1064" data-name="Grupo 1064" xmlns="http://www.w3.org/2000/svg" xmlns:xlink="http://www.w3.org/1999/xlink" width="50.707" height="44.714" viewBox="0 0 50.707 44.714">
  <defs>
    <clipPath id="clip-path">
      <rect id="Retângulo_600" data-name="Retângulo 600" width="50.707" height="44.714" fill="none"/>
    </clipPath>
  </defs>
  <g id="Grupo_1044" data-name="Grupo 1044" clip-path="url(#clip-path)">
    <path id="Caminho_1322" data-name="Caminho 1322" d="M36.445,77.455H17.6v-.879a.88.88,0,0,0-.879-.879H14.963v-.879H23.77a.88.88,0,0,0,.86-1.064L21.8,60.56a.88.88,0,0,0-.86-.695H3.712a.88.88,0,0,0-.859.695L.02,73.752a.88.88,0,0,0,.86,1.064H9.686V75.7H7.927a.88.88,0,0,0-.88.879v.879H5.288v1.759H7.047v.879a.88.88,0,0,0,.88.879H9.686v.879H6.168v1.759H18.481V81.853H14.963v-.879h1.759a.88.88,0,0,0,.879-.879v-.879H37.324a.88.88,0,0,0,.88-.879V73.766H36.445ZM8.111,66.022h3.334V68.66H7.759ZM5.984,68.66H2.914l.567-2.638H6.336Zm15.751,0H18.665l-.352-2.638H21.17Zm-4.847,0H13.2V66.022h3.334Zm.235,1.759.352,2.638H13.2V70.419ZM13.2,64.262V61.624h2.748l.352,2.638Zm-1.759,0h-3.1L8.7,61.624h2.748Zm0,6.157v2.638H7.172l.352-2.638Zm7.806,2.638L18.9,70.419h3.215l.567,2.638Zm1.541-8.8H18.078l-.352-2.638h2.5ZM6.923,61.624l-.352,2.638H3.857l.567-2.638Zm-4.388,8.8H5.749L5.4,73.058H1.968Zm6.272,7.036h.879v1.759H8.807Zm2.638-2.638H13.2v7.036H11.445Zm4.4,4.4h-.879V77.455h.879Z" transform="translate(0 -38.897)" fill="#ff7133"/>
    <path id="Caminho_1323" data-name="Caminho 1323" d="M26.4,20.6a5.277,5.277,0,1,0-5.277-5.277A5.277,5.277,0,0,0,26.4,20.6m0-8.8a3.518,3.518,0,1,1-3.518,3.518A3.518,3.518,0,0,1,26.4,11.8" transform="translate(-13.724 -6.526)" fill="#ff7133"/>
    <rect id="Retângulo_592" data-name="Retângulo 592" width="1.759" height="1.759" transform="translate(11.795 0)" fill="#ff7133"/>
    <rect id="Retângulo_593" data-name="Retângulo 593" width="1.759" height="1.759" transform="matrix(0.707, -0.707, 0.707, 0.707, 5.834, 3.197)" fill="#ff7133"/>
    <rect id="Retângulo_594" data-name="Retângulo 594" width="1.759" height="1.759" transform="translate(3.88 7.915)" fill="#ff7133"/>
    <rect id="Retângulo_595" data-name="Retângulo 595" width="1.759" height="1.759" transform="matrix(0.707, -0.707, 0.707, 0.707, 5.834, 14.392)" fill="#ff7133"/>
    <rect id="Retângulo_596" data-name="Retângulo 596" width="1.759" height="1.759" transform="translate(11.795 15.831)" fill="#ff7133"/>
    <rect id="Retângulo_597" data-name="Retângulo 597" width="1.759" height="1.759" transform="matrix(0.707, -0.707, 0.707, 0.707, 17.028, 14.392)" fill="#ff7133"/>
    <rect id="Retângulo_598" data-name="Retângulo 598" width="1.759" height="1.759" transform="translate(19.711 7.915)" fill="#ff7133"/>
    <rect id="Retângulo_599" data-name="Retângulo 599" width="1.759" height="1.759" transform="translate(17.028 3.197) rotate(-45)" fill="#ff7133"/>
    <path id="Caminho_1324" data-name="Caminho 1324" d="M94.5,37.673h-1.36V37.4a.817.817,0,0,0-.435-.723l-6.871-3.6-.4-4.108h.953v1.675h1.637V28.966h1.1v1.675h1.637V28.966h2.108a.816.816,0,0,0,0-1.633h-1.9v-.272a.816.816,0,0,0-.478-.743L85.2,23.92l.8-2a.816.816,0,0,0-.756-1.119h-6.53a.816.816,0,0,0-.758,1.119l.8,2-5.278,2.4a.816.816,0,0,0-.476.743v.272H71.1a.816.816,0,0,0,0,1.633h2.115v1.675h1.637V28.966h1.1v1.675h1.637V28.966h.945l-.4,4.108-6.871,3.6a.816.816,0,0,0-.435.723v.272h-1.36a.816.816,0,0,0,0,1.633h2.977v1.733h1.637V39.305h1.1v1.733h1.637V39.305h.708l-.634,6.5H72.721v1.7H91.193V45.8H87.07l-.634-6.5h.7v1.737h1.637V39.305h1.1v1.737h1.637V39.305H94.5a.816.816,0,0,0,0-1.633M88.768,27.334h-3.5l-.164-1.664Zm-4.729-4.9L83.6,23.525H80.356l-.435-1.088Zm-.411,4.9h-3.3l.213-2.176h2.872Zm-3.453,1.633h3.614l.372,3.809H79.8Zm-.535,5.441h4.68l.319,3.265H79.323Zm-4.449-7.074,3.662-1.664-.162,1.664ZM72.879,37.673l5.06-2.656-.259,2.656Zm5.65,8.132.634-6.5H84.8l.634,6.5Zm7.75-8.132-.261-2.656,5.062,2.656Z" transform="translate(-44.604 -13.517)" fill="#ff7133" fill-rule="evenodd"/>
  </g>
</svg>
