<svg id="Grupo_1065" data-name="Grupo 1065" xmlns="http://www.w3.org/2000/svg" xmlns:xlink="http://www.w3.org/1999/xlink" width="28.907" height="54.2" viewBox="0 0 28.907 54.2">
  <defs>
    <clipPath id="clip-path">
      <rect id="Retângulo_610" data-name="Retângulo 610" width="28.907" height="54.2" fill="none"/>
    </clipPath>
  </defs>
  <rect id="Retângulo_601" data-name="Retângulo 601" width="3.614" height="1.807" transform="translate(25.293 13.55)" fill="#ff7133"/>
  <rect id="Retângulo_602" data-name="Retângulo 602" width="3.613" height="1.807" transform="matrix(0.866, -0.5, 0.5, 0.866, 23.389, 8.251)" fill="#ff7133"/>
  <rect id="Retângulo_603" data-name="Retângulo 603" width="3.613" height="1.807" transform="translate(19.091 4.614) rotate(-60.008)" fill="#ff7133"/>
  <rect id="Retângulo_604" data-name="Retângulo 604" width="1.807" height="3.613" transform="translate(13.55 0)" fill="#ff7133"/>
  <rect id="Retângulo_605" data-name="Retângulo 605" width="1.807" height="3.613" transform="translate(6.444 2.388) rotate(-29.994)" fill="#ff7133"/>
  <rect id="Retângulo_606" data-name="Retângulo 606" width="1.807" height="3.613" transform="matrix(0.5, -0.866, 0.866, 0.5, 1.485, 8.009)" fill="#ff7133"/>
  <rect id="Retângulo_607" data-name="Retângulo 607" width="3.614" height="1.807" transform="translate(0 13.55)" fill="#ff7133"/>
  <rect id="Retângulo_608" data-name="Retângulo 608" width="3.613" height="1.807" transform="translate(1.485 20.897) rotate(-30)" fill="#ff7133"/>
  <rect id="Retângulo_609" data-name="Retângulo 609" width="1.807" height="3.613" transform="matrix(0.5, -0.866, 0.866, 0.5, 23.389, 20.656)" fill="#ff7133"/>
  <g id="Grupo_1047" data-name="Grupo 1047">
    <g id="Grupo_1046" data-name="Grupo 1046" clip-path="url(#clip-path)">
      <path id="Caminho_1325" data-name="Caminho 1325" d="M28,53.012H16.019a20.471,20.471,0,0,1,3.274-3.83,4.509,4.509,0,0,0,6.329-.048c2.119-2.119,2.181-7.1,2.181-7.664a.9.9,0,0,0-.9-.9c-.561,0-5.545.061-7.665,2.18a4.516,4.516,0,0,0-.976,4.921,24.186,24.186,0,0,0-2.9,3.141V40.365h1.806a.9.9,0,0,0,.9-.9V37.655a.9.9,0,0,0,.9-.9V31.92a9.033,9.033,0,1,0-9.033,0v4.832a.9.9,0,0,0,.9.9v1.807a.9.9,0,0,0,.9.9H13.55v5.111a23.311,23.311,0,0,0-3.688-3.605,4.505,4.505,0,0,0-1.094-4.545c-2.12-2.119-7.1-2.18-7.665-2.18a.9.9,0,0,0-.9.9c0,.561.061,5.545,2.181,7.665a4.522,4.522,0,0,0,6.387,0c.074-.074.126-.16.193-.237A17.66,17.66,0,0,1,13.55,48.73v4.282H.9a.9.9,0,0,0-.9.9v3.613a.9.9,0,0,0,.9.9h.9v4.517a.9.9,0,0,0,.9.9H26.2a.9.9,0,0,0,.9-.9V58.431H28a.9.9,0,0,0,.9-.9V53.915a.9.9,0,0,0-.9-.9m-7.491-8.988c1.1-1.1,3.785-1.505,5.45-1.615-.11,1.664-.511,4.342-1.617,5.448a2.71,2.71,0,0,1-3.678.128,27.71,27.71,0,0,1,3.271-2.318l-.9-1.569a28.419,28.419,0,0,0-3.276,2.285,2.705,2.705,0,0,1,.753-2.359m-8.769-9.078h5.42v.9h-5.42Zm1.807-6.489a2.711,2.711,0,0,1-1.807-2.544c0-1.56,1.613-3.741,2.71-5,1.1,1.254,2.71,3.433,2.71,5a2.71,2.71,0,0,1-1.806,2.544V24.1H13.55ZM7.227,24.131a7.226,7.226,0,1,1,10.435,6.437.9.9,0,0,0-.5.808v1.763h-1.8v-2.8a4.524,4.524,0,0,0,3.613-4.426c0-3-3.482-6.566-3.878-6.962a.9.9,0,0,0-1.277,0c-.4.4-3.878,3.965-3.878,6.962a4.525,4.525,0,0,0,3.614,4.426v2.8H11.743V31.38a.9.9,0,0,0-.5-.808,7.191,7.191,0,0,1-4.015-6.441m5.42,13.524H16.26v.9H12.647ZM7.491,42.436a2.715,2.715,0,0,1-3.833,0c-1.1-1.1-1.505-3.785-1.616-5.45,1.664.11,4.342.511,5.449,1.617a2.692,2.692,0,0,1,.776,2.083A29.946,29.946,0,0,0,4.92,38.649l-.809,1.616a30,30,0,0,1,3.418,2.12.36.36,0,0,1-.038.051m17.8,19.609H3.613V58.431h21.68Zm1.807-5.42H1.807V54.818H27.1Z" transform="translate(0 -9.652)" fill="#ff7133"/>
    </g>
  </g>
</svg>
