<svg id="Group_564" data-name="Group 564" xmlns="http://www.w3.org/2000/svg" xmlns:xlink="http://www.w3.org/1999/xlink" width="42.41" height="42.639" viewBox="0 0 42.41 42.639">
  <defs>
    <clipPath id="clip-path">
      <rect id="Rectangle_179" data-name="Rectangle 179" width="42.41" height="42.639" fill="none"/>
    </clipPath>
  </defs>
  <g id="Group_563" data-name="Group 563" clip-path="url(#clip-path)">
    <path id="Path_1052" data-name="Path 1052" d="M28.317,28.421a1.427,1.427,0,0,0-1.366-1.031H6.7a1.425,1.425,0,0,0-1.366,1.031L.055,46.9A1.421,1.421,0,0,0,1.424,48.71h11.85v1.421H11.852a.711.711,0,0,0-.711.711v.711H9.72v1.421h1.421v.711a.711.711,0,0,0,.711.711h1.421v1.421H11.852a.711.711,0,0,0-.711.711V59.37a.711.711,0,0,0,.711.711H21.8a.711.711,0,0,0,.711-.711V56.527a.711.711,0,0,0-.711-.711H20.38V54.395H21.8a.711.711,0,0,0,.711-.711v-.711h1.421V51.552H22.512v-.711a.711.711,0,0,0-.711-.711H20.38V48.71H32.229A1.421,1.421,0,0,0,33.6,46.9Zm1.07,8.918H24.549l-.507-3.553h4.33Zm-6.273,0H17.537V33.786h5.069Zm-5.576-4.974V28.811H21.9l.507,3.553Zm-1.421,0H11.25l.507-3.553h4.359Zm0,1.421v3.553H10.539l.507-3.553ZM9.1,37.339H4.266l1.015-3.553h4.33ZM8.9,38.76l-.507,3.553H2.845L3.86,38.76Zm1.436,0h5.78v3.553H9.829Zm5.78,4.975v3.553h-7l.507-3.553Zm1.421,0h6.49l.507,3.553h-7Zm0-1.421V38.76h5.78l.507,3.553Zm7.215-3.553h5.041l1.015,3.553H25.26Zm3.213-6.4H23.839l-.507-3.553h3.62ZM6.7,28.811h3.619l-.507,3.553H5.687ZM2.439,43.735H8.19l-.507,3.553H1.424Zm10.124,7.817h.711v1.421h-.711Zm8.528,7.107H12.563V57.237h8.528Zm0-5.685H20.38V51.552h.711Zm-2.132,2.843H14.695V48.71h4.264Zm7.012-8.528-.507-3.553h5.752l1.015,3.553Z" transform="translate(0 -17.441)" fill="#ff7133"/>
    <path id="Path_1053" data-name="Path 1053" d="M89.715,7.826a4.264,4.264,0,1,0,4.264,4.264,4.264,4.264,0,0,0-4.264-4.264m0,7.107a2.843,2.843,0,1,1,2.843-2.843,2.843,2.843,0,0,1-2.843,2.843" transform="translate(-54.411 -4.983)" fill="#ff7133"/>
    <rect id="Rectangle_171" data-name="Rectangle 171" width="1.421" height="1.421" transform="translate(34.593)" fill="#ff7133"/>
    <rect id="Rectangle_172" data-name="Rectangle 172" width="1.421" height="1.421" transform="matrix(0.707, -0.707, 0.707, 0.707, 29.776, 2.584)" fill="#ff7133"/>
    <rect id="Rectangle_173" data-name="Rectangle 173" width="1.421" height="1.421" transform="translate(28.197 6.396)" fill="#ff7133"/>
    <rect id="Rectangle_174" data-name="Rectangle 174" width="1.421" height="1.421" transform="translate(29.776 11.629) rotate(-45)" fill="#ff7133"/>
    <rect id="Rectangle_175" data-name="Rectangle 175" width="1.421" height="1.421" transform="translate(34.593 12.792)" fill="#ff7133"/>
    <rect id="Rectangle_176" data-name="Rectangle 176" width="1.421" height="1.421" transform="translate(38.821 11.629) rotate(-45)" fill="#ff7133"/>
    <rect id="Rectangle_177" data-name="Rectangle 177" width="1.421" height="1.421" transform="translate(40.989 6.396)" fill="#ff7133"/>
    <rect id="Rectangle_178" data-name="Rectangle 178" width="1.421" height="1.421" transform="translate(38.821 2.584) rotate(-45)" fill="#ff7133"/>
  </g>
</svg>
