<svg id="Group_566" data-name="Group 566" xmlns="http://www.w3.org/2000/svg" xmlns:xlink="http://www.w3.org/1999/xlink" width="41.563" height="41.563" viewBox="0 0 41.563 41.563">
  <defs>
    <clipPath id="clip-path">
      <rect id="Rectangle_184" data-name="Rectangle 184" width="41.563" height="41.563" fill="none"/>
    </clipPath>
  </defs>
  <g id="Group_565" data-name="Group 565" clip-path="url(#clip-path)">
    <path id="Path_1054" data-name="Path 1054" d="M38.1,0H25.63a3.467,3.467,0,0,0-3.464,3.464V25.63a3.467,3.467,0,0,0,3.464,3.464H28.4v1.385a1.386,1.386,0,0,0,1.385,1.385h1.385V38.1a2.078,2.078,0,0,1-2.078,2.078H11.776A2.078,2.078,0,0,1,9.7,38.1V33.25h.693a1.385,1.385,0,0,0,1.385-1.385V29.094h4.156a2.078,2.078,0,0,0,2.078-2.078V2.078A2.078,2.078,0,0,0,15.932,0H2.078A2.078,2.078,0,0,0,0,2.078V27.016a2.078,2.078,0,0,0,2.078,2.078H6.234v2.771A1.385,1.385,0,0,0,7.62,33.25h.693V38.1a3.467,3.467,0,0,0,3.464,3.464H29.094A3.468,3.468,0,0,0,32.557,38.1V31.865h1.385a1.386,1.386,0,0,0,1.385-1.385V29.094H38.1a3.468,3.468,0,0,0,3.464-3.464V3.464A3.468,3.468,0,0,0,38.1,0M5.542,1.385h6.927v.693a.693.693,0,0,1-.693.693H6.234a.693.693,0,0,1-.693-.693ZM1.385,27.016V2.078a.693.693,0,0,1,.693-.693H4.156v.693A2.078,2.078,0,0,0,6.234,4.156h5.542a2.078,2.078,0,0,0,2.078-2.078V1.385h2.078a.693.693,0,0,1,.693.693V27.016a.693.693,0,0,1-.693.693H2.078a.693.693,0,0,1-.693-.693M7.62,29.094h2.771v2.771H7.62Zm26.323,1.385H29.786V29.094h4.156Zm6.235-4.849A2.078,2.078,0,0,1,38.1,27.708H25.63a2.078,2.078,0,0,1-2.078-2.078V3.464A2.078,2.078,0,0,1,25.63,1.385H38.1a2.078,2.078,0,0,1,2.078,2.078Z" fill="#ff7133"/>
    <path id="Path_1055" data-name="Path 1055" d="M20.622,27.511h-.693V26.126a.693.693,0,0,0-.693-.693H16.466a.693.693,0,0,0-.693.693v1.385H15.08A1.386,1.386,0,0,0,13.695,28.9v8.313a1.386,1.386,0,0,0,1.385,1.385h5.542a1.386,1.386,0,0,0,1.385-1.385V28.9a1.386,1.386,0,0,0-1.385-1.385m-3.464-.693h1.385v.693H17.159ZM15.08,28.9h5.542v8.313H15.08Z" transform="translate(-8.846 -16.428)" fill="#ff7133"/>
    <rect id="Rectangle_180" data-name="Rectangle 180" width="2.771" height="1.385" transform="translate(7.62 18.01)" fill="#ff7133"/>
    <path id="Path_1056" data-name="Path 1056" d="M85.876,26.492H84.491V20.258a.693.693,0,0,0-1.26-.4l-4.849,6.927a.693.693,0,0,0,.567,1.09h2.078v6.234a.693.693,0,0,0,1.286.357l4.156-6.927a.693.693,0,0,0-.593-1.049m-3.464,5.119V27.185a.693.693,0,0,0-.693-.693H80.279l2.826-4.037v4.73a.693.693,0,0,0,.693.693h.855Z" transform="translate(-50.548 -12.638)" fill="#ff7133"/>
    <rect id="Rectangle_181" data-name="Rectangle 181" width="1.385" height="1.385" transform="translate(28.401 24.937)" fill="#ff7133"/>
    <rect id="Rectangle_182" data-name="Rectangle 182" width="1.385" height="1.385" transform="translate(31.172 24.937)" fill="#ff7133"/>
    <rect id="Rectangle_183" data-name="Rectangle 183" width="1.385" height="1.385" transform="translate(33.943 24.937)" fill="#ff7133"/>
  </g>
</svg>
