<svg id="Grupo_1063" data-name="Grupo 1063" xmlns="http://www.w3.org/2000/svg" xmlns:xlink="http://www.w3.org/1999/xlink" width="44.994" height="49.7" viewBox="0 0 44.994 49.7">
  <defs>
    <clipPath id="clip-path">
      <rect id="Retângulo_590" data-name="Retângulo 590" width="44.994" height="49.7" fill="none"/>
    </clipPath>
  </defs>
  <g id="Grupo_1039" data-name="Grupo 1039" clip-path="url(#clip-path)">
    <path id="Caminho_1315" data-name="Caminho 1315" d="M48.192,35.893v-.82a2.46,2.46,0,0,0,0-4.921h-1.64a.82.82,0,0,1,0-1.64h1.64a.82.82,0,0,1,.82.82h1.64a2.46,2.46,0,0,0-2.46-2.461v-.82h-1.64v.82a2.46,2.46,0,0,0,0,4.921h1.64a.82.82,0,1,1,0,1.64h-1.64a.82.82,0,0,1-.82-.82h-1.64a2.46,2.46,0,0,0,2.46,2.46v.82Z" transform="translate(-28.801 -17.017)" fill="#ff7133"/>
    <path id="Caminho_1316" data-name="Caminho 1316" d="M46.305,24.794a8.2,8.2,0,1,0-8.2,8.2,8.2,8.2,0,0,0,8.2-8.2m-14.762,0A6.561,6.561,0,1,1,38.1,31.355a6.561,6.561,0,0,1-6.561-6.561" transform="translate(-19.533 -10.839)" fill="#ff7133"/>
    <path id="Caminho_1317" data-name="Caminho 1317" d="M44.636,82.56a3.246,3.246,0,0,0-2.752-1.786,3.178,3.178,0,0,0-.422.017c-.007-.013-.009-.027-.016-.04a3.288,3.288,0,0,0-4.415-1.435l-.964.492a3.29,3.29,0,0,0-3.949-.75l-.976.5a3.25,3.25,0,0,0-3.936-.756l-9.058,4.615a8.112,8.112,0,0,1-9.185-1.291l-3.076-2.87a3.5,3.5,0,0,0-4.945.172h0A3.5,3.5,0,0,0,.7,83.911l4.35,5.8a4.679,4.679,0,0,1,.312,5.147L2.526,99.794l1.421.82,2.837-4.93a6.315,6.315,0,0,0-.421-6.948L2.011,82.929a1.859,1.859,0,0,1,1.423-2.974,1.884,1.884,0,0,1,1.332.5l3.076,2.87a9.759,9.759,0,0,0,11.05,1.552l9.058-4.615a1.64,1.64,0,0,1,1.488,2.923L20.957,87.5l.745,1.461,8.482-4.322a3.247,3.247,0,0,0,1.7-3.623l.976-.5a1.661,1.661,0,0,1,.832-.175,1.64,1.64,0,0,1,.656,3.1l-9.935,5.062.745,1.461L35.1,84.907A3.245,3.245,0,0,0,36.8,81.274l.973-.5a1.641,1.641,0,0,1,1.49,2.925l-9.937,5.064.745,1.461,9.937-5.064a3.194,3.194,0,0,0,1.778-2.75h.01a1.64,1.64,0,0,1,.656,3.1L28.438,92.632a23.882,23.882,0,0,0-8.5,7.262l1.329.961a22.247,22.247,0,0,1,7.911-6.761L43.2,86.974a3.28,3.28,0,0,0,1.437-4.411v0" transform="translate(0 -51.155)" fill="#ff7133"/>
    <path id="Caminho_1318" data-name="Caminho 1318" d="M39.8,42.483l2.259-1.9a12.294,12.294,0,0,1-23.209,3.487l-1.476.719A13.933,13.933,0,0,0,43.7,40.742l1.886,2.244,1.256-1.054L43.675,38.16a.831.831,0,0,0-1.163-.1l-3.772,3.163Z" transform="translate(-11.346 -24.736)" fill="#ff7133"/>
    <path id="Caminho_1319" data-name="Caminho 1319" d="M8.572,14.775a.822.822,0,0,0,.527-.192l3.772-3.163-1.054-1.256-2.262,1.9A12.293,12.293,0,0,1,32.765,8.574l1.476-.718A13.934,13.934,0,0,0,7.921,11.9L6.034,9.66,4.781,10.713l3.163,3.772A.82.82,0,0,0,8.572,14.775Z" transform="translate(-3.123 0)" fill="#ff7133"/>
  </g>
</svg>
