<svg id="Group_576" data-name="Group 576" xmlns="http://www.w3.org/2000/svg" xmlns:xlink="http://www.w3.org/1999/xlink" width="40.501" height="40.618" viewBox="0 0 40.501 40.618">
  <defs>
    <clipPath id="clip-path">
      <rect id="Rectangle_205" data-name="Rectangle 205" width="40.501" height="40.618" fill="none"/>
    </clipPath>
  </defs>
  <g id="Group_575" data-name="Group 575" clip-path="url(#clip-path)">
    <path id="Path_1068" data-name="Path 1068" d="M12.826,43.345A12.825,12.825,0,1,0,25.651,56.17,12.825,12.825,0,0,0,12.826,43.345M13.7,44.74l-2.1,2.938a.673.673,0,0,0-.126.392v2.7a.676.676,0,0,0,.409.621L16.2,53.24v1.58a.674.674,0,0,0,.27.54l2.43,1.823v2.138l-1.891,2.52a.676.676,0,0,0,.063.882l2.619,2.619a11.4,11.4,0,0,1-5.517,2.217V65.621a.676.676,0,0,0,.3-.068l1.35-.675a.676.676,0,0,0,.374-.608V62.246a.675.675,0,0,0-.2-.477l-1.35-1.35a.674.674,0,0,0-.477-.2h-2.7a.675.675,0,0,0-.477.2l-1.35,1.35a.675.675,0,0,0-.2.477v2.025a.677.677,0,0,0,.113.375L10.8,66.5v.956a11.409,11.409,0,0,1-4.455-1.823l.883-.883a.676.676,0,0,0,.2-.478V61.68L7.987,60l3.162-1.9a.676.676,0,0,0,.327-.578v-2.7a.676.676,0,0,0-.2-.477L9.45,52.516V50.1a.67.67,0,0,0-.071-.3l-1.35-2.7a.68.68,0,0,0-.183-.225l-.769-.614A11.391,11.391,0,0,1,12.826,44.7c.295,0,.583.022.873.045M1.35,56.17A11.45,11.45,0,0,1,5.9,47.041l.984.788L8.1,50.255V52.8a.675.675,0,0,0,.2.477L10.125,55.1v2.038L7.077,58.967a.675.675,0,0,0-.292.365L6.11,61.357a.673.673,0,0,0-.035.214v2.421l-.8.8A11.444,11.444,0,0,1,1.35,56.17m10.8,11.441V66.3a.678.678,0,0,0-.114-.375L10.8,64.068V62.525l.954-.954H13.9l.954.954v1.328l-.835.417H13.5a.675.675,0,0,0-.674.675v2.7c-.229,0-.45-.021-.675-.035m8.578-3.142-2.287-2.287,1.674-2.232a.675.675,0,0,0,.135-.405v-2.7a.675.675,0,0,0-.27-.54l-2.43-1.823V52.8a.674.674,0,0,0-.409-.62l-4.316-1.85V48.286l2.382-3.338a11.456,11.456,0,0,1,5.52,19.521" transform="translate(0 -28.378)" fill="#ff7133"/>
    <path id="Path_1069" data-name="Path 1069" d="M76.507,92.789l-2.025,2.025a.675.675,0,0,0,0,.954l2.025,2.025.954-.954-1.548-1.548,1.548-1.548Z" transform="translate(-48.633 -60.748)" fill="#ff7133"/>
    <path id="Path_1070" data-name="Path 1070" d="M94.183,37.48V53.006h-1.35V42.88h-1.35V53.006H86.758v1.35h4.725v4.05H84.058v1.35h8.1a.675.675,0,0,0,.675-.675V54.355h2.025a.675.675,0,0,0,.675-.675V37.48Z" transform="translate(-55.032 -24.538)" fill="#ff7133"/>
    <path id="Path_1071" data-name="Path 1071" d="M84.327,77.15,82.3,79.175a.675.675,0,0,0,0,.954l2.025,2.025.954-.954-1.548-1.548L85.281,78.1Z" transform="translate(-53.753 -50.51)" fill="#ff7133"/>
    <path id="Path_1072" data-name="Path 1072" d="M79.009,23.472a4.725,4.725,0,1,0-4.725-4.725,4.725,4.725,0,0,0,4.725,4.725m0-8.1a3.375,3.375,0,1,1-3.375,3.375,3.375,3.375,0,0,1,3.375-3.375" transform="translate(-48.633 -9.18)" fill="#ff7133"/>
    <path id="Path_1073" data-name="Path 1073" d="M63.552,6.982,60.509,9.007a.675.675,0,0,0,0,1.125l3.043,2.025-.721,3.582a.674.674,0,0,0,.794.795l3.583-.721,2.025,3.043a.675.675,0,0,0,1.125,0l2.025-3.043,3.583.721a.675.675,0,0,0,.794-.794l-.721-3.583,3.043-2.025a.675.675,0,0,0,0-1.125L76.04,6.982,76.761,3.4a.674.674,0,0,0-.794-.795l-3.588.721L70.353.282a.7.7,0,0,0-1.125,0L67.2,3.326,63.626,2.6a.674.674,0,0,0-.794.794Zm1.414.178-.611-3.032,3.032.608a.675.675,0,0,0,.7-.288l1.711-2.572L71.505,4.45a.674.674,0,0,0,.7.288l3.032-.607-.611,3.032a.674.674,0,0,0,.288.7l2.575,1.709L74.91,11.278a.675.675,0,0,0-.288.7l.611,3.032L72.2,14.4a.675.675,0,0,0-.7.288l-1.711,2.572-1.711-2.575a.675.675,0,0,0-.7-.288L64.355,15l.611-3.032a.676.676,0,0,0-.288-.7L62.1,9.567l2.575-1.711a.675.675,0,0,0,.288-.7" transform="translate(-39.418 0)" fill="#ff7133"/>
    <path id="Path_1074" data-name="Path 1074" d="M21.076,30.233l-.954.954,2.025,2.025a.676.676,0,0,0,.954,0l2.025-2.025-.954-.954-1.548,1.548Z" transform="translate(-13.174 -19.793)" fill="#ff7133"/>
    <path id="Path_1075" data-name="Path 1075" d="M11.124,4.388h4.05v6.075h1.35V4.388H26.65V3.038H16.524V1.688h12.15V.338H15.849a.675.675,0,0,0-.675.675V3.038H10.449a.675.675,0,0,0-.675.675v9.45h1.35Z" transform="translate(-6.399 -0.221)" fill="#ff7133"/>
    <path id="Path_1076" data-name="Path 1076" d="M6.984,41.229a.674.674,0,0,0,.477-.2l2.025-2.025-.955-.955L6.984,39.6,5.437,38.052l-.955.955,2.025,2.025a.674.674,0,0,0,.477.2" transform="translate(-2.934 -24.912)" fill="#ff7133"/>
  </g>
</svg>
