<svg xmlns="http://www.w3.org/2000/svg" xmlns:xlink="http://www.w3.org/1999/xlink" width="367.285" height="61.544" viewBox="0 0 367.285 61.544">
  <defs>
    <clipPath id="clip-path">
      <rect id="Rectangle_4" data-name="Rectangle 4" width="367.285" height="61.544" fill="none"/>
    </clipPath>
  </defs>
  <g id="Group_2" data-name="Group 2" transform="translate(0 0)">
    <g id="Group_1" data-name="Group 1" transform="translate(0 0)" clip-path="url(#clip-path)">
      <path id="Path_1" data-name="Path 1" d="M202.892,15.66c.423,2.444,2.508,3.877,5.54,3.877a7.763,7.763,0,0,0,5.507-1.987h.163v3.422a9.664,9.664,0,0,1-5.8,1.6c-5.344,0-8.928-3.193-8.928-7.951a7.64,7.64,0,0,1,7.951-7.984c4.725,0,7.722,2.868,7.722,7.332V15.66Zm0-2.575h8.961C211.56,11,209.8,9.663,207.421,9.663a4.485,4.485,0,0,0-4.529,3.422" transform="translate(29.4 0.978)" fill="#e1ff0f"/>
      <path id="Path_2" data-name="Path 2" d="M230.1,13.28v8.961h-3.454V13.672c0-2.51-1.336-3.944-3.553-3.944-2.443,0-3.909,1.663-3.909,4.5v8.016h-3.455V6.958h2.9l.13,2.347h.065a5.509,5.509,0,0,1,5.149-2.671c3.813,0,6.126,2.476,6.126,6.647" transform="translate(31.812 0.978)" fill="#e1ff0f"/>
      <path id="Path_3" data-name="Path 3" d="M234.214,15.66c.423,2.444,2.51,3.877,5.54,3.877a7.761,7.761,0,0,0,5.507-1.987h.163v3.422a9.664,9.664,0,0,1-5.8,1.6c-5.344,0-8.928-3.193-8.928-7.951a7.64,7.64,0,0,1,7.951-7.984c4.725,0,7.724,2.868,7.724,7.332V15.66Zm0-2.575h8.962c-.294-2.086-2.053-3.422-4.431-3.422a4.485,4.485,0,0,0-4.53,3.422" transform="translate(34.019 0.978)" fill="#e1ff0f"/>
      <path id="Path_4" data-name="Path 4" d="M257.153,7.219v3.422h-.163a4.145,4.145,0,0,0-2.411-.717c-2.738,0-4.074,1.826-4.074,5.54v6.778h-3.454V6.959h2.9l.13,2.347h.065a4.829,4.829,0,0,1,4.725-2.672,4.247,4.247,0,0,1,2.281.586" transform="translate(36.431 0.978)" fill="#e1ff0f"/>
      <path id="Path_5" data-name="Path 5" d="M273,21c0,4.824-3.128,7.756-8.342,7.756a9.9,9.9,0,0,1-6.289-1.858V23.317h.163a7.3,7.3,0,0,0,5.7,2.347c3.422,0,5.31-1.76,5.31-4.856V20.45h-.064a6.669,6.669,0,0,1-5.018,1.922c-4.367,0-7.561-3.226-7.561-7.853s3.193-7.885,7.561-7.885a6.474,6.474,0,0,1,5.507,2.51h.065l.1-2.184H273Zm-3.356-6.484a4.63,4.63,0,1,0-9.254,0,4.629,4.629,0,1,0,9.254,0" transform="translate(37.884 0.978)" fill="#e1ff0f"/>
      <path id="Path_6" data-name="Path 6" d="M278.456,3.056a2.2,2.2,0,0,1-4.4,0,2.2,2.2,0,1,1,4.4,0m-.489,20.04h-3.454V7.813h3.454Z" transform="translate(40.413 0.123)" fill="#e1ff0f"/>
      <path id="Path_7" data-name="Path 7" d="M293.449,22.242l-.1-2.184h-.065a6.474,6.474,0,0,1-5.507,2.51c-4.367,0-7.561-3.324-7.561-7.951s3.193-7.984,7.561-7.984a6.414,6.414,0,0,1,5.475,2.51h.064l.131-2.184h2.867V22.242Zm-.489-7.625a4.634,4.634,0,1,0-9.254,0,4.632,4.632,0,1,0,9.254,0" transform="translate(41.322 0.978)" fill="#e1ff0f"/>
      <path id="Path_8" data-name="Path 8" d="M62.422,0A30.772,30.772,0,1,0,90.737,42.8a2.171,2.171,0,0,0-2.015-2.99H82.48a2.168,2.168,0,0,0-1.951,1.216A20.21,20.21,0,0,1,62.35,52.187,20.758,20.758,0,0,1,41.724,36.022a2.156,2.156,0,0,1,2.1-2.623H90.183A2.917,2.917,0,0,0,93.1,30.487,30.689,30.689,0,0,0,62.422,0M46.213,26.918l-3.869,3.857a.709.709,0,0,1-1.211-.521,21.185,21.185,0,0,1,.993-5.538c2.252-7.38,10.219-15.5,20.224-15.5a20.788,20.788,0,0,1,19.6,13.633,1.446,1.446,0,0,1-1.37,1.915H51.434a7.4,7.4,0,0,0-5.221,2.157" transform="translate(4.662 0)" fill="#e1ff0f"/>
      <path id="Path_9" data-name="Path 9" d="M161.8,0a30.772,30.772,0,1,0,28.315,42.8,2.171,2.171,0,0,0-2.015-2.99h-6.242a2.168,2.168,0,0,0-1.951,1.216,20.21,20.21,0,0,1-18.179,11.165A20.758,20.758,0,0,1,141.1,36.022a2.156,2.156,0,0,1,2.1-2.623h46.357a2.917,2.917,0,0,0,2.913-2.912A30.689,30.689,0,0,0,161.8,0M145.588,26.918l-3.869,3.857a.709.709,0,0,1-1.211-.521,21.185,21.185,0,0,1,.993-5.538c2.253-7.38,10.219-15.5,20.224-15.5a20.788,20.788,0,0,1,19.6,13.633,1.446,1.446,0,0,1-1.37,1.915H150.809a7.4,7.4,0,0,0-5.221,2.157" transform="translate(19.316 0)" fill="#e1ff0f"/>
      <path id="Path_10" data-name="Path 10" d="M35.7,50.12H21.809a7.148,7.148,0,0,0-5.052,2.091l-5.514,5.506A.787.787,0,0,1,9.9,57.164l-.037-6.137h0V3.172A2.106,2.106,0,0,0,7.756,1.066H2.106A2.106,2.106,0,0,0,0,3.172v48.44a8.7,8.7,0,0,0,8.7,8.7H28.948a4.339,4.339,0,0,0,3.066-1.269l5.216-5.206A2.173,2.173,0,0,0,35.7,50.12" transform="translate(0 0.157)" fill="#e1ff0f"/>
      <path id="Path_11" data-name="Path 11" d="M88.09,1.066h6a2.121,2.121,0,0,1,2,1.408L110.946,44.1a.726.726,0,0,0,1.371-.007L126.7,2.493a2.121,2.121,0,0,1,2-1.427h5.942a2.12,2.12,0,0,1,2,2.819l-17.9,51.337a7.58,7.58,0,0,1-14.3.054L86.093,3.9a2.12,2.12,0,0,1,2-2.834" transform="translate(12.677 0.157)" fill="#e1ff0f"/>
      <path id="Path_12" data-name="Path 12" d="M209.725,33.857v3.422h-.163a4.145,4.145,0,0,0-2.411-.717c-2.738,0-4.073,1.826-4.073,5.54V48.88h-3.454V33.6h2.9l.13,2.347h.065a4.829,4.829,0,0,1,4.725-2.672,4.247,4.247,0,0,1,2.281.586" transform="translate(29.437 4.906)" fill="#e1ff0f"/>
      <path id="Path_13" data-name="Path 13" d="M213,42.3c.423,2.444,2.508,3.877,5.54,3.877a7.763,7.763,0,0,0,5.507-1.987h.163v3.422a9.665,9.665,0,0,1-5.8,1.6c-5.344,0-8.928-3.193-8.928-7.951a7.64,7.64,0,0,1,7.951-7.984c4.725,0,7.722,2.868,7.722,7.332V42.3Zm0-2.575h8.961c-.293-2.086-2.053-3.422-4.431-3.422A4.485,4.485,0,0,0,213,39.722" transform="translate(30.89 4.906)" fill="#e1ff0f"/>
      <path id="Path_14" data-name="Path 14" d="M240.2,39.918v8.961h-3.454V40.31c0-2.509-1.336-3.944-3.553-3.944-2.443,0-3.909,1.663-3.909,4.5v8.016h-3.455V33.6h2.9l.13,2.347h.065a5.509,5.509,0,0,1,5.149-2.671c3.813,0,6.126,2.476,6.126,6.647" transform="translate(33.302 4.906)" fill="#e1ff0f"/>
      <path id="Path_15" data-name="Path 15" d="M257.061,41.254c0,4.66-3.388,7.951-8.147,7.951a7.709,7.709,0,0,1-8.114-7.951,8.132,8.132,0,0,1,16.261,0m-12.774,0a4.648,4.648,0,1,0,9.288,0,4.65,4.65,0,1,0-9.288,0" transform="translate(35.509 4.906)" fill="#e1ff0f"/>
      <path id="Path_16" data-name="Path 16" d="M261.843,48.838l-6.192-15.283h3.715l4.269,11.535h.064L268,33.554h3.553l-6.192,15.283Z" transform="translate(37.699 4.948)" fill="#e1ff0f"/>
      <path id="Path_17" data-name="Path 17" d="M283.42,49.829l-.1-2.182h-.065a6.475,6.475,0,0,1-5.508,2.508c-4.366,0-7.56-3.324-7.56-7.951s3.193-7.984,7.56-7.984a6.411,6.411,0,0,1,5.475,2.509h.065l.131-2.184h2.867V49.829Zm-.489-7.625a4.634,4.634,0,1,0-9.254,0,4.632,4.632,0,1,0,9.254,0m-2.868-15.381h3.845l-4.236,5.507h-3.356Z" transform="translate(39.843 3.955)" fill="#e1ff0f"/>
      <path id="Path_18" data-name="Path 18" d="M292.37,48.838l-6.192-15.283h3.716l4.269,11.535h.064l4.3-11.535h3.553l-6.192,15.283Z" transform="translate(42.2 4.948)" fill="#e1ff0f"/>
      <path id="Path_19" data-name="Path 19" d="M304.237,42.3c.423,2.444,2.509,3.877,5.54,3.877a7.761,7.761,0,0,0,5.507-1.987h.163v3.422a9.664,9.664,0,0,1-5.8,1.6c-5.344,0-8.928-3.193-8.928-7.951a7.64,7.64,0,0,1,7.951-7.984c4.725,0,7.724,2.868,7.724,7.332V42.3Zm0-2.575H313.2c-.294-2.086-2.053-3.422-4.431-3.422a4.485,4.485,0,0,0-4.53,3.422" transform="translate(44.344 4.906)" fill="#e1ff0f"/>
      <rect id="Rectangle_3" data-name="Rectangle 3" width="3.454" height="22.81" transform="translate(363.831 30.975)" fill="#e1ff0f"/>
    </g>
  </g>
</svg>
