<svg xmlns="http://www.w3.org/2000/svg" xmlns:xlink="http://www.w3.org/1999/xlink" width="60" height="60" viewBox="0 0 60 60">
  <defs>
    <clipPath id="clip-path">
      <rect id="Rectangle_205" data-name="Rectangle 205" width="31.803" height="31.895" fill="none"/>
    </clipPath>
  </defs>
  <g id="Group_576" data-name="Group 576" transform="translate(-1685 -1488)">
    <circle id="Ellipse_12" data-name="Ellipse 12" cx="30" cy="30" r="30" transform="translate(1685 1488)" fill="#e1ff0f"/>
    <g id="Group_576-2" data-name="Group 576" transform="translate(1699.098 1502.109)">
      <g id="Group_575" data-name="Group 575" clip-path="url(#clip-path)">
        <path id="Path_1068" data-name="Path 1068" d="M10.071,43.345A10.071,10.071,0,1,0,20.142,53.416,10.071,10.071,0,0,0,10.071,43.345m.686,1.1L9.11,46.747a.528.528,0,0,0-.1.308v2.12a.531.531,0,0,0,.321.487l3.39,1.452v1.241a.529.529,0,0,0,.212.424l1.908,1.431V55.89l-1.485,1.979a.531.531,0,0,0,.049.693l2.057,2.057a8.951,8.951,0,0,1-4.332,1.741V60.837a.53.53,0,0,0,.237-.053l1.06-.53a.531.531,0,0,0,.294-.477v-1.59a.53.53,0,0,0-.156-.375l-1.06-1.06a.529.529,0,0,0-.375-.155H9.011a.53.53,0,0,0-.375.155l-1.06,1.06a.53.53,0,0,0-.155.375v1.59a.531.531,0,0,0,.089.294l.971,1.455v.751a8.959,8.959,0,0,1-3.5-1.431l.693-.694a.531.531,0,0,0,.155-.375V57.742l.441-1.322L8.754,54.93a.53.53,0,0,0,.257-.454v-2.12a.531.531,0,0,0-.155-.375L7.421,50.546v-1.9a.526.526,0,0,0-.056-.237L6.3,46.288a.534.534,0,0,0-.143-.177l-.6-.482a8.945,8.945,0,0,1,4.514-1.224c.231,0,.458.017.686.035m-9.7,8.976a8.991,8.991,0,0,1,3.573-7.168l.773.619.954,1.9v2a.53.53,0,0,0,.155.375l1.435,1.435v1.6L5.557,55.612a.53.53,0,0,0-.23.287l-.53,1.59a.528.528,0,0,0-.027.168v1.9l-.628.628A8.986,8.986,0,0,1,1.06,53.416M9.541,62.4V61.367a.533.533,0,0,0-.089-.294l-.971-1.455V58.406l.749-.749h1.682l.749.749v1.043l-.655.328H10.6a.53.53,0,0,0-.53.53v2.12c-.179,0-.354-.017-.53-.027m6.736-2.467-1.8-1.8L15.8,56.384a.53.53,0,0,0,.106-.318v-2.12a.53.53,0,0,0-.212-.424l-1.908-1.431V50.766a.529.529,0,0,0-.321-.487l-3.389-1.453v-1.6L11.942,44.6a9,9,0,0,1,4.335,15.329" transform="translate(0 -31.592)" fill="#ff7133"/>
        <path id="Path_1069" data-name="Path 1069" d="M76.029,92.789l-1.59,1.59a.53.53,0,0,0,0,.749l1.59,1.59.749-.749-1.215-1.215,1.215-1.216Z" transform="translate(-54.142 -67.63)" fill="#ff7133"/>
        <path id="Path_1070" data-name="Path 1070" d="M92.009,37.48V49.671h-1.06V41.72h-1.06v7.951h-3.71v1.06h3.71v3.18H84.058v1.06h6.361a.53.53,0,0,0,.53-.53v-3.71h1.59a.53.53,0,0,0,.53-.53V37.48Z" transform="translate(-61.266 -27.317)" fill="#ff7133"/>
        <path id="Path_1071" data-name="Path 1071" d="M83.849,77.15l-1.59,1.59a.53.53,0,0,0,0,.749l1.59,1.59.749-.749-1.215-1.215L84.6,77.9Z" transform="translate(-59.842 -56.231)" fill="#ff7133"/>
        <path id="Path_1072" data-name="Path 1072" d="M77.994,21.443a3.71,3.71,0,1,0-3.71-3.71,3.711,3.711,0,0,0,3.71,3.71m0-6.361a2.65,2.65,0,1,1-2.65,2.65,2.65,2.65,0,0,1,2.65-2.65" transform="translate(-54.142 -10.22)" fill="#ff7133"/>
        <path id="Path_1073" data-name="Path 1073" d="M62.834,5.483l-2.389,1.59a.53.53,0,0,0,0,.883l2.389,1.59-.566,2.813a.53.53,0,0,0,.624.624l2.813-.566,1.59,2.389a.53.53,0,0,0,.883,0l1.59-2.389,2.814.566a.53.53,0,0,0,.624-.624L72.64,9.546l2.389-1.59a.53.53,0,0,0,0-.883L72.64,5.483l.566-2.813a.53.53,0,0,0-.624-.624l-2.818.566L68.175.222a.55.55,0,0,0-.883,0L65.7,2.611l-2.809-.566a.529.529,0,0,0-.624.624Zm1.11.14-.48-2.381,2.381.477a.53.53,0,0,0,.546-.226l1.344-2.02,1.344,2.022a.529.529,0,0,0,.546.226l2.381-.477-.48,2.381a.529.529,0,0,0,.226.546l2.022,1.342L71.752,8.856a.53.53,0,0,0-.226.546l.48,2.381-2.381-.477a.53.53,0,0,0-.546.226l-1.344,2.02L66.391,11.53a.53.53,0,0,0-.546-.226l-2.381.477.48-2.381a.53.53,0,0,0-.226-.546L61.7,7.512l2.022-1.344a.53.53,0,0,0,.226-.546" transform="translate(-43.883 0)" fill="#ff7133"/>
        <path id="Path_1074" data-name="Path 1074" d="M20.871,30.233l-.749.749,1.59,1.59a.531.531,0,0,0,.749,0l1.59-1.59-.749-.749-1.216,1.215Z" transform="translate(-14.666 -22.035)" fill="#ff7133"/>
        <path id="Path_1075" data-name="Path 1075" d="M10.834,3.518h3.18V8.289h1.06V3.518h7.951V2.458H15.075V1.4h9.541V.338H14.545a.53.53,0,0,0-.53.53v1.59H10.3a.53.53,0,0,0-.53.53v7.421h1.06Z" transform="translate(-7.124 -0.246)" fill="#ff7133"/>
        <path id="Path_1076" data-name="Path 1076" d="M6.447,40.547a.529.529,0,0,0,.375-.155l1.59-1.59-.75-.75L6.447,39.268,5.232,38.052l-.75.75,1.59,1.59a.529.529,0,0,0,.375.155" transform="translate(-3.267 -27.734)" fill="#ff7133"/>
      </g>
    </g>
  </g>
</svg>
