<svg xmlns="http://www.w3.org/2000/svg" width="21.416" height="26.77" viewBox="0 0 21.416 26.77">
  <path id="Path_38" data-name="Path 38" d="M9.3,18.137l7.563-7.563L14.958,8.667,9.3,14.322,6.492,11.511,4.584,13.418Zm1.405,8.633a13.341,13.341,0,0,1-7.68-5.337A15.376,15.376,0,0,1,0,12.18V4.016L10.708,0,21.416,4.016V12.18a15.376,15.376,0,0,1-3.028,9.253,13.342,13.342,0,0,1-7.68,5.337m0-2.811a10.892,10.892,0,0,0,5.756-4.417,12.715,12.715,0,0,0,2.275-7.362V5.856L10.708,2.844,2.677,5.856V12.18a12.715,12.715,0,0,0,2.275,7.362,10.892,10.892,0,0,0,5.756,4.417" fill="#ff7033"/>
</svg>
