<svg xmlns="http://www.w3.org/2000/svg" xmlns:xlink="http://www.w3.org/1999/xlink" width="32.311" height="34.977" viewBox="0 0 32.311 34.977">
  <defs>
    <clipPath id="clip-path">
      <rect id="Rectangle_390" data-name="Rectangle 390" width="32.311" height="34.977" fill="#005940"/>
    </clipPath>
  </defs>
  <g id="Group_884" data-name="Group 884" transform="translate(0 0)">
    <rect id="Rectangle_375" data-name="Rectangle 375" width="5.221" height="1.16" transform="translate(21.742 10.852)" fill="#005940"/>
    <rect id="Rectangle_376" data-name="Rectangle 376" width="5.505" height="1.16" transform="translate(21.565 7.989) rotate(-18.417)" fill="#005940"/>
    <rect id="Rectangle_377" data-name="Rectangle 377" width="1.212" height="1.16" transform="translate(25.622 2.208) rotate(-28.61)" fill="#005940"/>
    <rect id="Rectangle_378" data-name="Rectangle 378" width="4.847" height="1.161" transform="translate(20.307 5.119) rotate(-28.615)" fill="#005940"/>
    <rect id="Rectangle_379" data-name="Rectangle 379" width="3.281" height="1.16" transform="translate(18.429 2.321) rotate(-45)" fill="#005940"/>
    <rect id="Rectangle_380" data-name="Rectangle 380" width="1.16" height="5.505" transform="translate(21.557 14.871) rotate(-71.572)" fill="#005940"/>
    <rect id="Rectangle_381" data-name="Rectangle 381" width="1.16" height="2.593" transform="matrix(0.447, -0.895, 0.895, 0.447, 20.309, 17.758)" fill="#005940"/>
    <rect id="Rectangle_382" data-name="Rectangle 382" width="5.221" height="1.16" transform="translate(0.277 10.852)" fill="#005940"/>
    <rect id="Rectangle_383" data-name="Rectangle 383" width="1.161" height="5.507" transform="matrix(0.317, -0.948, 0.948, 0.317, 0.099, 7.341)" fill="#005940"/>
    <rect id="Rectangle_384" data-name="Rectangle 384" width="1.161" height="1.212" transform="translate(0 2.659) rotate(-61.39)" fill="#005940"/>
    <rect id="Rectangle_385" data-name="Rectangle 385" width="1.161" height="4.847" transform="translate(2.127 3.819) rotate(-61.398)" fill="#005940"/>
    <rect id="Rectangle_386" data-name="Rectangle 386" width="1.16" height="3.281" transform="translate(5.667 0.82) rotate(-45)" fill="#005940"/>
    <rect id="Rectangle_387" data-name="Rectangle 387" width="5.505" height="1.16" transform="translate(0.091 15.527) rotate(-18.4)" fill="#005940"/>
    <rect id="Rectangle_388" data-name="Rectangle 388" width="2.593" height="1.16" transform="matrix(0.894, -0.447, 0.447, 0.894, 4.071, 17.868)" fill="#005940"/>
    <g id="Group_883" data-name="Group 883" transform="translate(0 0)">
      <g id="Group_882" data-name="Group 882" clip-path="url(#clip-path)">
        <path id="Path_1237" data-name="Path 1237" d="M14.873,16.947a6.962,6.962,0,1,0,6.962-6.962,6.962,6.962,0,0,0-6.962,6.962m6.962-5.8a5.8,5.8,0,1,1-5.8,5.8,5.8,5.8,0,0,1,5.8-5.8" transform="translate(-8.215 -5.515)" fill="#005940"/>
        <rect id="Rectangle_389" data-name="Rectangle 389" width="8.121" height="1.16" transform="translate(10.335 13.894) rotate(-45)" fill="#005940"/>
        <path id="Path_1238" data-name="Path 1238" d="M31.627,26.74a1.741,1.741,0,1,0,2.461,0,1.741,1.741,0,0,0-2.461,0Zm1.641,1.641a.58.58,0,1,1,.171-.411.581.581,0,0,1-.171.411" transform="translate(-17.186 -14.487)" fill="#005940"/>
        <path id="Path_1239" data-name="Path 1239" d="M23.694,20.546a1.74,1.74,0,1,0-1.23-.509,1.74,1.74,0,0,0,1.23.509m-.41-2.15a.58.58,0,1,1,0,.821h0a.576.576,0,0,1,0-.815l0,0" transform="translate(-12.125 -9.425)" fill="#005940"/>
        <path id="Path_1240" data-name="Path 1240" d="M32.655,45.516a2.3,2.3,0,0,0-1.947-1.263,2.66,2.66,0,0,0-.3.013c0-.009-.007-.02-.011-.029a2.3,2.3,0,0,0-1.947-1.264,2.328,2.328,0,0,0-1.175.249l-.682.348a2.3,2.3,0,0,0-1.619-.78,2.393,2.393,0,0,0-1.175.25l-.69.353a2.3,2.3,0,0,0-2.785-.535l-6.408,3.264a5.739,5.739,0,0,1-6.5-.913L5.242,43.177a2.475,2.475,0,0,0-3.667,3.295l3.079,4.106a3.31,3.31,0,0,1,.22,3.641L2.867,57.707l1.006.58L5.879,54.8a4.467,4.467,0,0,0-.3-4.915L2.506,45.779a1.315,1.315,0,0,1,1.948-1.75L6.63,46.059a6.9,6.9,0,0,0,7.813,1.095l6.408-3.265A1.16,1.16,0,0,1,21.9,45.957l-6,3.059.526,1.033,6-3.058a2.3,2.3,0,0,0,1.2-2.564l.69-.352a1.2,1.2,0,0,1,.588-.124,1.16,1.16,0,0,1,.464,2.194L18.35,49.724l.527,1.033,7.029-3.581a2.3,2.3,0,0,0,1.207-2.57l.689-.351a1.161,1.161,0,1,1,1.054,2.069l-7.029,3.582.526,1.033,7.03-3.582A2.306,2.306,0,0,0,30.539,46a2.359,2.359,0,0,0,.1-.593h.006A1.16,1.16,0,0,1,31.11,47.6L21.2,52.641a16.9,16.9,0,0,0-6.01,5.137l.94.68a15.726,15.726,0,0,1,5.6-4.783l9.917-5.037a2.32,2.32,0,0,0,1.017-3.12Z" transform="translate(-0.597 -23.481)" fill="#005940"/>
      </g>
    </g>
  </g>
</svg>
