<svg xmlns="http://www.w3.org/2000/svg" width="37.628" height="11.288" viewBox="0 0 37.628 11.288">
  <path id="Path_37" data-name="Path 37" d="M5.644,11.288a5.445,5.445,0,0,1-4-1.646A5.445,5.445,0,0,1,0,5.644a5.445,5.445,0,0,1,1.646-4A5.445,5.445,0,0,1,5.644,0a5.445,5.445,0,0,1,4,1.646,5.445,5.445,0,0,1,1.646,4,5.445,5.445,0,0,1-1.646,4,5.445,5.445,0,0,1-4,1.646m0-3.763A1.851,1.851,0,0,0,7.526,5.644,1.851,1.851,0,0,0,5.644,3.763,1.851,1.851,0,0,0,3.763,5.644,1.851,1.851,0,0,0,5.644,7.526m13.17,3.763a5.445,5.445,0,0,1-4-1.646,5.445,5.445,0,0,1-1.646-4,5.445,5.445,0,0,1,1.646-4,5.445,5.445,0,0,1,4-1.646,5.445,5.445,0,0,1,4,1.646,5.445,5.445,0,0,1,1.646,4,5.445,5.445,0,0,1-1.646,4,5.445,5.445,0,0,1-4,1.646m0-3.763A1.851,1.851,0,0,0,20.7,5.644a1.881,1.881,0,1,0-3.763,0,1.851,1.851,0,0,0,1.881,1.881m13.17,3.763a5.445,5.445,0,0,1-4-1.646,5.445,5.445,0,0,1-1.646-4,5.445,5.445,0,0,1,1.646-4,5.678,5.678,0,0,1,8,0,5.445,5.445,0,0,1,1.646,4,5.445,5.445,0,0,1-1.646,4,5.445,5.445,0,0,1-4,1.646" fill="#ff7133"/>
</svg>
