<svg id="Component_16_1" data-name="Component 16 – 1" xmlns="http://www.w3.org/2000/svg" width="30" height="30" viewBox="0 0 30 30">
  <circle id="Ellipse_20" data-name="Ellipse 20" cx="15" cy="15" r="15" fill="#e1ff0f"/>
  <path id="Path_1081" data-name="Path 1081" d="M12,13.886a.857.857,0,0,1-.855.857H.855A.858.858,0,0,1,0,13.886a6,6,0,1,1,12,0M6,8.914a4.972,4.972,0,0,0-4.969,4.8h9.937A4.972,4.972,0,0,0,6,8.914M6,7.2A3.6,3.6,0,1,1,9.6,3.6,3.6,3.6,0,0,1,6,7.2M6,6.171A2.571,2.571,0,1,0,3.429,3.6,2.571,2.571,0,0,0,6,6.171" transform="translate(9 7.629)" fill="#ff7133"/>
</svg>
