<svg xmlns="http://www.w3.org/2000/svg" xmlns:xlink="http://www.w3.org/1999/xlink" width="60" height="60" viewBox="0 0 60 60">
  <defs>
    <clipPath id="clip-path">
      <rect id="Rectangle_204" data-name="Rectangle 204" width="23.22" height="35.284" fill="none"/>
    </clipPath>
  </defs>
  <g id="Group_575" data-name="Group 575" transform="translate(-1365 -1488)">
    <circle id="Ellipse_10" data-name="Ellipse 10" cx="30" cy="30" r="30" transform="translate(1365 1488)" fill="#e1ff0f"/>
    <g id="Group_574" data-name="Group 574" transform="translate(1383.39 1500.358)">
      <g id="Group_573" data-name="Group 573" transform="translate(0 0)" clip-path="url(#clip-path)">
        <path id="Path_1064" data-name="Path 1064" d="M19.862,21.636l-4.455-.594a.553.553,0,0,1-.479-.548V18.813a6.082,6.082,0,0,0,2.736-4.538h.028a2.205,2.205,0,0,0,.4-4.376V9.3a.831.831,0,0,0-.013-.126H18.8a.525.525,0,0,0,.525-.525V5.657A5.663,5.663,0,0,0,13.666,0H9.555A5.663,5.663,0,0,0,3.9,5.657V8.646a.525.525,0,0,0,.525.525h.855a.794.794,0,0,0-.013.126v.585a2.2,2.2,0,0,0,.263,4.394h.028a6.082,6.082,0,0,0,2.736,4.538v1.681a.553.553,0,0,1-.479.548l-4.455.594A3.883,3.883,0,0,0,0,25.472v9.259a.553.553,0,0,0,.553.553H22.667a.553.553,0,0,0,.553-.553V25.472a3.882,3.882,0,0,0-3.359-3.836m-4.6.5.86.114L13.269,25.1l-.85-.85,2.508-2.2a1.642,1.642,0,0,0,.332.083m-1.2-.791-2.45,2.144L9.16,21.348a1.646,1.646,0,0,0,.238-.854v-.213a6,6,0,0,0,4.423,0v.213a1.646,1.646,0,0,0,.238.854m-1.573,4.537-.877.877-.877-.877.877-.877ZM12.455,8.12H10.765V4.869a.967.967,0,0,1,.845-1.052.966.966,0,0,1,.844,1.052ZM18.8,12.064a1.106,1.106,0,0,1-1.106,1.106V11l.008-.046a1.106,1.106,0,0,1,1.1,1.106M13.505,6.182h4.767V8.12H13.505ZM9.555,1.051h4.111A4.612,4.612,0,0,1,18.24,5.132H13.505V4.869a2.009,2.009,0,0,0-1.895-2.1,2.009,2.009,0,0,0-1.9,2.1v.263H4.981A4.612,4.612,0,0,1,9.555,1.051M4.949,6.182H9.715V8.12H4.949Zm.58,6.987a1.106,1.106,0,0,1-.008-2.211L5.529,11Zm1.106.553V10.958A1.659,1.659,0,0,1,8.293,9.3h6.635a1.659,1.659,0,0,1,1.658,1.659v2.764a4.976,4.976,0,1,1-9.951,0m1.327,8.416a1.637,1.637,0,0,0,.332-.083l2.511,2.2-.852.85L7.1,22.253Zm14.153,12.04H18.8V29.2H17.692v4.976H5.529V29.2H4.423v4.976H1.106V25.472A2.775,2.775,0,0,1,3,22.848l1.336-.225,1.382-.184,5.335,5.333h1.106L17.5,22.436l1.382.184,1.335.227a2.775,2.775,0,0,1,1.9,2.624Z" transform="translate(0 0)" fill="#ff7133"/>
        <path id="Path_1065" data-name="Path 1065" d="M28,38.165H29.1a1.659,1.659,0,0,0-3.317,0h1.106a.553.553,0,1,1,1.106,0" transform="translate(-18.047 -25.549)" fill="#ff7133"/>
        <path id="Path_1066" data-name="Path 1066" d="M42.18,37.613a.553.553,0,0,1,.553.553h1.106a1.659,1.659,0,0,0-3.317,0h1.106a.553.553,0,0,1,.553-.553" transform="translate(-28.358 -25.549)" fill="#ff7133"/>
        <path id="Path_1067" data-name="Path 1067" d="M34.48,51.885a2.762,2.762,0,0,0,1.012-1.012l-.956-.553a1.659,1.659,0,0,1-2.875,0l-.956.553a2.764,2.764,0,0,0,3.776,1.012" transform="translate(-21.488 -35.216)" fill="#ff7133"/>
      </g>
    </g>
  </g>
</svg>
