<svg xmlns="http://www.w3.org/2000/svg" xmlns:xlink="http://www.w3.org/1999/xlink" width="27" height="34" viewBox="0 0 27 34">
  <defs>
    <clipPath id="clip-path">
      <rect id="Rectangle_28" data-name="Rectangle 28" width="27" height="34" transform="translate(0.056 -0.062)" fill="#e1ff0f"/>
    </clipPath>
  </defs>
  <g id="Group_28" data-name="Group 28" transform="translate(-0.056 0.062)">
    <g id="Group_28-2" data-name="Group 28" transform="translate(0 0)" clip-path="url(#clip-path)">
      <path id="Path_38" data-name="Path 38" d="M11.673,22.758l9.49-9.49-2.393-2.393-7.1,7.1L8.146,14.444,5.753,16.838Zm1.764,10.833a16.741,16.741,0,0,1-9.637-6.7A19.294,19.294,0,0,1,0,15.284V5.039L13.437,0,26.873,5.039V15.284a19.294,19.294,0,0,1-3.8,11.611,16.741,16.741,0,0,1-9.637,6.7m0-3.527a13.668,13.668,0,0,0,7.222-5.543,15.955,15.955,0,0,0,2.855-9.238V7.348L13.437,3.569,3.359,7.348v7.936a15.955,15.955,0,0,0,2.855,9.238,13.668,13.668,0,0,0,7.222,5.543" transform="translate(0 -0.016)" fill="#e1ff0f"/>
    </g>
  </g>
</svg>
