<svg xmlns="http://www.w3.org/2000/svg" xmlns:xlink="http://www.w3.org/1999/xlink" width="17" height="17" viewBox="0 0 17 17">
  <defs>
    <clipPath id="clip-path">
      <rect id="Rectangle_29" data-name="Rectangle 29" width="17" height="17" transform="translate(-0.261 -0.5)" fill="#e1ff0f"/>
    </clipPath>
  </defs>
  <g id="Group_584" data-name="Group 584" transform="translate(0.261 0.5)">
    <g id="Group_29" data-name="Group 29" transform="translate(0 0)" clip-path="url(#clip-path)">
      <path id="Path_39" data-name="Path 39" d="M2.238,13.608A7.741,7.741,0,0,1,.595,11.184,7.083,7.083,0,0,1,0,8.339a7.932,7.932,0,0,1,.56-2.9A7.873,7.873,0,0,1,2.378,2.744a7.384,7.384,0,0,1,2.016-1.4A12.109,12.109,0,0,1,7.24.423,22.518,22.518,0,0,1,10.993.016a38.925,38.925,0,0,1,4.721.163,42.033,42.033,0,0,1,.117,4.546,24.769,24.769,0,0,1-.384,3.742,12.682,12.682,0,0,1-.886,2.914,7.1,7.1,0,0,1-1.411,2.087,8.1,8.1,0,0,1-2.622,1.807,7.387,7.387,0,0,1-2.833.571,7.717,7.717,0,0,1-2.961-.594,7.544,7.544,0,0,1-2.495-1.644m2.611-.373a5.187,5.187,0,0,0,1.388.572,6.076,6.076,0,0,0,1.457.174,5.541,5.541,0,0,0,2.122-.431,6.2,6.2,0,0,0,2.005-1.388,5.568,5.568,0,0,0,.851-1.177A8.141,8.141,0,0,0,13.418,9,19.4,19.4,0,0,0,13.9,6.043,29.667,29.667,0,0,0,13.942,1.9q-1.143-.046-2.576-.035a20.8,20.8,0,0,0-2.857.222,13.8,13.8,0,0,0-2.7.676,5.635,5.635,0,0,0-2.1,1.282A6.15,6.15,0,0,0,2.262,6.124a5.493,5.493,0,0,0-.4,1.982A5.284,5.284,0,0,0,2.39,10.52a6.558,6.558,0,0,0,.92,1.457A16.351,16.351,0,0,1,5.9,8.4a13.572,13.572,0,0,1,3.754-2.81A17.044,17.044,0,0,0,6.726,8.911a13.759,13.759,0,0,0-1.876,4.324" transform="translate(0.331 0.261)" fill="#e1ff0f"/>
    </g>
  </g>
</svg>
