<svg xmlns="http://www.w3.org/2000/svg" width="18.814" height="5.644" viewBox="0 0 18.814 5.644">
  <path id="Path_1078" data-name="Path 1078" d="M2.822,5.644a2.723,2.723,0,0,1-2-.823,2.723,2.723,0,0,1-.823-2,2.723,2.723,0,0,1,.823-2,2.723,2.723,0,0,1,2-.823,2.723,2.723,0,0,1,2,.823,2.723,2.723,0,0,1,.823,2,2.723,2.723,0,0,1-.823,2,2.723,2.723,0,0,1-2,.823m0-1.881a.925.925,0,0,0,.941-.941.925.925,0,0,0-.941-.941.925.925,0,0,0-.941.941.925.925,0,0,0,.941.941M9.407,5.644a2.723,2.723,0,0,1-2-.823,2.723,2.723,0,0,1-.823-2,2.723,2.723,0,0,1,.823-2,2.723,2.723,0,0,1,2-.823,2.723,2.723,0,0,1,2,.823,2.723,2.723,0,0,1,.823,2,2.723,2.723,0,0,1-.823,2,2.723,2.723,0,0,1-2,.823m0-1.881a.925.925,0,0,0,.941-.941.941.941,0,1,0-1.881,0,.925.925,0,0,0,.941.941m6.585,1.881a2.723,2.723,0,0,1-2-.823,2.723,2.723,0,0,1-.823-2,2.723,2.723,0,0,1,.823-2,2.839,2.839,0,0,1,4,0,2.723,2.723,0,0,1,.823,2,2.723,2.723,0,0,1-.823,2,2.723,2.723,0,0,1-2,.823" fill="#e1ff0f"/>
</svg>
