<svg xmlns="http://www.w3.org/2000/svg" xmlns:xlink="http://www.w3.org/1999/xlink" width="144.051" height="24.138" viewBox="0 0 144.051 24.138">
  <defs>
    <clipPath id="clip-path">
      <rect id="Rectangle_4" data-name="Rectangle 4" width="144.051" height="24.138" transform="translate(0 0)" fill="#ff7133"/>
    </clipPath>
  </defs>
  <g id="Group_1" data-name="Group 1" transform="translate(0 0)" clip-path="url(#clip-path)">
    <path id="Path_1" data-name="Path 1" d="M200.753,10.173a1.958,1.958,0,0,0,2.173,1.521,3.045,3.045,0,0,0,2.16-.779h.064v1.342a3.79,3.79,0,0,1-2.275.626c-2.1,0-3.5-1.252-3.5-3.118a3,3,0,0,1,3.118-3.131,2.76,2.76,0,0,1,3.029,2.876v.665Zm0-1.01h3.514a1.613,1.613,0,0,0-1.738-1.342,1.759,1.759,0,0,0-1.776,1.342" transform="translate(-109.647 -3.648)" fill="#ff7133"/>
    <path id="Path_2" data-name="Path 2" d="M221.365,9.24v3.514h-1.355V9.394c0-.984-.524-1.547-1.393-1.547-.958,0-1.533.652-1.533,1.764v3.144h-1.355V6.76h1.138l.051.92h.026a2.161,2.161,0,0,1,2.019-1.048,2.309,2.309,0,0,1,2.4,2.607" transform="translate(-118.643 -3.648)" fill="#ff7133"/>
    <path id="Path_3" data-name="Path 3" d="M232.075,10.173a1.958,1.958,0,0,0,2.173,1.521,3.044,3.044,0,0,0,2.16-.779h.064v1.342a3.791,3.791,0,0,1-2.275.626c-2.1,0-3.5-1.252-3.5-3.118a3,3,0,0,1,3.118-3.131,2.761,2.761,0,0,1,3.029,2.876v.665Zm0-1.01h3.515a1.613,1.613,0,0,0-1.738-1.342,1.759,1.759,0,0,0-1.777,1.342" transform="translate(-126.873 -3.648)" fill="#ff7133"/>
    <path id="Path_4" data-name="Path 4" d="M251.014,6.863V8.2h-.064A1.626,1.626,0,0,0,250,7.924c-1.074,0-1.6.716-1.6,2.173v2.658h-1.355V6.761h1.137l.051.92h.026a1.894,1.894,0,0,1,1.853-1.048,1.666,1.666,0,0,1,.895.23" transform="translate(-135.869 -3.648)" fill="#ff7133"/>
    <path id="Path_5" data-name="Path 5" d="M263.219,12.269c0,1.892-1.227,3.042-3.272,3.042a3.882,3.882,0,0,1-2.467-.729V13.177h.064a2.861,2.861,0,0,0,2.237.92c1.342,0,2.083-.69,2.083-1.9v-.14h-.025a2.616,2.616,0,0,1-1.968.754,2.911,2.911,0,0,1-2.965-3.08,2.922,2.922,0,0,1,2.965-3.093,2.539,2.539,0,0,1,2.16.984h.026l.038-.856h1.125ZM261.9,9.726a1.816,1.816,0,1,0-3.63,0,1.815,1.815,0,1,0,3.63,0" transform="translate(-141.288 -3.648)" fill="#ff7133"/>
    <path id="Path_6" data-name="Path 6" d="M275.782,1.708a.863.863,0,0,1-1.725,0,.863.863,0,1,1,1.725,0m-.192,7.86h-1.355V3.574h1.355Z" transform="translate(-150.721 -0.462)" fill="#ff7133"/>
    <path id="Path_7" data-name="Path 7" d="M285.408,12.755l-.038-.856h-.026a2.539,2.539,0,0,1-2.16.984,2.943,2.943,0,0,1-2.965-3.118,2.954,2.954,0,0,1,2.965-3.131,2.516,2.516,0,0,1,2.147.984h.025l.051-.856h1.125v5.994Zm-.192-2.991a1.818,1.818,0,1,0-3.63,0,1.817,1.817,0,1,0,3.63,0" transform="translate(-154.11 -3.648)" fill="#ff7133"/>
    <path id="Path_8" data-name="Path 8" d="M43.7,0A12.069,12.069,0,1,0,54.8,16.785a.852.852,0,0,0-.79-1.173H51.564a.85.85,0,0,0-.765.477,7.926,7.926,0,0,1-7.13,4.379,8.141,8.141,0,0,1-8.089-6.34A.846.846,0,0,1,36.4,13.1H54.585a1.144,1.144,0,0,0,1.143-1.142A12.036,12.036,0,0,0,43.7,0M37.34,10.557,35.822,12.07a.278.278,0,0,1-.475-.2,8.309,8.309,0,0,1,.389-2.172c.883-2.895,4.008-6.08,7.932-6.08A8.153,8.153,0,0,1,51.355,8.96a.567.567,0,0,1-.537.751H39.388a2.9,2.9,0,0,0-2.048.846" transform="translate(-17.386 0)" fill="#ff7133"/>
    <path id="Path_9" data-name="Path 9" d="M143.072,0a12.069,12.069,0,1,0,11.105,16.785.852.852,0,0,0-.79-1.173h-2.448a.85.85,0,0,0-.765.477,7.926,7.926,0,0,1-7.13,4.379,8.141,8.141,0,0,1-8.089-6.34.846.846,0,0,1,.824-1.029H153.96a1.144,1.144,0,0,0,1.143-1.142A12.036,12.036,0,0,0,143.072,0m-6.357,10.557L135.2,12.07a.278.278,0,0,1-.475-.2,8.31,8.31,0,0,1,.389-2.172c.883-2.895,4.008-6.08,7.932-6.08A8.153,8.153,0,0,1,150.73,8.96a.567.567,0,0,1-.537.751h-11.43a2.9,2.9,0,0,0-2.048.846" transform="translate(-72.039 0)" fill="#ff7133"/>
    <path id="Path_10" data-name="Path 10" d="M14,20.305H8.553a2.8,2.8,0,0,0-1.982.82L4.409,23.284a.309.309,0,0,1-.527-.216l-.014-2.407h0V1.892a.826.826,0,0,0-.826-.826H.826A.826.826,0,0,0,0,1.892v19A3.411,3.411,0,0,0,3.41,24.3h7.943a1.7,1.7,0,0,0,1.2-.5L14.6,21.761a.852.852,0,0,0-.6-1.456" transform="translate(0 -0.586)" fill="#ff7133"/>
    <path id="Path_11" data-name="Path 11" d="M86.8,1.066h2.355a.832.832,0,0,1,.784.552l5.826,16.328a.285.285,0,0,0,.538,0l5.639-16.317a.832.832,0,0,1,.786-.56h2.33a.832.832,0,0,1,.785,1.106L98.821,22.306a2.973,2.973,0,0,1-5.607.021l-7.2-20.15A.832.832,0,0,1,86.8,1.066" transform="translate(-47.279 -0.586)" fill="#ff7133"/>
    <path id="Path_12" data-name="Path 12" d="M203.586,33.5v1.342h-.064a1.625,1.625,0,0,0-.946-.281c-1.074,0-1.6.716-1.6,2.173v2.658h-1.355V33.4h1.137l.051.92h.026a1.894,1.894,0,0,1,1.853-1.048,1.666,1.666,0,0,1,.895.23" transform="translate(-109.786 -18.298)" fill="#ff7133"/>
    <path id="Path_13" data-name="Path 13" d="M210.858,36.81a1.958,1.958,0,0,0,2.173,1.521,3.045,3.045,0,0,0,2.16-.779h.064v1.342a3.79,3.79,0,0,1-2.275.626c-2.1,0-3.5-1.252-3.5-3.118A3,3,0,0,1,212.6,33.27a2.76,2.76,0,0,1,3.029,2.876v.665Zm0-1.01h3.514a1.613,1.613,0,0,0-1.738-1.342,1.759,1.759,0,0,0-1.776,1.342" transform="translate(-115.205 -18.297)" fill="#ff7133"/>
    <path id="Path_14" data-name="Path 14" d="M231.47,35.878v3.514h-1.355V36.032c0-.984-.524-1.547-1.393-1.547-.958,0-1.533.652-1.533,1.764v3.144h-1.355V33.4h1.138l.051.92h.026a2.16,2.16,0,0,1,2.019-1.048,2.309,2.309,0,0,1,2.4,2.607" transform="translate(-124.2 -18.298)" fill="#ff7133"/>
    <path id="Path_15" data-name="Path 15" d="M247.178,36.4a3.189,3.189,0,1,1-3.2-3.131,3.034,3.034,0,0,1,3.2,3.131m-5.01,0a1.824,1.824,0,1,0,1.815-1.917,1.783,1.783,0,0,0-1.815,1.917" transform="translate(-132.431 -18.298)" fill="#ff7133"/>
    <path id="Path_16" data-name="Path 16" d="M258.079,39.549l-2.428-5.994h1.457l1.674,4.524h.025l1.687-4.524h1.393l-2.428,5.994Z" transform="translate(-140.598 -18.454)" fill="#ff7133"/>
    <path id="Path_17" data-name="Path 17" d="M275.379,35.847l-.038-.856h-.026a2.54,2.54,0,0,1-2.16.984,2.943,2.943,0,0,1-2.965-3.118,2.954,2.954,0,0,1,2.965-3.131,2.514,2.514,0,0,1,2.147.984h.026l.051-.856H276.5v5.994Zm-.192-2.991a1.817,1.817,0,1,0-1.815,1.9,1.78,1.78,0,0,0,1.815-1.9m-1.125-6.032h1.508l-1.662,2.16h-1.316Z" transform="translate(-148.594 -14.752)" fill="#ff7133"/>
    <path id="Path_18" data-name="Path 18" d="M288.607,39.549l-2.428-5.994h1.457l1.674,4.524h.025l1.687-4.524h1.393l-2.428,5.994Z" transform="translate(-157.387 -18.454)" fill="#ff7133"/>
    <path id="Path_19" data-name="Path 19" d="M302.1,36.81a1.958,1.958,0,0,0,2.173,1.521,3.044,3.044,0,0,0,2.16-.779h.064v1.342a3.79,3.79,0,0,1-2.275.626c-2.1,0-3.5-1.252-3.5-3.118a3,3,0,0,1,3.118-3.131,2.761,2.761,0,0,1,3.029,2.876v.665Zm0-1.01h3.515a1.613,1.613,0,0,0-1.738-1.342A1.759,1.759,0,0,0,302.1,35.8" transform="translate(-165.383 -18.297)" fill="#ff7133"/>
    <rect id="Rectangle_3" data-name="Rectangle 3" width="1.355" height="8.946" transform="translate(142.696 12.148)" fill="#ff7133"/>
  </g>
</svg>
