<svg xmlns="http://www.w3.org/2000/svg" xmlns:xlink="http://www.w3.org/1999/xlink" width="27" height="25" viewBox="0 0 27 25">
  <defs>
    <clipPath id="clip-path">
      <rect id="Rectangle_29" data-name="Rectangle 29" width="27" height="25" transform="translate(-0.426 0.427)" fill="#ff7033"/>
    </clipPath>
  </defs>
  <g id="Group_30" data-name="Group 30" transform="translate(0.426 -0.427)">
    <g id="Group_29" data-name="Group 29" transform="translate(0 0)" clip-path="url(#clip-path)">
      <path id="Path_39" data-name="Path 39" d="M3.567,21.69A12.338,12.338,0,0,1,.948,17.825,11.289,11.289,0,0,1,0,13.292,12.643,12.643,0,0,1,.892,8.664a12.548,12.548,0,0,1,2.9-4.291A11.769,11.769,0,0,1,7,2.144,19.3,19.3,0,0,1,11.539.675a35.89,35.89,0,0,1,5.983-.65,62.04,62.04,0,0,1,7.524.26,67,67,0,0,1,.186,7.246,39.479,39.479,0,0,1-.612,5.963,20.214,20.214,0,0,1-1.412,4.645,11.311,11.311,0,0,1-2.249,3.327,12.9,12.9,0,0,1-4.18,2.881,11.774,11.774,0,0,1-4.516.91,12.3,12.3,0,0,1-4.719-.947A12.024,12.024,0,0,1,3.567,21.69M7.729,21.1a8.267,8.267,0,0,0,2.212.911,9.684,9.684,0,0,0,2.322.278,8.831,8.831,0,0,0,3.382-.687,9.876,9.876,0,0,0,3.2-2.212A8.875,8.875,0,0,0,20.2,17.51a12.976,12.976,0,0,0,1.191-3.159,30.924,30.924,0,0,0,.761-4.719,47.285,47.285,0,0,0,.074-6.6q-1.822-.074-4.105-.056a33.16,33.16,0,0,0-4.553.354A21.993,21.993,0,0,0,9.253,4.41,8.982,8.982,0,0,0,5.908,6.454,9.8,9.8,0,0,0,3.6,9.761a8.755,8.755,0,0,0-.632,3.159,8.422,8.422,0,0,0,.837,3.847,10.452,10.452,0,0,0,1.467,2.322,26.062,26.062,0,0,1,4.125-5.7,21.632,21.632,0,0,1,5.983-4.479,27.165,27.165,0,0,0-4.664,5.3A21.929,21.929,0,0,0,7.729,21.1" transform="translate(0.852 0.208)" fill="#ff7033"/>
    </g>
  </g>
</svg>
