<svg xmlns="http://www.w3.org/2000/svg" xmlns:xlink="http://www.w3.org/1999/xlink" width="155.164" height="26" viewBox="0 0 155.164 26">
  <defs>
    <clipPath id="clip-path">
      <rect id="Rectangle_371" data-name="Rectangle 371" width="155.164" height="26" fill="#ff7033"/>
    </clipPath>
  </defs>
  <g id="Group_879" data-name="Group 879" clip-path="url(#clip-path)">
    <path id="Path_1218" data-name="Path 1218" d="M200.86,10.447a2.109,2.109,0,0,0,2.34,1.638,3.28,3.28,0,0,0,2.326-.84h.069v1.446a4.083,4.083,0,0,1-2.45.674c-2.257,0-3.772-1.349-3.772-3.359a3.227,3.227,0,0,1,3.359-3.373,2.973,2.973,0,0,1,3.262,3.1v.716Zm0-1.088h3.785a1.738,1.738,0,0,0-1.872-1.446,1.9,1.9,0,0,0-1.913,1.446" transform="translate(-102.725 -3.418)" fill="#ff7033"/>
    <path id="Path_1219" data-name="Path 1219" d="M221.8,9.441v3.785h-1.459V9.607c0-1.06-.564-1.666-1.5-1.666-1.032,0-1.652.7-1.652,1.9v3.387h-1.46V6.77h1.226l.055.991h.028a2.327,2.327,0,0,1,2.175-1.129A2.488,2.488,0,0,1,221.8,9.441" transform="translate(-111.153 -3.418)" fill="#ff7033"/>
    <path id="Path_1220" data-name="Path 1220" d="M232.182,10.447a2.109,2.109,0,0,0,2.34,1.638,3.279,3.279,0,0,0,2.326-.84h.069v1.446a4.083,4.083,0,0,1-2.451.674c-2.258,0-3.772-1.349-3.772-3.359a3.227,3.227,0,0,1,3.359-3.373,2.974,2.974,0,0,1,3.263,3.1v.716Zm0-1.088h3.786A1.738,1.738,0,0,0,234.1,7.913a1.9,1.9,0,0,0-1.914,1.446" transform="translate(-118.864 -3.418)" fill="#ff7033"/>
    <path id="Path_1221" data-name="Path 1221" d="M251.319,6.881V8.326h-.069a1.751,1.751,0,0,0-1.019-.3c-1.157,0-1.721.771-1.721,2.34v2.863h-1.459V6.771h1.225l.055.991h.028a2.04,2.04,0,0,1,2-1.129,1.794,1.794,0,0,1,.964.248" transform="translate(-127.292 -3.418)" fill="#ff7033"/>
    <path id="Path_1222" data-name="Path 1222" d="M263.706,12.7c0,2.038-1.322,3.276-3.524,3.276a4.182,4.182,0,0,1-2.657-.785V13.681h.069a3.082,3.082,0,0,0,2.409.991c1.446,0,2.243-.744,2.243-2.051V12.47h-.027a2.817,2.817,0,0,1-2.12.812A3.136,3.136,0,0,1,256.9,9.964,3.147,3.147,0,0,1,260.1,6.633a2.735,2.735,0,0,1,2.326,1.06h.028l.041-.922h1.211Zm-1.418-2.739a1.956,1.956,0,1,0-3.91,0,1.956,1.956,0,1,0,3.91,0" transform="translate(-132.368 -3.418)" fill="#ff7033"/>
    <path id="Path_1223" data-name="Path 1223" d="M275.916,1.776a.929.929,0,0,1-1.859,0,.929.929,0,1,1,1.859,0m-.206,8.466H274.25V3.785h1.459Z" transform="translate(-141.206 -0.432)" fill="#ff7033"/>
    <path id="Path_1224" data-name="Path 1224" d="M285.808,13.227l-.041-.922h-.028a2.735,2.735,0,0,1-2.326,1.06,3.171,3.171,0,0,1-3.194-3.359,3.182,3.182,0,0,1,3.194-3.373,2.71,2.71,0,0,1,2.313,1.06h.027l.055-.922h1.211v6.456Zm-.207-3.221a1.958,1.958,0,1,0-3.91,0,1.957,1.957,0,1,0,3.91,0" transform="translate(-144.381 -3.418)" fill="#ff7033"/>
    <path id="Path_1225" data-name="Path 1225" d="M44.629,0A13,13,0,1,0,56.591,18.08a.917.917,0,0,0-.851-1.263H53.1a.916.916,0,0,0-.824.514,8.538,8.538,0,0,1-7.68,4.717,8.769,8.769,0,0,1-8.714-6.829.911.911,0,0,1,.888-1.108H56.357a1.232,1.232,0,0,0,1.231-1.23A12.965,12.965,0,0,0,44.629,0M37.782,11.372,36.147,13a.3.3,0,0,1-.511-.22,8.95,8.95,0,0,1,.419-2.339c.952-3.118,4.317-6.55,8.544-6.55a8.782,8.782,0,0,1,8.279,5.759.611.611,0,0,1-.579.809H39.987a3.124,3.124,0,0,0-2.206.911" transform="translate(-16.289 0)" fill="#ff7033"/>
    <path id="Path_1226" data-name="Path 1226" d="M144,0a13,13,0,1,0,11.962,18.08.917.917,0,0,0-.851-1.263h-2.637a.916.916,0,0,0-.824.514,8.538,8.538,0,0,1-7.68,4.717,8.769,8.769,0,0,1-8.713-6.829.911.911,0,0,1,.888-1.108h19.584a1.232,1.232,0,0,0,1.231-1.23A12.965,12.965,0,0,0,144,0m-6.848,11.372L135.522,13a.3.3,0,0,1-.511-.22,8.952,8.952,0,0,1,.419-2.339c.952-3.118,4.317-6.55,8.544-6.55a8.782,8.782,0,0,1,8.279,5.759.611.611,0,0,1-.579.809H139.362a3.124,3.124,0,0,0-2.206.911" transform="translate(-67.491 0)" fill="#ff7033"/>
    <path id="Path_1227" data-name="Path 1227" d="M15.08,21.789H9.213a3.02,3.02,0,0,0-2.134.883L4.75,25a.333.333,0,0,1-.568-.233l-.016-2.592h0V1.956a.889.889,0,0,0-.89-.89H.89a.89.89,0,0,0-.89.89V22.42a3.674,3.674,0,0,0,3.673,3.674h8.556a1.833,1.833,0,0,0,1.3-.536l2.2-2.2a.918.918,0,0,0-.649-1.568" transform="translate(0 -0.549)" fill="#ff7033"/>
    <path id="Path_1228" data-name="Path 1228" d="M86.864,1.066H89.4a.9.9,0,0,1,.844.595L96.52,19.248a.307.307,0,0,0,.579,0l6.075-17.576a.9.9,0,0,1,.847-.6h2.51a.9.9,0,0,1,.846,1.191L99.813,23.945a3.2,3.2,0,0,1-6.039.023l-7.753-21.7a.9.9,0,0,1,.843-1.2" transform="translate(-44.294 -0.549)" fill="#ff7033"/>
    <path id="Path_1229" data-name="Path 1229" d="M203.891,33.519v1.446h-.069a1.751,1.751,0,0,0-1.018-.3c-1.157,0-1.721.771-1.721,2.34v2.863h-1.459V33.409h1.225l.055.991h.028a2.04,2.04,0,0,1,2-1.129,1.794,1.794,0,0,1,.964.248" transform="translate(-102.855 -17.143)" fill="#ff7033"/>
    <path id="Path_1230" data-name="Path 1230" d="M210.965,37.084a2.109,2.109,0,0,0,2.34,1.638,3.279,3.279,0,0,0,2.326-.84h.069v1.446a4.083,4.083,0,0,1-2.45.674c-2.258,0-3.772-1.349-3.772-3.359a3.227,3.227,0,0,1,3.359-3.373,2.973,2.973,0,0,1,3.262,3.1v.716Zm0-1.088h3.785a1.738,1.738,0,0,0-1.872-1.446A1.9,1.9,0,0,0,210.965,36" transform="translate(-107.932 -17.142)" fill="#ff7033"/>
    <path id="Path_1231" data-name="Path 1231" d="M231.905,36.079v3.785h-1.459v-3.62c0-1.06-.564-1.666-1.5-1.666-1.032,0-1.652.7-1.652,1.9v3.387h-1.46V33.408h1.226l.055.991h.028a2.327,2.327,0,0,1,2.175-1.129,2.488,2.488,0,0,1,2.588,2.808" transform="translate(-116.359 -17.143)" fill="#ff7033"/>
    <path id="Path_1232" data-name="Path 1232" d="M247.67,36.643a3.435,3.435,0,1,1-3.442-3.372,3.268,3.268,0,0,1,3.442,3.372m-5.4,0a1.964,1.964,0,1,0,1.955-2.065,1.92,1.92,0,0,0-1.955,2.065" transform="translate(-124.07 -17.143)" fill="#ff7033"/>
    <path id="Path_1233" data-name="Path 1233" d="M258.267,40.011l-2.616-6.456h1.57l1.8,4.873h.027l1.817-4.873h1.5l-2.616,6.456Z" transform="translate(-131.722 -17.289)" fill="#ff7033"/>
    <path id="Path_1234" data-name="Path 1234" d="M275.779,36.543l-.041-.922h-.028a2.736,2.736,0,0,1-2.327,1.06,3.17,3.17,0,0,1-3.194-3.359,3.182,3.182,0,0,1,3.194-3.373,2.708,2.708,0,0,1,2.313,1.06h.028l.055-.922h1.211v6.456Zm-.206-3.221a1.957,1.957,0,1,0-1.955,2.051,1.917,1.917,0,0,0,1.955-2.051m-1.211-6.5h1.624L274.2,29.15h-1.418Z" transform="translate(-139.213 -13.821)" fill="#ff7033"/>
    <path id="Path_1235" data-name="Path 1235" d="M288.794,40.011l-2.616-6.456h1.57l1.8,4.873h.027l1.817-4.873h1.5l-2.616,6.456Z" transform="translate(-147.451 -17.289)" fill="#ff7033"/>
    <path id="Path_1236" data-name="Path 1236" d="M302.2,37.084a2.109,2.109,0,0,0,2.34,1.638,3.279,3.279,0,0,0,2.326-.84h.069v1.446A4.083,4.083,0,0,1,304.49,40c-2.258,0-3.772-1.349-3.772-3.359a3.227,3.227,0,0,1,3.359-3.373,2.974,2.974,0,0,1,3.263,3.1v.716Zm0-1.088h3.786a1.738,1.738,0,0,0-1.872-1.446A1.9,1.9,0,0,0,302.2,36" transform="translate(-154.943 -17.142)" fill="#ff7033"/>
    <rect id="Rectangle_370" data-name="Rectangle 370" width="1.459" height="9.637" transform="translate(153.705 13.086)" fill="#ff7033"/>
  </g>
</svg>
