<svg xmlns="http://www.w3.org/2000/svg" xmlns:xlink="http://www.w3.org/1999/xlink" width="14" height="17" viewBox="0 0 14 17">
  <defs>
    <clipPath id="clip-path">
      <rect id="Rectangle_28" data-name="Rectangle 28" width="14" height="17" transform="translate(-0.259 0)" fill="#fcfcfa"/>
    </clipPath>
  </defs>
  <g id="Group_28" data-name="Group 28" transform="translate(0.259)" clip-path="url(#clip-path)">
    <path id="Path_38" data-name="Path 38" d="M5.837,11.379l4.745-4.745-1.2-1.2L5.837,8.986,4.073,7.222l-1.2,1.2ZM6.718,16.8A8.371,8.371,0,0,1,1.9,13.448,9.647,9.647,0,0,1,0,7.642V2.519L6.718,0l6.718,2.519V7.642a9.647,9.647,0,0,1-1.9,5.805A8.371,8.371,0,0,1,6.718,16.8m0-1.764a6.834,6.834,0,0,0,3.611-2.771,7.978,7.978,0,0,0,1.428-4.619V3.674L6.718,1.785,1.68,3.674V7.642a7.978,7.978,0,0,0,1.428,4.619,6.834,6.834,0,0,0,3.611,2.771" transform="translate(-0.028 0.023)" fill="#fcfcfa"/>
  </g>
</svg>
