<svg xmlns="http://www.w3.org/2000/svg" width="20.8" height="26" viewBox="0 0 20.8 26">
  <path id="Path_1115" data-name="Path 1115" d="M6.5,14.3H9.1V10.725h2.6V14.3h2.6V8.125l-3.9-2.6-3.9,2.6Zm3.9,8.255a35.748,35.748,0,0,0,5.882-6.614A10.093,10.093,0,0,0,18.2,10.66a7.848,7.848,0,0,0-2.259-5.8A7.53,7.53,0,0,0,10.4,2.6,7.53,7.53,0,0,0,4.859,4.859,7.848,7.848,0,0,0,2.6,10.66a10.093,10.093,0,0,0,1.917,5.281A35.749,35.749,0,0,0,10.4,22.555M10.4,26a43.187,43.187,0,0,1-7.816-8.272A12.86,12.86,0,0,1,0,10.66,10.051,10.051,0,0,1,3.137,2.892,10.388,10.388,0,0,1,10.4,0a10.388,10.388,0,0,1,7.263,2.892A10.051,10.051,0,0,1,20.8,10.66a12.86,12.86,0,0,1-2.584,7.068A43.187,43.187,0,0,1,10.4,26" fill="#005940"/>
</svg>
