<svg xmlns="http://www.w3.org/2000/svg" xmlns:xlink="http://www.w3.org/1999/xlink" width="148.375" height="50.232" viewBox="0 0 148.375 50.232">
  <defs>
    <clipPath id="clip-path">
      <rect id="Retângulo_108" data-name="Retângulo 108" width="148.375" height="50.232" fill="#e1ff0c"/>
    </clipPath>
  </defs>
  <g id="Grupo_605" data-name="Grupo 605" transform="translate(14)">
    <g id="Grupo_159" data-name="Grupo 159" transform="translate(-14)" clip-path="url(#clip-path)">
      <path id="Caminho_146" data-name="Caminho 146" d="M64.2,0A21.559,21.559,0,1,0,84.041,29.982a1.521,1.521,0,0,0-1.412-2.095H78.256a1.518,1.518,0,0,0-1.367.852,14.158,14.158,0,0,1-12.736,7.822A14.543,14.543,0,0,1,49.7,25.238,1.511,1.511,0,0,1,51.175,23.4H83.653a2.044,2.044,0,0,0,2.041-2.041A21.5,21.5,0,0,0,64.2,0M52.848,18.859l-2.71,2.7a.5.5,0,0,1-.849-.364,14.839,14.839,0,0,1,.7-3.88c1.578-5.17,7.159-10.861,14.169-10.861A14.562,14.562,0,0,1,77.883,16a1.012,1.012,0,0,1-.959,1.342H56.506a5.182,5.182,0,0,0-3.658,1.512" transform="translate(-17.205)" fill="#e1ff0c"/>
      <path id="Caminho_147" data-name="Caminho 147" d="M198.173,0A21.559,21.559,0,1,0,218.01,29.982a1.521,1.521,0,0,0-1.412-2.095h-4.373a1.518,1.518,0,0,0-1.367.852,14.158,14.158,0,0,1-12.736,7.822,14.543,14.543,0,0,1-14.45-11.323,1.511,1.511,0,0,1,1.472-1.838h32.478a2.044,2.044,0,0,0,2.041-2.041A21.5,21.5,0,0,0,198.173,0M186.817,18.859l-2.71,2.7a.5.5,0,0,1-.849-.364,14.838,14.838,0,0,1,.7-3.88c1.578-5.17,7.159-10.861,14.169-10.861A14.562,14.562,0,0,1,211.852,16a1.013,1.013,0,0,1-.96,1.342H190.475a5.182,5.182,0,0,0-3.658,1.512" transform="translate(-71.288)" fill="#e1ff0c"/>
      <path id="Caminho_148" data-name="Caminho 148" d="M25.007,35.8H15.279a5.009,5.009,0,0,0-3.54,1.465L7.876,41.126a.551.551,0,0,1-.941-.386l-.026-4.3h0V2.913A1.476,1.476,0,0,0,5.434,1.438H1.475A1.475,1.475,0,0,0,0,2.913V36.85a6.092,6.092,0,0,0,6.092,6.092H20.28a3.041,3.041,0,0,0,2.149-.889l3.654-3.647a1.523,1.523,0,0,0-1.076-2.6" transform="translate(0 -0.581)" fill="#e1ff0c"/>
      <path id="Caminho_149" data-name="Caminho 149" d="M117.382,1.438h4.207a1.486,1.486,0,0,1,1.4.986L133.4,31.591a.51.51,0,0,0,.961,0L144.43,2.439a1.486,1.486,0,0,1,1.4-1H150a1.485,1.485,0,0,1,1.4,1.975L138.856,39.38a5.31,5.31,0,0,1-10.014.038L115.983,3.424a1.486,1.486,0,0,1,1.4-1.986" transform="translate(-46.786 -0.581)" fill="#e1ff0c"/>
    </g>
  </g>
</svg>
