<svg width="50" height="50" viewBox="0 0 50 50" fill="none" xmlns="http://www.w3.org/2000/svg">
<g id="Frame" clip-path="url(#clip0_741_2173)">
<g id="Group" opacity="0.33">
<path id="Vector" d="M46.2498 17.5L4.9873 23.1525V16.8425L46.2498 5.65747V17.5Z" fill="white"/>
</g>
<g id="Group_2" opacity="0.1">
<path id="Vector_2" d="M46.2498 45H4.9873V23.75L46.2498 17.5V45Z" fill="white"/>
</g>
<g id="Group_3">
<path id="Vector_3" d="M48.5977 16.35L6.25024 21.9225V17.495L49.0727 6.225L48.4277 3.775L6.25024 14.8725V3.75H3.75024V15.5325L0.927734 16.275L1.57273 18.725L3.75024 18.1525V22.25L1.09773 22.6L1.40273 24.9L3.75024 24.59V46.25H46.2502V43.75H6.25024V24.2625L48.9027 18.65L48.5977 16.35Z" fill="white"/>
<path id="Vector_4" d="M33.0348 31.535H26.3398V23.5L16.9648 34.215H23.6598V42.25L33.0348 31.535Z" fill="#FFE04C"/>
</g>
</g>
<defs>
<clipPath id="clip0_741_2173">
<rect width="50" height="50" fill="white"/>
</clipPath>
</defs>
</svg>
