<svg width="50" height="50" viewBox="0 0 50 50" fill="none" xmlns="http://www.w3.org/2000/svg">
<g id="Frame" clip-path="url(#clip0_741_2201)">
<g id="Group" opacity="0.33">
<path id="Vector" d="M18.3877 47.8625C27.3623 47.8625 34.6377 40.5872 34.6377 31.6125C34.6377 22.6379 27.3623 15.3625 18.3877 15.3625C9.41307 15.3625 2.1377 22.6379 2.1377 31.6125C2.1377 40.5872 9.41307 47.8625 18.3877 47.8625Z" fill="white"/>
</g>
<path id="Vector_2" d="M34.9148 40.4751C34.7323 40.4751 34.5498 40.4626 34.3698 40.4351C32.8623 40.2151 31.8123 39.1401 30.5998 37.8951L30.5798 37.8726C29.2748 36.5326 27.9398 35.2876 27.0448 35.3526C26.3723 35.3926 25.4523 36.1801 24.2348 37.7626C23.1448 39.1776 22.0273 39.8851 20.8148 39.9201C18.9373 39.9801 17.5623 38.4076 16.2448 36.8901C15.7623 36.3351 15.2648 35.7626 14.7773 35.3176L16.4623 33.4701C17.0573 34.0126 17.6048 34.6426 18.1323 35.2501C19.0173 36.2676 20.0198 37.4226 20.7223 37.4226C20.7298 37.4226 20.7348 37.4226 20.7423 37.4226C21.1398 37.4101 21.6773 36.9901 22.2548 36.2401C24.0348 33.9276 25.3823 32.9476 26.8998 32.8576C28.7098 32.7526 30.2748 33.9776 32.3723 36.1301L32.3923 36.1526C33.3248 37.1101 34.0623 37.8676 34.7298 37.9651C35.4523 38.0726 36.5923 37.4326 38.1173 36.0726C40.0673 34.3326 41.4698 33.2101 43.1298 33.4726C44.5848 33.7026 45.7198 34.9001 47.7773 37.0726L48.3723 37.7001L46.5598 39.4226L45.9598 38.7901C44.4473 37.1926 43.3523 36.0376 42.7398 35.9401C42.1748 35.8551 40.9673 36.8776 39.7798 37.9351C37.8148 39.6901 36.3223 40.4776 34.9148 40.4776V40.4751Z" fill="#FFE04C"/>
<g id="Group_2">
<path id="Vector_3" d="M23.4179 31.6423L16.1104 33.8998L18.3679 26.5923L23.4179 31.6423Z" fill="#0075FF"/>
<path id="Vector_4" d="M24.2202 31.0824L48.5402 6.7649L43.2377 1.4624L18.9027 25.7974L17.1727 26.2249L15.0052 33.2374L13.8477 34.3949L15.6152 36.1624L16.7727 35.0049L23.7852 32.8374L24.2202 31.0849V31.0824ZM18.0027 32.0049L18.9502 28.9399L21.0677 31.0574L18.0027 32.0049Z" fill="white"/>
</g>
</g>
<defs>
<clipPath id="clip0_741_2201">
<rect width="50" height="50" fill="white"/>
</clipPath>
</defs>
</svg>
