<svg width="50" height="50" viewBox="0 0 50 50" fill="none" xmlns="http://www.w3.org/2000/svg">
<g id="Frame" clip-path="url(#clip0_741_2211)">
<g id="Group">
<path id="Vector" d="M25 27.5C18.4525 27.5 13.125 22.1725 13.125 15.625C13.125 9.0775 18.4525 3.75 25 3.75C31.5475 3.75 36.875 9.0775 36.875 15.625C36.875 22.1725 31.5475 27.5 25 27.5ZM25 6.25C19.83 6.25 15.625 10.455 15.625 15.625C15.625 20.795 19.83 25 25 25C30.17 25 34.375 20.795 34.375 15.625C34.375 10.455 30.17 6.25 25 6.25Z" fill="white"/>
<path id="Vector_2" d="M25.0004 21.7926C24.4479 21.7926 23.8954 21.6976 23.3604 21.5076L24.1379 19.3051C24.4204 19.4051 24.7104 19.4551 24.9979 19.4551C26.4229 19.4551 27.5804 18.2976 27.5804 16.8726H29.9154C29.9154 19.5851 27.7079 21.7901 24.9979 21.7901L25.0004 21.7926Z" fill="#FFE04C"/>
</g>
<path id="Vector_3" d="M45.0003 46.295H5.00027L3.84277 44.4225L13.2178 25.6725L14.3753 24.9575H35.6253L36.7828 25.6725L46.1578 44.4225L45.0003 46.295ZM7.09277 43.7075H42.9053L34.8253 27.545H15.1753L7.09527 43.7075H7.09277Z" fill="white"/>
<g id="Group_2">
<path id="Vector_4" d="M42.5 34.375V25.625C42.5 24.9346 41.9404 24.375 41.25 24.375H26.25C25.5596 24.375 25 24.9346 25 25.625V34.375C25 35.0654 25.5596 35.625 26.25 35.625H41.25C41.9404 35.625 42.5 35.0654 42.5 34.375Z" fill="white"/>
<path id="Vector_5" opacity="0.33" d="M42.5 34.375V25.625C42.5 24.9346 41.9404 24.375 41.25 24.375H26.25C25.5596 24.375 25 24.9346 25 25.625V34.375C25 35.0654 25.5596 35.625 26.25 35.625H41.25C41.9404 35.625 42.5 35.0654 42.5 34.375Z" fill="#0075FF"/>
<path id="Vector_6" d="M41.25 36.875H26.25C24.8725 36.875 23.75 35.7525 23.75 34.375V25.625C23.75 24.2475 24.8725 23.125 26.25 23.125H41.25C42.6275 23.125 43.75 24.2475 43.75 25.625V34.375C43.75 35.7525 42.6275 36.875 41.25 36.875ZM26.25 25.625V34.3775H41.25V25.625H26.25Z" fill="#FFE04C"/>
<path id="Vector_7" d="M38.75 26.8726H28.75V29.3751H38.75V26.8726Z" fill="#FFE04C"/>
<path id="Vector_8" d="M38.75 30.6226H28.75V33.1251H38.75V30.6226Z" fill="#FFE04C"/>
</g>
<g id="Group_3">
<path id="Vector_9" d="M17.6175 16.875H9.8825C8.56668 16.875 7.5 17.9417 7.5 19.2575V35.7425C7.5 37.0583 8.56668 38.125 9.8825 38.125H17.6175C18.9333 38.125 20 37.0583 20 35.7425V19.2575C20 17.9417 18.9333 16.875 17.6175 16.875Z" fill="white"/>
<path id="Vector_10" opacity="0.33" d="M17.6175 16.875H9.8825C8.56668 16.875 7.5 17.9417 7.5 19.2575V35.7425C7.5 37.0583 8.56668 38.125 9.8825 38.125H17.6175C18.9333 38.125 20 37.0583 20 35.7425V19.2575C20 17.9417 18.9333 16.875 17.6175 16.875Z" fill="#0075FF"/>
<path id="Vector_11" d="M17.6175 39.375H9.885C7.8825 39.375 6.25 37.745 6.25 35.7425V19.26C6.25 17.2575 7.88 15.625 9.885 15.625H17.6175C19.62 15.625 21.25 17.255 21.25 19.26V35.7425C21.25 37.745 19.62 39.375 17.6175 39.375ZM9.885 18.125C9.26 18.125 8.75 18.6325 8.75 19.26V35.7425C8.75 36.3675 9.2575 36.875 9.885 36.875H17.6175C18.2425 36.875 18.75 36.3675 18.75 35.7425V19.26C18.75 18.635 18.2425 18.125 17.6175 18.125H9.885Z" fill="#FFE04C"/>
<path id="Vector_12" d="M11.668 19.155C10.633 19.155 9.79297 19.995 9.79297 21.03C9.79297 22.065 10.633 22.905 11.668 22.905C12.703 22.905 13.543 22.065 13.543 21.03C13.543 19.995 12.703 19.155 11.668 19.155Z" fill="#FFE04C"/>
</g>
</g>
<defs>
<clipPath id="clip0_741_2211">
<rect width="50" height="50" fill="white"/>
</clipPath>
</defs>
</svg>
