<svg width="40" height="40" viewBox="0 0 40 40" fill="none" xmlns="http://www.w3.org/2000/svg">
<path d="M10.5014 15.6784C9.42093 14.8078 8.72913 13.5719 8.55813 12.2194V12.1572C8.52703 11.9162 8.51149 11.6753 8.51926 11.4265C8.51926 11.3099 8.51926 11.2011 8.53481 11.0845V11.0301C8.53481 11.0301 8.53481 10.9912 8.54258 10.9446C8.55812 10.8125 8.58144 10.6803 8.61254 10.5171L8.63586 10.4005C8.66695 10.2761 8.69804 10.144 8.7369 10.0196L8.78354 9.87191C8.82241 9.73977 8.86905 9.6154 8.92346 9.49104L8.96232 9.40553C9.57639 7.99861 10.7734 6.91816 12.2736 6.44401C12.398 6.40514 12.5379 6.36628 12.7245 6.32741L12.7944 6.31187C12.9421 6.28078 13.0976 6.25746 13.2764 6.24191H13.3152C13.6728 6.20305 14.0381 6.20305 14.4268 6.24191C14.5978 6.25746 14.7688 6.28855 14.9398 6.31964C17.2017 6.80934 18.8963 8.68264 19.1528 10.9835C19.1683 11.1234 19.1683 11.2633 19.1761 11.4032V11.4887C19.1761 12.0406 19.4792 12.5458 19.9612 12.8179C20.4275 13.0822 21.0027 13.0744 21.4614 12.8101C21.8189 12.608 22.0754 12.2582 22.1609 11.854H22.1998V11.5276C22.1998 11.2944 22.1842 11.0456 22.1609 10.7736V10.6259L21.9588 10.6492L22.1454 10.5482C22.1376 10.4549 22.1221 10.3694 22.1065 10.2606C21.5779 6.83266 18.9429 4.06546 15.5461 3.38144C15.4295 3.35812 15.3207 3.3348 15.2118 3.31925L15.1263 3.30371C15.0331 3.28816 14.932 3.28039 14.8387 3.26484L14.7066 3.24929C14.6211 3.24152 14.5434 3.23375 14.419 3.22598H14.3879L14.2946 3.2182C14.0226 3.20266 13.7427 3.20266 13.4629 3.2182H13.323C13.2297 3.23375 13.1442 3.24152 13.0509 3.24929L12.8566 3.27261C12.7789 3.28039 12.7089 3.28816 12.639 3.30371L12.499 3.32703C12.4058 3.34257 12.3203 3.35812 12.227 3.37366L12.1259 3.39698C12.0171 3.4203 11.9161 3.44362 11.815 3.47471L11.7606 3.49026C10.3304 3.86336 9.02451 4.60957 7.98292 5.65116C7.60204 6.03204 7.26003 6.45178 6.96465 6.89484C6.88692 7.00367 6.82474 7.11249 6.76256 7.21354L6.63819 7.42341C6.6071 7.47005 6.58378 7.51669 6.56046 7.56332C4.60165 11.1545 5.5111 15.5929 8.72913 18.1113C8.99341 18.3212 9.31988 18.43 9.65412 18.43C9.71631 18.43 9.77849 18.43 9.84067 18.4222C10.2371 18.3756 10.5947 18.1735 10.8434 17.8548C10.8823 17.8004 10.9211 17.746 10.96 17.6838C11.3331 17.0153 11.1465 16.1603 10.5402 15.7017L10.5014 15.6784Z" fill="url(#paint0_linear_503_713)"/>
<path d="M34.1701 25.5109L31.2708 18.3053C30.6179 16.4554 28.6357 15.4293 26.7547 15.9734L20.9404 17.6213L18.8184 12.3357C18.4064 11.3174 17.6291 10.5168 16.6186 10.0893C15.7714 9.7317 14.8542 9.66174 13.9758 9.88716L14.1701 9.68506L13.183 10.1825C11.263 11.1542 10.4158 13.3928 11.2086 15.3905L14.9708 24.7958L14.3334 25.0523C13.0586 25.5654 12.0636 26.5448 11.5351 27.8118C10.9987 29.071 10.991 30.4701 11.504 31.7449C12.0248 33.0275 13.0586 34.0613 14.3411 34.5743L19.0205 36.4631C19.5802 36.6886 20.1709 36.8052 20.7617 36.8052C21.5234 36.8052 22.2774 36.6186 22.9614 36.2455L32.0947 31.3019C34.1624 30.1825 35.064 27.6874 34.1857 25.5032L34.1701 25.5109ZM30.649 28.6435L21.5156 33.5871C21.0881 33.8203 20.5907 33.8436 20.1398 33.6649L15.4605 31.776C14.9319 31.5584 14.5199 31.1542 14.3023 30.6334C14.0846 30.1126 14.0769 29.5296 14.2945 29.0088C14.5122 28.4802 14.9319 28.0605 15.4605 27.8429L16.0901 27.5863L16.5798 28.7989C16.6031 28.8611 16.6264 28.9311 16.6575 28.9933C17.0073 29.7395 17.9012 30.0737 18.6474 29.7317C19.3781 29.3975 19.7123 28.5502 19.4169 27.804L13.9836 14.2789C13.8748 14.0069 13.8748 13.7115 13.9836 13.4394C14.1002 13.1674 14.3101 12.9575 14.5821 12.8487C14.8386 12.7399 15.1262 12.7399 15.3905 12.8487C15.6781 12.9575 15.9035 13.1829 16.0201 13.4627L18.6474 20.0076C18.935 20.7305 19.7123 21.1114 20.4585 20.8938L27.5942 18.865C27.9828 18.7795 28.3637 19.0049 28.4803 19.4169L31.3796 26.6303C31.6828 27.392 31.3796 28.2626 30.649 28.6512V28.6435Z" fill="url(#paint1_linear_503_713)"/>
<defs>
<linearGradient id="paint0_linear_503_713" x1="15.8339" y1="0.802377" x2="13.2457" y2="18.4602" gradientUnits="userSpaceOnUse">
<stop stop-color="#FF7133"/>
<stop offset="1" stop-color="#FFA076"/>
</linearGradient>
<linearGradient id="paint1_linear_503_713" x1="25.5032" y1="5.40212" x2="19.7745" y2="36.4787" gradientUnits="userSpaceOnUse">
<stop stop-color="#FF7133"/>
<stop offset="1" stop-color="#FFA076"/>
</linearGradient>
</defs>
</svg>
