<svg width="40" height="40" viewBox="0 0 40 40" fill="none" xmlns="http://www.w3.org/2000/svg">
<path d="M18.7874 4.94365C10.4703 5.6199 4.27518 12.911 4.95921 21.2281C5.63546 29.5453 12.9266 35.7404 21.2437 35.0564C28.6825 34.4501 34.5667 28.5037 35.0875 21.0571C35.1496 20.2332 34.5278 19.5181 33.7039 19.4637H33.5873C32.8022 19.4637 32.157 20.07 32.1026 20.855C31.6051 27.5243 25.7987 32.5301 19.1294 32.0327C12.81 31.5663 7.9285 26.3039 7.92073 19.9689C7.92073 19.7124 7.9285 19.4559 7.94405 19.1994C8.36379 12.841 13.6339 7.8974 20.0078 7.88963C20.2798 7.88963 20.5441 7.8974 20.8162 7.92072C24.143 8.14614 27.2289 9.72406 29.3587 12.2969L29.6308 12.6312L19.7668 21.5157L16.2223 17.9712C15.616 17.4116 14.6755 17.4427 14.1158 18.049C13.5873 18.6242 13.5873 19.5103 14.1158 20.0777L17.4893 23.4512C18.7486 24.7027 20.7695 24.7182 22.0521 23.4901L31.885 14.6211C32.8488 13.6417 32.9654 12.1182 32.157 11.0066C29.3199 7.17451 24.8348 4.91256 20.07 4.90479H20.0156C19.6114 4.90479 19.2072 4.92033 18.803 4.95142L18.7874 4.94365Z" fill="url(#paint0_linear_503_717)"/>
<defs>
<linearGradient id="paint0_linear_503_717" x1="23.5625" y1="0.13495" x2="17.9608" y2="35.021" gradientUnits="userSpaceOnUse">
<stop stop-color="#FF7133"/>
<stop offset="1" stop-color="#FFA076"/>
</linearGradient>
</defs>
</svg>
