<svg width="40" height="40" viewBox="0 0 40 40" fill="none" xmlns="http://www.w3.org/2000/svg">
<path d="M6.22622 24.1897L4.67939 28.8379C4.42288 29.5997 4.83485 30.4236 5.59661 30.6802C6.35837 30.9367 7.18231 30.5247 7.43882 29.7629L7.79638 28.698C12.0482 35.4295 20.9561 37.4349 27.6798 33.1753C30.6491 31.2942 32.8333 28.4027 33.8127 25.0292C34.0148 24.2519 33.5562 23.459 32.7867 23.2491L32.6467 23.2103H32.639C31.9005 23.1015 31.201 23.5601 31.0066 24.2752C29.2033 30.3537 22.8139 33.8282 16.7354 32.0249C14.0303 31.2243 11.714 29.452 10.2293 27.0579L11.8073 27.5865C12.569 27.8352 13.393 27.4233 13.6417 26.6615C13.8904 25.8997 13.4785 25.0758 12.7167 24.8271L8.06843 23.2725C7.92074 23.2258 7.75751 23.2025 7.60205 23.1947C6.98021 23.1947 6.42055 23.5989 6.234 24.1897H6.22622Z" fill="url(#paint0_linear_503_721)"/>
<path d="M6.1951 14.9789C5.97746 15.7484 6.42829 16.549 7.2056 16.7667C7.9829 16.9843 8.77575 16.5335 8.99339 15.7562C8.99339 15.7484 8.99339 15.7329 9.00117 15.7173C10.8045 9.63883 17.1939 6.16428 23.2724 7.96763C25.9775 8.76825 28.2938 10.5405 29.7785 12.9346L28.2083 12.4138C27.843 12.2894 27.4466 12.3127 27.1045 12.4838C26.3817 12.8413 26.0863 13.7119 26.4438 14.427C26.6148 14.7768 26.918 15.0411 27.2911 15.1655L31.9394 16.7123C32.6934 16.9688 33.5173 16.5646 33.7738 15.8028C33.7738 15.8028 33.7738 15.8028 33.7738 15.7951L35.3206 11.1468C35.515 10.5638 35.3206 9.91866 34.8309 9.53778L34.9087 9.47559L34.4034 9.30459C33.6417 9.05585 32.8177 9.46005 32.569 10.2218L32.2114 11.2867C27.9596 4.55527 19.0517 2.54983 12.328 6.80945C9.35873 8.69052 7.1745 11.5821 6.1951 14.9556V14.9789Z" fill="url(#paint1_linear_503_721)"/>
<path d="M18.7019 14.7065L16.3777 19.3548C16.0202 20.0699 16.3078 20.9405 17.0229 21.3058C17.225 21.4068 17.4504 21.4612 17.6758 21.4612H19.9766L18.7019 24.0108C18.3443 24.7259 18.6319 25.5965 19.347 25.9541C20.0622 26.3116 20.9405 26.0162 21.2981 25.3011L23.6222 20.6529C23.9798 19.9377 23.6922 19.0594 22.977 18.7018C22.7749 18.6008 22.5495 18.5464 22.3241 18.5464H20.0233L21.2981 16.0046C21.4691 15.6626 21.5002 15.2584 21.3758 14.893C21.3602 14.8464 21.3447 14.8075 21.3292 14.7687V14.6443L21.2981 14.7065C20.9405 13.9914 20.0622 13.696 19.347 14.0613C19.0672 14.2012 18.8418 14.4267 18.7019 14.7065Z" fill="url(#paint2_linear_503_721)"/>
<defs>
<linearGradient id="paint0_linear_503_721" x1="22.6852" y1="21.2649" x2="21.7195" y2="35.6759" gradientUnits="userSpaceOnUse">
<stop stop-color="#FF7133"/>
<stop offset="1" stop-color="#FFA076"/>
</linearGradient>
<linearGradient id="paint1_linear_503_721" x1="24.2208" y1="2.63839" x2="23.2501" y2="17.0857" gradientUnits="userSpaceOnUse">
<stop stop-color="#FF7133"/>
<stop offset="1" stop-color="#FFA076"/>
</linearGradient>
<linearGradient id="paint2_linear_503_721" x1="20.8913" y1="11.9773" x2="17.379" y2="25.5237" gradientUnits="userSpaceOnUse">
<stop stop-color="#FF7133"/>
<stop offset="1" stop-color="#FFA076"/>
</linearGradient>
</defs>
</svg>
