<svg width="40" height="40" viewBox="0 0 40 40" fill="none" xmlns="http://www.w3.org/2000/svg">
<path d="M17.7811 26.6716H22.2264V31.1169H17.7811V26.6716ZM15.8978 17.781H24.1174L24.6435 24.0105H15.3793L15.9054 17.781H15.8978ZM5.81011 23.1184C5.40599 22.6304 5.24587 21.9823 5.37549 21.3647L6.12273 17.7886H13.2138L12.6877 24.0181H7.73157C6.98433 24.0258 6.28285 23.6979 5.80248 23.126M26.7937 17.781H33.8848L34.6397 21.3571C34.7693 21.9747 34.6092 22.6228 34.2051 23.1108C33.7323 23.6827 33.0232 24.0105 32.276 24.0029H27.3198L26.7937 17.781ZM16.645 8.8828H23.3702L23.8963 15.1123H16.1189L16.645 8.8828ZM26.0465 8.8828H30.0267C31.1399 8.85231 32.1235 9.59954 32.3904 10.6823L33.3206 15.1123H26.565L26.0389 8.8828H26.0465ZM7.60957 10.6823C7.87644 9.59954 8.86005 8.85231 9.97328 8.8828H13.9535L13.4273 15.1123H6.67172L7.60195 10.6899L7.60957 10.6823ZM9.97328 6.2141C7.60195 6.19123 5.52799 7.82295 5.00187 10.1333L2.76016 20.8081C2.46279 22.2187 2.82116 23.6827 3.73615 24.7959C4.71213 25.993 6.18372 26.6868 7.73157 26.6716H15.1048V31.1169H12.8783C12.1387 31.1169 11.544 31.7116 11.544 32.4512C11.544 33.1909 12.1387 33.7856 12.8783 33.7856H27.114C27.8536 33.7856 28.4483 33.1909 28.4483 32.4512C28.4483 31.7116 27.8536 31.1169 27.114 31.1169H24.8875V26.6716H32.2607C33.8086 26.6792 35.2802 25.993 36.2562 24.7959C37.1711 23.6827 37.5295 22.2187 37.2321 20.8081L34.9904 10.1333C34.4567 7.82295 32.3904 6.19123 30.019 6.2141H9.97328Z" fill="url(#paint0_linear_503_726)"/>
<defs>
<linearGradient id="paint0_linear_503_726" x1="24.0893" y1="1.85961" x2="19.9879" y2="34.004" gradientUnits="userSpaceOnUse">
<stop stop-color="#FF7133"/>
<stop offset="1" stop-color="#FFA076"/>
</linearGradient>
</defs>
</svg>
