<svg width="72" height="76" viewBox="0 0 72 76" fill="none" xmlns="http://www.w3.org/2000/svg">
<g id="Frame" clip-path="url(#clip0_741_2035)">
<path id="Vector" opacity="0.33" d="M64.3916 38L72 49.742L58.9672 54.7504L58.248 68.742L44.7724 65.1054L36.0019 76L27.2276 65.1054L13.752 68.742L13.0328 54.7504L0 49.742L7.61222 38L0 26.258L13.0328 21.2496L13.752 7.258L27.2276 10.8946L36.0019 0L44.7724 10.8946L58.248 7.258L58.9672 21.2496L72 26.258L64.3916 38Z" fill="#0075FF"/>
<g id="Group">
<path id="Vector_2" d="M24.9947 34.3253C29.045 34.3253 32.342 31.0155 32.342 26.9495C32.342 22.8835 29.045 19.5737 24.9947 19.5737C20.9444 19.5737 17.6475 22.8835 17.6475 26.9495C17.6475 31.0155 20.9444 34.3253 24.9947 34.3253Z" fill="#0075FF"/>
<path id="Vector_3" d="M47.0064 41.6746C42.9562 41.6746 39.6592 44.9844 39.6592 49.0504C39.6592 53.1164 42.9562 56.4262 47.0064 56.4262C51.0567 56.4262 54.3537 53.1164 54.3537 49.0504C54.3537 44.9844 51.0567 41.6746 47.0064 41.6746Z" fill="#0075FF"/>
<path id="Vector_4" d="M48.0052 20.5765L18.6455 50.0503L23.9987 55.4243L53.3584 25.9505L48.0052 20.5765Z" fill="#0075FF"/>
</g>
</g>
<defs>
<clipPath id="clip0_741_2035">
<rect width="72" height="76" fill="white"/>
</clipPath>
</defs>
</svg>
